  0
SECTION
  2
HEADER
  9
$ACADVER
  1
AC1009
  9
$FILLMODE
 70
 0
  9
$SPLFRAME
 70
 1
  9
$EXTMIN
 10
0
 20
0
 30
0.0
  9
$EXTMAX
 10
1058.33
 20
1058.33
 30
0.0
  0
ENDSEC
  0
SECTION
  2
TABLES
  0
TABLE
  2
LAYER
 70
1
  0
LAYER
  2
0
 70
     0
 62
     7
  6
CONTINUOUS
  0
ENDTAB
  0
ENDSEC
  0
SECTION
  2
ENTITIES
  0
LINE
  8
0
 62
     0
 10
215.646
 20
105.385
 30
0.0
 11
215.802
 21
105.379
 31
0.0
  0
LINE
  8
0
 62
     0
 10
215.802
 20
105.379
 30
0.0
 11
215.958
 21
105.361
 31
0.0
  0
LINE
  8
0
 62
     0
 10
215.958
 20
105.361
 30
0.0
 11
216.112
 21
105.33
 31
0.0
  0
LINE
  8
0
 62
     0
 10
216.112
 20
105.33
 30
0.0
 11
216.264
 21
105.288
 31
0.0
  0
LINE
  8
0
 62
     0
 10
216.264
 20
105.288
 30
0.0
 11
216.411
 21
105.233
 31
0.0
  0
LINE
  8
0
 62
     0
 10
216.411
 20
105.233
 30
0.0
 11
216.553
 21
105.168
 31
0.0
  0
LINE
  8
0
 62
     0
 10
216.553
 20
105.168
 30
0.0
 11
216.691
 21
105.091
 31
0.0
  0
LINE
  8
0
 62
     0
 10
216.691
 20
105.091
 30
0.0
 11
216.822
 21
105.004
 31
0.0
  0
LINE
  8
0
 62
     0
 10
216.822
 20
105.004
 30
0.0
 11
216.945
 21
104.906
 31
0.0
  0
LINE
  8
0
 62
     0
 10
216.945
 20
104.906
 30
0.0
 11
217.06
 21
104.8
 31
0.0
  0
LINE
  8
0
 62
     0
 10
217.06
 20
104.8
 30
0.0
 11
217.166
 21
104.684
 31
0.0
  0
LINE
  8
0
 62
     0
 10
217.166
 20
104.684
 30
0.0
 11
217.264
 21
104.562
 31
0.0
  0
LINE
  8
0
 62
     0
 10
217.264
 20
104.562
 30
0.0
 11
217.351
 21
104.43
 31
0.0
  0
LINE
  8
0
 62
     0
 10
217.351
 20
104.43
 30
0.0
 11
217.428
 21
104.293
 31
0.0
  0
LINE
  8
0
 62
     0
 10
217.428
 20
104.293
 30
0.0
 11
217.493
 21
104.151
 31
0.0
  0
LINE
  8
0
 62
     0
 10
217.493
 20
104.151
 30
0.0
 11
217.548
 21
104.005
 31
0.0
  0
LINE
  8
0
 62
     0
 10
217.548
 20
104.005
 30
0.0
 11
217.591
 21
103.852
 31
0.0
  0
LINE
  8
0
 62
     0
 10
217.591
 20
103.852
 30
0.0
 11
217.621
 21
103.699
 31
0.0
  0
LINE
  8
0
 62
     0
 10
217.621
 20
103.699
 30
0.0
 11
217.639
 21
103.542
 31
0.0
  0
LINE
  8
0
 62
     0
 10
217.639
 20
103.542
 30
0.0
 11
217.646
 21
103.385
 31
0.0
  0
LINE
  8
0
 62
     0
 10
217.646
 20
103.385
 30
0.0
 11
217.646
 21
2.13458
 31
0.0
  0
LINE
  8
0
 62
     0
 10
217.646
 20
2.13458
 30
0.0
 11
217.639
 21
1.97749
 31
0.0
  0
LINE
  8
0
 62
     0
 10
217.639
 20
1.97749
 30
0.0
 11
217.621
 21
1.82177
 31
0.0
  0
LINE
  8
0
 62
     0
 10
217.621
 20
1.82177
 30
0.0
 11
217.591
 21
1.66743
 31
0.0
  0
LINE
  8
0
 62
     0
 10
217.591
 20
1.66743
 30
0.0
 11
217.548
 21
1.51584
 31
0.0
  0
LINE
  8
0
 62
     0
 10
217.548
 20
1.51584
 30
0.0
 11
217.493
 21
1.36839
 31
0.0
  0
LINE
  8
0
 62
     0
 10
217.493
 20
1.36839
 30
0.0
 11
217.428
 21
1.22645
 31
0.0
  0
LINE
  8
0
 62
     0
 10
217.428
 20
1.22645
 30
0.0
 11
217.351
 21
1.09003
 31
0.0
  0
LINE
  8
0
 62
     0
 10
217.351
 20
1.09003
 30
0.0
 11
217.264
 21
0.959115
 31
0.0
  0
LINE
  8
0
 62
     0
 10
217.264
 20
0.959115
 30
0.0
 11
217.166
 21
0.836468
 31
0.0
  0
LINE
  8
0
 62
     0
 10
217.166
 20
0.836468
 30
0.0
 11
217.06
 21
0.720714
 31
0.0
  0
LINE
  8
0
 62
     0
 10
217.06
 20
0.720714
 30
0.0
 11
216.945
 21
0.614606
 31
0.0
  0
LINE
  8
0
 62
     0
 10
216.945
 20
0.614606
 30
0.0
 11
216.822
 21
0.515387
 31
0.0
  0
LINE
  8
0
 62
     0
 10
216.822
 20
0.515387
 30
0.0
 11
216.691
 21
0.428569
 31
0.0
  0
LINE
  8
0
 62
     0
 10
216.691
 20
0.428569
 30
0.0
 11
216.553
 21
0.3514
 31
0.0
  0
LINE
  8
0
 62
     0
 10
216.553
 20
0.3514
 30
0.0
 11
216.411
 21
0.286632
 31
0.0
  0
LINE
  8
0
 62
     0
 10
216.411
 20
0.286632
 30
0.0
 11
216.264
 21
0.23151
 31
0.0
  0
LINE
  8
0
 62
     0
 10
216.264
 20
0.23151
 30
0.0
 11
216.112
 21
0.190169
 31
0.0
  0
LINE
  8
0
 62
     0
 10
216.112
 20
0.190169
 30
0.0
 11
215.958
 21
0.158474
 31
0.0
  0
LINE
  8
0
 62
     0
 10
215.958
 20
0.158474
 30
0.0
 11
215.802
 21
0.14056
 31
0.0
  0
LINE
  8
0
 62
     0
 10
215.802
 20
0.14056
 30
0.0
 11
215.646
 21
0.135048
 31
0.0
  0
LINE
  8
0
 62
     0
 10
215.646
 20
0.135048
 30
0.0
 11
2.096
 21
0.135048
 31
0.0
  0
LINE
  8
0
 62
     0
 10
2.096
 20
0.135048
 30
0.0
 11
1.9389
 21
0.14056
 31
0.0
  0
LINE
  8
0
 62
     0
 10
1.9389
 20
0.14056
 30
0.0
 11
1.7818
 21
0.158474
 31
0.0
  0
LINE
  8
0
 62
     0
 10
1.7818
 20
0.158474
 30
0.0
 11
1.62884
 21
0.190169
 31
0.0
  0
LINE
  8
0
 62
     0
 10
1.62884
 20
0.190169
 30
0.0
 11
1.47588
 21
0.23151
 31
0.0
  0
LINE
  8
0
 62
     0
 10
1.47588
 20
0.23151
 30
0.0
 11
1.32981
 21
0.286632
 31
0.0
  0
LINE
  8
0
 62
     0
 10
1.32981
 20
0.286632
 30
0.0
 11
1.18787
 21
0.3514
 31
0.0
  0
LINE
  8
0
 62
     0
 10
1.18787
 20
0.3514
 30
0.0
 11
1.05006
 21
0.428569
 31
0.0
  0
LINE
  8
0
 62
     0
 10
1.05006
 20
0.428569
 30
0.0
 11
0.919152
 21
0.515387
 31
0.0
  0
LINE
  8
0
 62
     0
 10
0.919152
 20
0.515387
 30
0.0
 11
0.796505
 21
0.614606
 31
0.0
  0
LINE
  8
0
 62
     0
 10
0.796505
 20
0.614606
 30
0.0
 11
0.680752
 21
0.720714
 31
0.0
  0
LINE
  8
0
 62
     0
 10
0.680752
 20
0.720714
 30
0.0
 11
0.574643
 21
0.836468
 31
0.0
  0
LINE
  8
0
 62
     0
 10
0.574643
 20
0.836468
 30
0.0
 11
0.4768
 21
0.959115
 31
0.0
  0
LINE
  8
0
 62
     0
 10
0.4768
 20
0.959115
 30
0.0
 11
0.389985
 21
1.09003
 31
0.0
  0
LINE
  8
0
 62
     0
 10
0.389985
 20
1.09003
 30
0.0
 11
0.312815
 21
1.22645
 31
0.0
  0
LINE
  8
0
 62
     0
 10
0.312815
 20
1.22645
 30
0.0
 11
0.248047
 21
1.36839
 31
0.0
  0
LINE
  8
0
 62
     0
 10
0.248047
 20
1.36839
 30
0.0
 11
0.192925
 21
1.51584
 31
0.0
  0
LINE
  8
0
 62
     0
 10
0.192925
 20
1.51584
 30
0.0
 11
0.150206
 21
1.66743
 31
0.0
  0
LINE
  8
0
 62
     0
 10
0.150206
 20
1.66743
 30
0.0
 11
0.119889
 21
1.82177
 31
0.0
  0
LINE
  8
0
 62
     0
 10
0.119889
 20
1.82177
 30
0.0
 11
0.101975
 21
1.97749
 31
0.0
  0
LINE
  8
0
 62
     0
 10
0.101975
 20
1.97749
 30
0.0
 11
0.0950846
 21
2.13458
 31
0.0
  0
LINE
  8
0
 62
     0
 10
0.0950846
 20
2.13458
 30
0.0
 11
0.0950846
 21
103.385
 31
0.0
  0
LINE
  8
0
 62
     0
 10
0.0950846
 20
103.385
 30
0.0
 11
0.101975
 21
103.542
 31
0.0
  0
LINE
  8
0
 62
     0
 10
0.101975
 20
103.542
 30
0.0
 11
0.119889
 21
103.699
 31
0.0
  0
LINE
  8
0
 62
     0
 10
0.119889
 20
103.699
 30
0.0
 11
0.150206
 21
103.852
 31
0.0
  0
LINE
  8
0
 62
     0
 10
0.150206
 20
103.852
 30
0.0
 11
0.192925
 21
104.005
 31
0.0
  0
LINE
  8
0
 62
     0
 10
0.192925
 20
104.005
 30
0.0
 11
0.248047
 21
104.151
 31
0.0
  0
LINE
  8
0
 62
     0
 10
0.248047
 20
104.151
 30
0.0
 11
0.312815
 21
104.293
 31
0.0
  0
LINE
  8
0
 62
     0
 10
0.312815
 20
104.293
 30
0.0
 11
0.389985
 21
104.43
 31
0.0
  0
LINE
  8
0
 62
     0
 10
0.389985
 20
104.43
 30
0.0
 11
0.4768
 21
104.562
 31
0.0
  0
LINE
  8
0
 62
     0
 10
0.4768
 20
104.562
 30
0.0
 11
0.574643
 21
104.684
 31
0.0
  0
LINE
  8
0
 62
     0
 10
0.574643
 20
104.684
 30
0.0
 11
0.680752
 21
104.8
 31
0.0
  0
LINE
  8
0
 62
     0
 10
0.680752
 20
104.8
 30
0.0
 11
0.796505
 21
104.906
 31
0.0
  0
LINE
  8
0
 62
     0
 10
0.796505
 20
104.906
 30
0.0
 11
0.919152
 21
105.004
 31
0.0
  0
LINE
  8
0
 62
     0
 10
0.919152
 20
105.004
 30
0.0
 11
1.05006
 21
105.091
 31
0.0
  0
LINE
  8
0
 62
     0
 10
1.05006
 20
105.091
 30
0.0
 11
1.18787
 21
105.168
 31
0.0
  0
LINE
  8
0
 62
     0
 10
1.18787
 20
105.168
 30
0.0
 11
1.32981
 21
105.233
 31
0.0
  0
LINE
  8
0
 62
     0
 10
1.32981
 20
105.233
 30
0.0
 11
1.47588
 21
105.288
 31
0.0
  0
LINE
  8
0
 62
     0
 10
1.47588
 20
105.288
 30
0.0
 11
1.62884
 21
105.33
 31
0.0
  0
LINE
  8
0
 62
     0
 10
1.62884
 20
105.33
 30
0.0
 11
1.7818
 21
105.361
 31
0.0
  0
LINE
  8
0
 62
     0
 10
1.7818
 20
105.361
 30
0.0
 11
1.9389
 21
105.379
 31
0.0
  0
LINE
  8
0
 62
     0
 10
1.9389
 20
105.379
 30
0.0
 11
2.096
 21
105.385
 31
0.0
  0
LINE
  8
0
 62
     0
 10
2.096
 20
105.385
 30
0.0
 11
215.646
 21
105.385
 31
0.0
  0
LINE
  8
0
 62
     0
 10
2.28617
 20
3.58567
 30
0.0
 11
2.0078
 21
3.44372
 31
0.0
  0
LINE
  8
0
 62
     0
 10
2.0078
 20
3.44372
 30
0.0
 11
1.78594
 21
3.22185
 31
0.0
  0
LINE
  8
0
 62
     0
 10
1.78594
 20
3.22185
 30
0.0
 11
1.644
 21
2.94349
 31
0.0
  0
LINE
  8
0
 62
     0
 10
1.644
 20
2.94349
 30
0.0
 11
1.59439
 21
2.63481
 31
0.0
  0
LINE
  8
0
 62
     0
 10
1.59439
 20
2.63481
 30
0.0
 11
1.644
 21
2.32475
 31
0.0
  0
LINE
  8
0
 62
     0
 10
1.644
 20
2.32475
 30
0.0
 11
1.78594
 21
2.04639
 31
0.0
  0
LINE
  8
0
 62
     0
 10
1.78594
 20
2.04639
 30
0.0
 11
2.0078
 21
1.82452
 31
0.0
  0
LINE
  8
0
 62
     0
 10
2.0078
 20
1.82452
 30
0.0
 11
2.28617
 21
1.68258
 31
0.0
  0
LINE
  8
0
 62
     0
 10
2.28617
 20
1.68258
 30
0.0
 11
2.59485
 21
1.63573
 31
0.0
  0
LINE
  8
0
 62
     0
 10
2.59485
 20
1.63573
 30
0.0
 11
2.90491
 21
1.68258
 31
0.0
  0
LINE
  8
0
 62
     0
 10
2.90491
 20
1.68258
 30
0.0
 11
3.18189
 21
1.82452
 31
0.0
  0
LINE
  8
0
 62
     0
 10
3.18189
 20
1.82452
 30
0.0
 11
3.40513
 21
2.04639
 31
0.0
  0
LINE
  8
0
 62
     0
 10
3.40513
 20
2.04639
 30
0.0
 11
3.54707
 21
2.32475
 31
0.0
  0
LINE
  8
0
 62
     0
 10
3.54707
 20
2.32475
 30
0.0
 11
3.5953
 21
2.63481
 31
0.0
  0
LINE
  8
0
 62
     0
 10
3.5953
 20
2.63481
 30
0.0
 11
3.54707
 21
2.94349
 31
0.0
  0
LINE
  8
0
 62
     0
 10
3.54707
 20
2.94349
 30
0.0
 11
3.40513
 21
3.22185
 31
0.0
  0
LINE
  8
0
 62
     0
 10
3.40513
 20
3.22185
 30
0.0
 11
3.18189
 21
3.44372
 31
0.0
  0
LINE
  8
0
 62
     0
 10
3.18189
 20
3.44372
 30
0.0
 11
2.90491
 21
3.58567
 31
0.0
  0
LINE
  8
0
 62
     0
 10
2.90491
 20
3.58567
 30
0.0
 11
2.59485
 21
3.63527
 31
0.0
  0
LINE
  8
0
 62
     0
 10
2.59485
 20
3.63527
 30
0.0
 11
2.28617
 21
3.58567
 31
0.0
  0
LINE
  8
0
 62
     0
 10
73.1365
 20
3.58567
 30
0.0
 11
72.8567
 21
3.44372
 31
0.0
  0
LINE
  8
0
 62
     0
 10
72.8567
 20
3.44372
 30
0.0
 11
72.6362
 21
3.22185
 31
0.0
  0
LINE
  8
0
 62
     0
 10
72.6362
 20
3.22185
 30
0.0
 11
72.4944
 21
2.94349
 31
0.0
  0
LINE
  8
0
 62
     0
 10
72.4944
 20
2.94349
 30
0.0
 11
72.4447
 21
2.63481
 31
0.0
  0
LINE
  8
0
 62
     0
 10
72.4447
 20
2.63481
 30
0.0
 11
72.4944
 21
2.32475
 31
0.0
  0
LINE
  8
0
 62
     0
 10
72.4944
 20
2.32475
 30
0.0
 11
72.6362
 21
2.04639
 31
0.0
  0
LINE
  8
0
 62
     0
 10
72.6362
 20
2.04639
 30
0.0
 11
72.8567
 21
1.82452
 31
0.0
  0
LINE
  8
0
 62
     0
 10
72.8567
 20
1.82452
 30
0.0
 11
73.1365
 21
1.68258
 31
0.0
  0
LINE
  8
0
 62
     0
 10
73.1365
 20
1.68258
 30
0.0
 11
73.4452
 21
1.63573
 31
0.0
  0
LINE
  8
0
 62
     0
 10
73.4452
 20
1.63573
 30
0.0
 11
73.7538
 21
1.68258
 31
0.0
  0
LINE
  8
0
 62
     0
 10
73.7538
 20
1.68258
 30
0.0
 11
74.0336
 21
1.82452
 31
0.0
  0
LINE
  8
0
 62
     0
 10
74.0336
 20
1.82452
 30
0.0
 11
74.2541
 21
2.04639
 31
0.0
  0
LINE
  8
0
 62
     0
 10
74.2541
 20
2.04639
 30
0.0
 11
74.3962
 21
2.32475
 31
0.0
  0
LINE
  8
0
 62
     0
 10
74.3962
 20
2.32475
 30
0.0
 11
74.4456
 21
2.63481
 31
0.0
  0
LINE
  8
0
 62
     0
 10
74.4456
 20
2.63481
 30
0.0
 11
74.3962
 21
2.94349
 31
0.0
  0
LINE
  8
0
 62
     0
 10
74.3962
 20
2.94349
 30
0.0
 11
74.2541
 21
3.22185
 31
0.0
  0
LINE
  8
0
 62
     0
 10
74.2541
 20
3.22185
 30
0.0
 11
74.0336
 21
3.44372
 31
0.0
  0
LINE
  8
0
 62
     0
 10
74.0336
 20
3.44372
 30
0.0
 11
73.7538
 21
3.58567
 31
0.0
  0
LINE
  8
0
 62
     0
 10
73.7538
 20
3.58567
 30
0.0
 11
73.4452
 21
3.63527
 31
0.0
  0
LINE
  8
0
 62
     0
 10
73.4452
 20
3.63527
 30
0.0
 11
73.1365
 21
3.58567
 31
0.0
  0
LINE
  8
0
 62
     0
 10
143.987
 20
3.58567
 30
0.0
 11
143.707
 21
3.44372
 31
0.0
  0
LINE
  8
0
 62
     0
 10
143.707
 20
3.44372
 30
0.0
 11
143.487
 21
3.22185
 31
0.0
  0
LINE
  8
0
 62
     0
 10
143.487
 20
3.22185
 30
0.0
 11
143.345
 21
2.94349
 31
0.0
  0
LINE
  8
0
 62
     0
 10
143.345
 20
2.94349
 30
0.0
 11
143.295
 21
2.63481
 31
0.0
  0
LINE
  8
0
 62
     0
 10
143.295
 20
2.63481
 30
0.0
 11
143.345
 21
2.32475
 31
0.0
  0
LINE
  8
0
 62
     0
 10
143.345
 20
2.32475
 30
0.0
 11
143.487
 21
2.04639
 31
0.0
  0
LINE
  8
0
 62
     0
 10
143.487
 20
2.04639
 30
0.0
 11
143.707
 21
1.82452
 31
0.0
  0
LINE
  8
0
 62
     0
 10
143.707
 20
1.82452
 30
0.0
 11
143.987
 21
1.68258
 31
0.0
  0
LINE
  8
0
 62
     0
 10
143.987
 20
1.68258
 30
0.0
 11
144.296
 21
1.63573
 31
0.0
  0
LINE
  8
0
 62
     0
 10
144.296
 20
1.63573
 30
0.0
 11
144.604
 21
1.68258
 31
0.0
  0
LINE
  8
0
 62
     0
 10
144.604
 20
1.68258
 30
0.0
 11
144.883
 21
1.82452
 31
0.0
  0
LINE
  8
0
 62
     0
 10
144.883
 20
1.82452
 30
0.0
 11
145.105
 21
2.04639
 31
0.0
  0
LINE
  8
0
 62
     0
 10
145.105
 20
2.04639
 30
0.0
 11
145.247
 21
2.32475
 31
0.0
  0
LINE
  8
0
 62
     0
 10
145.247
 20
2.32475
 30
0.0
 11
145.295
 21
2.63481
 31
0.0
  0
LINE
  8
0
 62
     0
 10
145.295
 20
2.63481
 30
0.0
 11
145.247
 21
2.94349
 31
0.0
  0
LINE
  8
0
 62
     0
 10
145.247
 20
2.94349
 30
0.0
 11
145.105
 21
3.22185
 31
0.0
  0
LINE
  8
0
 62
     0
 10
145.105
 20
3.22185
 30
0.0
 11
144.883
 21
3.44372
 31
0.0
  0
LINE
  8
0
 62
     0
 10
144.883
 20
3.44372
 30
0.0
 11
144.604
 21
3.58567
 31
0.0
  0
LINE
  8
0
 62
     0
 10
144.604
 20
3.58567
 30
0.0
 11
144.296
 21
3.63527
 31
0.0
  0
LINE
  8
0
 62
     0
 10
144.296
 20
3.63527
 30
0.0
 11
143.987
 21
3.58567
 31
0.0
  0
LINE
  8
0
 62
     0
 10
214.836
 20
3.58567
 30
0.0
 11
214.559
 21
3.44372
 31
0.0
  0
LINE
  8
0
 62
     0
 10
214.559
 20
3.44372
 30
0.0
 11
214.336
 21
3.22185
 31
0.0
  0
LINE
  8
0
 62
     0
 10
214.336
 20
3.22185
 30
0.0
 11
214.194
 21
2.94349
 31
0.0
  0
LINE
  8
0
 62
     0
 10
214.194
 20
2.94349
 30
0.0
 11
214.147
 21
2.63481
 31
0.0
  0
LINE
  8
0
 62
     0
 10
214.147
 20
2.63481
 30
0.0
 11
214.194
 21
2.32475
 31
0.0
  0
LINE
  8
0
 62
     0
 10
214.194
 20
2.32475
 30
0.0
 11
214.336
 21
2.04639
 31
0.0
  0
LINE
  8
0
 62
     0
 10
214.336
 20
2.04639
 30
0.0
 11
214.559
 21
1.82452
 31
0.0
  0
LINE
  8
0
 62
     0
 10
214.559
 20
1.82452
 30
0.0
 11
214.836
 21
1.68258
 31
0.0
  0
LINE
  8
0
 62
     0
 10
214.836
 20
1.68258
 30
0.0
 11
215.146
 21
1.63573
 31
0.0
  0
LINE
  8
0
 62
     0
 10
215.146
 20
1.63573
 30
0.0
 11
215.455
 21
1.68258
 31
0.0
  0
LINE
  8
0
 62
     0
 10
215.455
 20
1.68258
 30
0.0
 11
215.733
 21
1.82452
 31
0.0
  0
LINE
  8
0
 62
     0
 10
215.733
 20
1.82452
 30
0.0
 11
215.955
 21
2.04639
 31
0.0
  0
LINE
  8
0
 62
     0
 10
215.955
 20
2.04639
 30
0.0
 11
216.097
 21
2.32475
 31
0.0
  0
LINE
  8
0
 62
     0
 10
216.097
 20
2.32475
 30
0.0
 11
216.147
 21
2.63481
 31
0.0
  0
LINE
  8
0
 62
     0
 10
216.147
 20
2.63481
 30
0.0
 11
216.097
 21
2.94349
 31
0.0
  0
LINE
  8
0
 62
     0
 10
216.097
 20
2.94349
 30
0.0
 11
215.955
 21
3.22185
 31
0.0
  0
LINE
  8
0
 62
     0
 10
215.955
 20
3.22185
 30
0.0
 11
215.733
 21
3.44372
 31
0.0
  0
LINE
  8
0
 62
     0
 10
215.733
 20
3.44372
 30
0.0
 11
215.455
 21
3.58567
 31
0.0
  0
LINE
  8
0
 62
     0
 10
215.455
 20
3.58567
 30
0.0
 11
215.146
 21
3.63527
 31
0.0
  0
LINE
  8
0
 62
     0
 10
215.146
 20
3.63527
 30
0.0
 11
214.836
 21
3.58567
 31
0.0
  0
LINE
  8
0
 62
     0
 10
4.09554
 20
100.385
 30
0.0
 11
213.647
 21
100.385
 31
0.0
  0
LINE
  8
0
 62
     0
 10
213.647
 20
100.385
 30
0.0
 11
213.647
 21
5.13457
 31
0.0
  0
LINE
  8
0
 62
     0
 10
213.647
 20
5.13457
 30
0.0
 11
4.09554
 21
5.13457
 31
0.0
  0
LINE
  8
0
 62
     0
 10
4.09554
 20
5.13457
 30
0.0
 11
4.09554
 21
100.385
 31
0.0
  0
LINE
  8
0
 62
     0
 10
2.28617
 20
103.837
 30
0.0
 11
2.0078
 21
103.695
 31
0.0
  0
LINE
  8
0
 62
     0
 10
2.0078
 20
103.695
 30
0.0
 11
1.78594
 21
103.473
 31
0.0
  0
LINE
  8
0
 62
     0
 10
1.78594
 20
103.473
 30
0.0
 11
1.644
 21
103.195
 31
0.0
  0
LINE
  8
0
 62
     0
 10
1.644
 20
103.195
 30
0.0
 11
1.59439
 21
102.886
 31
0.0
  0
LINE
  8
0
 62
     0
 10
1.59439
 20
102.886
 30
0.0
 11
1.644
 21
102.576
 31
0.0
  0
LINE
  8
0
 62
     0
 10
1.644
 20
102.576
 30
0.0
 11
1.78594
 21
102.299
 31
0.0
  0
LINE
  8
0
 62
     0
 10
1.78594
 20
102.299
 30
0.0
 11
2.0078
 21
102.076
 31
0.0
  0
LINE
  8
0
 62
     0
 10
2.0078
 20
102.076
 30
0.0
 11
2.28617
 21
101.933
 31
0.0
  0
LINE
  8
0
 62
     0
 10
2.28617
 20
101.933
 30
0.0
 11
2.59485
 21
101.885
 31
0.0
  0
LINE
  8
0
 62
     0
 10
2.59485
 20
101.885
 30
0.0
 11
2.90491
 21
101.933
 31
0.0
  0
LINE
  8
0
 62
     0
 10
2.90491
 20
101.933
 30
0.0
 11
3.18189
 21
102.076
 31
0.0
  0
LINE
  8
0
 62
     0
 10
3.18189
 20
102.076
 30
0.0
 11
3.40513
 21
102.299
 31
0.0
  0
LINE
  8
0
 62
     0
 10
3.40513
 20
102.299
 30
0.0
 11
3.54707
 21
102.576
 31
0.0
  0
LINE
  8
0
 62
     0
 10
3.54707
 20
102.576
 30
0.0
 11
3.5953
 21
102.886
 31
0.0
  0
LINE
  8
0
 62
     0
 10
3.5953
 20
102.886
 30
0.0
 11
3.54707
 21
103.195
 31
0.0
  0
LINE
  8
0
 62
     0
 10
3.54707
 20
103.195
 30
0.0
 11
3.40513
 21
103.473
 31
0.0
  0
LINE
  8
0
 62
     0
 10
3.40513
 20
103.473
 30
0.0
 11
3.18189
 21
103.695
 31
0.0
  0
LINE
  8
0
 62
     0
 10
3.18189
 20
103.695
 30
0.0
 11
2.90491
 21
103.837
 31
0.0
  0
LINE
  8
0
 62
     0
 10
2.90491
 20
103.837
 30
0.0
 11
2.59485
 21
103.885
 31
0.0
  0
LINE
  8
0
 62
     0
 10
2.59485
 20
103.885
 30
0.0
 11
2.28617
 21
103.837
 31
0.0
  0
LINE
  8
0
 62
     0
 10
73.1365
 20
103.837
 30
0.0
 11
72.8567
 21
103.695
 31
0.0
  0
LINE
  8
0
 62
     0
 10
72.8567
 20
103.695
 30
0.0
 11
72.6362
 21
103.473
 31
0.0
  0
LINE
  8
0
 62
     0
 10
72.6362
 20
103.473
 30
0.0
 11
72.4944
 21
103.195
 31
0.0
  0
LINE
  8
0
 62
     0
 10
72.4944
 20
103.195
 30
0.0
 11
72.4447
 21
102.886
 31
0.0
  0
LINE
  8
0
 62
     0
 10
72.4447
 20
102.886
 30
0.0
 11
72.4944
 21
102.576
 31
0.0
  0
LINE
  8
0
 62
     0
 10
72.4944
 20
102.576
 30
0.0
 11
72.6362
 21
102.299
 31
0.0
  0
LINE
  8
0
 62
     0
 10
72.6362
 20
102.299
 30
0.0
 11
72.8567
 21
102.076
 31
0.0
  0
LINE
  8
0
 62
     0
 10
72.8567
 20
102.076
 30
0.0
 11
73.1365
 21
101.933
 31
0.0
  0
LINE
  8
0
 62
     0
 10
73.1365
 20
101.933
 30
0.0
 11
73.4452
 21
101.885
 31
0.0
  0
LINE
  8
0
 62
     0
 10
73.4452
 20
101.885
 30
0.0
 11
73.7538
 21
101.933
 31
0.0
  0
LINE
  8
0
 62
     0
 10
73.7538
 20
101.933
 30
0.0
 11
74.0336
 21
102.076
 31
0.0
  0
LINE
  8
0
 62
     0
 10
74.0336
 20
102.076
 30
0.0
 11
74.2541
 21
102.299
 31
0.0
  0
LINE
  8
0
 62
     0
 10
74.2541
 20
102.299
 30
0.0
 11
74.3962
 21
102.576
 31
0.0
  0
LINE
  8
0
 62
     0
 10
74.3962
 20
102.576
 30
0.0
 11
74.4456
 21
102.886
 31
0.0
  0
LINE
  8
0
 62
     0
 10
74.4456
 20
102.886
 30
0.0
 11
74.3962
 21
103.195
 31
0.0
  0
LINE
  8
0
 62
     0
 10
74.3962
 20
103.195
 30
0.0
 11
74.2541
 21
103.473
 31
0.0
  0
LINE
  8
0
 62
     0
 10
74.2541
 20
103.473
 30
0.0
 11
74.0336
 21
103.695
 31
0.0
  0
LINE
  8
0
 62
     0
 10
74.0336
 20
103.695
 30
0.0
 11
73.7538
 21
103.837
 31
0.0
  0
LINE
  8
0
 62
     0
 10
73.7538
 20
103.837
 30
0.0
 11
73.4452
 21
103.885
 31
0.0
  0
LINE
  8
0
 62
     0
 10
73.4452
 20
103.885
 30
0.0
 11
73.1365
 21
103.837
 31
0.0
  0
LINE
  8
0
 62
     0
 10
143.987
 20
103.837
 30
0.0
 11
143.707
 21
103.695
 31
0.0
  0
LINE
  8
0
 62
     0
 10
143.707
 20
103.695
 30
0.0
 11
143.487
 21
103.473
 31
0.0
  0
LINE
  8
0
 62
     0
 10
143.487
 20
103.473
 30
0.0
 11
143.345
 21
103.195
 31
0.0
  0
LINE
  8
0
 62
     0
 10
143.345
 20
103.195
 30
0.0
 11
143.295
 21
102.886
 31
0.0
  0
LINE
  8
0
 62
     0
 10
143.295
 20
102.886
 30
0.0
 11
143.345
 21
102.576
 31
0.0
  0
LINE
  8
0
 62
     0
 10
143.345
 20
102.576
 30
0.0
 11
143.487
 21
102.299
 31
0.0
  0
LINE
  8
0
 62
     0
 10
143.487
 20
102.299
 30
0.0
 11
143.707
 21
102.076
 31
0.0
  0
LINE
  8
0
 62
     0
 10
143.707
 20
102.076
 30
0.0
 11
143.987
 21
101.933
 31
0.0
  0
LINE
  8
0
 62
     0
 10
143.987
 20
101.933
 30
0.0
 11
144.296
 21
101.885
 31
0.0
  0
LINE
  8
0
 62
     0
 10
144.296
 20
101.885
 30
0.0
 11
144.604
 21
101.933
 31
0.0
  0
LINE
  8
0
 62
     0
 10
144.604
 20
101.933
 30
0.0
 11
144.883
 21
102.076
 31
0.0
  0
LINE
  8
0
 62
     0
 10
144.883
 20
102.076
 30
0.0
 11
145.105
 21
102.299
 31
0.0
  0
LINE
  8
0
 62
     0
 10
145.105
 20
102.299
 30
0.0
 11
145.247
 21
102.576
 31
0.0
  0
LINE
  8
0
 62
     0
 10
145.247
 20
102.576
 30
0.0
 11
145.295
 21
102.886
 31
0.0
  0
LINE
  8
0
 62
     0
 10
145.295
 20
102.886
 30
0.0
 11
145.247
 21
103.195
 31
0.0
  0
LINE
  8
0
 62
     0
 10
145.247
 20
103.195
 30
0.0
 11
145.105
 21
103.473
 31
0.0
  0
LINE
  8
0
 62
     0
 10
145.105
 20
103.473
 30
0.0
 11
144.883
 21
103.695
 31
0.0
  0
LINE
  8
0
 62
     0
 10
144.883
 20
103.695
 30
0.0
 11
144.604
 21
103.837
 31
0.0
  0
LINE
  8
0
 62
     0
 10
144.604
 20
103.837
 30
0.0
 11
144.296
 21
103.885
 31
0.0
  0
LINE
  8
0
 62
     0
 10
144.296
 20
103.885
 30
0.0
 11
143.987
 21
103.837
 31
0.0
  0
LINE
  8
0
 62
     0
 10
214.836
 20
103.837
 30
0.0
 11
214.559
 21
103.695
 31
0.0
  0
LINE
  8
0
 62
     0
 10
214.559
 20
103.695
 30
0.0
 11
214.336
 21
103.473
 31
0.0
  0
LINE
  8
0
 62
     0
 10
214.336
 20
103.473
 30
0.0
 11
214.194
 21
103.195
 31
0.0
  0
LINE
  8
0
 62
     0
 10
214.194
 20
103.195
 30
0.0
 11
214.147
 21
102.886
 31
0.0
  0
LINE
  8
0
 62
     0
 10
214.147
 20
102.886
 30
0.0
 11
214.194
 21
102.576
 31
0.0
  0
LINE
  8
0
 62
     0
 10
214.194
 20
102.576
 30
0.0
 11
214.336
 21
102.299
 31
0.0
  0
LINE
  8
0
 62
     0
 10
214.336
 20
102.299
 30
0.0
 11
214.559
 21
102.076
 31
0.0
  0
LINE
  8
0
 62
     0
 10
214.559
 20
102.076
 30
0.0
 11
214.836
 21
101.933
 31
0.0
  0
LINE
  8
0
 62
     0
 10
214.836
 20
101.933
 30
0.0
 11
215.146
 21
101.885
 31
0.0
  0
LINE
  8
0
 62
     0
 10
215.146
 20
101.885
 30
0.0
 11
215.455
 21
101.933
 31
0.0
  0
LINE
  8
0
 62
     0
 10
215.455
 20
101.933
 30
0.0
 11
215.733
 21
102.076
 31
0.0
  0
LINE
  8
0
 62
     0
 10
215.733
 20
102.076
 30
0.0
 11
215.955
 21
102.299
 31
0.0
  0
LINE
  8
0
 62
     0
 10
215.955
 20
102.299
 30
0.0
 11
216.097
 21
102.576
 31
0.0
  0
LINE
  8
0
 62
     0
 10
216.097
 20
102.576
 30
0.0
 11
216.147
 21
102.886
 31
0.0
  0
LINE
  8
0
 62
     0
 10
216.147
 20
102.886
 30
0.0
 11
216.097
 21
103.195
 31
0.0
  0
LINE
  8
0
 62
     0
 10
216.097
 20
103.195
 30
0.0
 11
215.955
 21
103.473
 31
0.0
  0
LINE
  8
0
 62
     0
 10
215.955
 20
103.473
 30
0.0
 11
215.733
 21
103.695
 31
0.0
  0
LINE
  8
0
 62
     0
 10
215.733
 20
103.695
 30
0.0
 11
215.455
 21
103.837
 31
0.0
  0
LINE
  8
0
 62
     0
 10
215.455
 20
103.837
 30
0.0
 11
215.146
 21
103.885
 31
0.0
  0
LINE
  8
0
 62
     0
 10
215.146
 20
103.885
 30
0.0
 11
214.836
 21
103.837
 31
0.0
  0
ENDSEC
  0
EOF
