  0
SECTION
  2
HEADER
  9
$ACADVER
  1
AC1009
  9
$FILLMODE
 70
 0
  9
$SPLFRAME
 70
 1
  9
$EXTMIN
 10
0
 20
0
 30
0.0
  9
$EXTMAX
 10
1058.33
 20
1058.33
 30
0.0
  0
ENDSEC
  0
SECTION
  2
TABLES
  0
TABLE
  2
LAYER
 70
1
  0
LAYER
  2
0
 70
     0
 62
     7
  6
CONTINUOUS
  0
ENDTAB
  0
ENDSEC
  0
SECTION
  2
ENTITIES
  0
LINE
  8
0
 62
     0
 10
215.646
 20
105.385
 30
0.0
 11
215.802
 21
105.379
 31
0.0
  0
LINE
  8
0
 62
     0
 10
215.802
 20
105.379
 30
0.0
 11
215.958
 21
105.361
 31
0.0
  0
LINE
  8
0
 62
     0
 10
215.958
 20
105.361
 30
0.0
 11
216.112
 21
105.33
 31
0.0
  0
LINE
  8
0
 62
     0
 10
216.112
 20
105.33
 30
0.0
 11
216.264
 21
105.288
 31
0.0
  0
LINE
  8
0
 62
     0
 10
216.264
 20
105.288
 30
0.0
 11
216.411
 21
105.233
 31
0.0
  0
LINE
  8
0
 62
     0
 10
216.411
 20
105.233
 30
0.0
 11
216.553
 21
105.168
 31
0.0
  0
LINE
  8
0
 62
     0
 10
216.553
 20
105.168
 30
0.0
 11
216.691
 21
105.091
 31
0.0
  0
LINE
  8
0
 62
     0
 10
216.691
 20
105.091
 30
0.0
 11
216.822
 21
105.004
 31
0.0
  0
LINE
  8
0
 62
     0
 10
216.822
 20
105.004
 30
0.0
 11
216.945
 21
104.906
 31
0.0
  0
LINE
  8
0
 62
     0
 10
216.945
 20
104.906
 30
0.0
 11
217.06
 21
104.8
 31
0.0
  0
LINE
  8
0
 62
     0
 10
217.06
 20
104.8
 30
0.0
 11
217.166
 21
104.684
 31
0.0
  0
LINE
  8
0
 62
     0
 10
217.166
 20
104.684
 30
0.0
 11
217.264
 21
104.562
 31
0.0
  0
LINE
  8
0
 62
     0
 10
217.264
 20
104.562
 30
0.0
 11
217.351
 21
104.43
 31
0.0
  0
LINE
  8
0
 62
     0
 10
217.351
 20
104.43
 30
0.0
 11
217.428
 21
104.293
 31
0.0
  0
LINE
  8
0
 62
     0
 10
217.428
 20
104.293
 30
0.0
 11
217.493
 21
104.151
 31
0.0
  0
LINE
  8
0
 62
     0
 10
217.493
 20
104.151
 30
0.0
 11
217.548
 21
104.005
 31
0.0
  0
LINE
  8
0
 62
     0
 10
217.548
 20
104.005
 30
0.0
 11
217.591
 21
103.852
 31
0.0
  0
LINE
  8
0
 62
     0
 10
217.591
 20
103.852
 30
0.0
 11
217.621
 21
103.699
 31
0.0
  0
LINE
  8
0
 62
     0
 10
217.621
 20
103.699
 30
0.0
 11
217.639
 21
103.542
 31
0.0
  0
LINE
  8
0
 62
     0
 10
217.639
 20
103.542
 30
0.0
 11
217.646
 21
103.385
 31
0.0
  0
LINE
  8
0
 62
     0
 10
217.646
 20
103.385
 30
0.0
 11
217.646
 21
2.13458
 31
0.0
  0
LINE
  8
0
 62
     0
 10
217.646
 20
2.13458
 30
0.0
 11
217.639
 21
1.97749
 31
0.0
  0
LINE
  8
0
 62
     0
 10
217.639
 20
1.97749
 30
0.0
 11
217.621
 21
1.82177
 31
0.0
  0
LINE
  8
0
 62
     0
 10
217.621
 20
1.82177
 30
0.0
 11
217.591
 21
1.66743
 31
0.0
  0
LINE
  8
0
 62
     0
 10
217.591
 20
1.66743
 30
0.0
 11
217.548
 21
1.51584
 31
0.0
  0
LINE
  8
0
 62
     0
 10
217.548
 20
1.51584
 30
0.0
 11
217.493
 21
1.36839
 31
0.0
  0
LINE
  8
0
 62
     0
 10
217.493
 20
1.36839
 30
0.0
 11
217.428
 21
1.22645
 31
0.0
  0
LINE
  8
0
 62
     0
 10
217.428
 20
1.22645
 30
0.0
 11
217.351
 21
1.09003
 31
0.0
  0
LINE
  8
0
 62
     0
 10
217.351
 20
1.09003
 30
0.0
 11
217.264
 21
0.959115
 31
0.0
  0
LINE
  8
0
 62
     0
 10
217.264
 20
0.959115
 30
0.0
 11
217.166
 21
0.836468
 31
0.0
  0
LINE
  8
0
 62
     0
 10
217.166
 20
0.836468
 30
0.0
 11
217.06
 21
0.720714
 31
0.0
  0
LINE
  8
0
 62
     0
 10
217.06
 20
0.720714
 30
0.0
 11
216.945
 21
0.614606
 31
0.0
  0
LINE
  8
0
 62
     0
 10
216.945
 20
0.614606
 30
0.0
 11
216.822
 21
0.515387
 31
0.0
  0
LINE
  8
0
 62
     0
 10
216.822
 20
0.515387
 30
0.0
 11
216.691
 21
0.428569
 31
0.0
  0
LINE
  8
0
 62
     0
 10
216.691
 20
0.428569
 30
0.0
 11
216.553
 21
0.3514
 31
0.0
  0
LINE
  8
0
 62
     0
 10
216.553
 20
0.3514
 30
0.0
 11
216.411
 21
0.286632
 31
0.0
  0
LINE
  8
0
 62
     0
 10
216.411
 20
0.286632
 30
0.0
 11
216.264
 21
0.23151
 31
0.0
  0
LINE
  8
0
 62
     0
 10
216.264
 20
0.23151
 30
0.0
 11
216.112
 21
0.190169
 31
0.0
  0
LINE
  8
0
 62
     0
 10
216.112
 20
0.190169
 30
0.0
 11
215.958
 21
0.158474
 31
0.0
  0
LINE
  8
0
 62
     0
 10
215.958
 20
0.158474
 30
0.0
 11
215.802
 21
0.14056
 31
0.0
  0
LINE
  8
0
 62
     0
 10
215.802
 20
0.14056
 30
0.0
 11
215.646
 21
0.135048
 31
0.0
  0
LINE
  8
0
 62
     0
 10
215.646
 20
0.135048
 30
0.0
 11
2.096
 21
0.135048
 31
0.0
  0
LINE
  8
0
 62
     0
 10
2.096
 20
0.135048
 30
0.0
 11
1.9389
 21
0.14056
 31
0.0
  0
LINE
  8
0
 62
     0
 10
1.9389
 20
0.14056
 30
0.0
 11
1.7818
 21
0.158474
 31
0.0
  0
LINE
  8
0
 62
     0
 10
1.7818
 20
0.158474
 30
0.0
 11
1.62884
 21
0.190169
 31
0.0
  0
LINE
  8
0
 62
     0
 10
1.62884
 20
0.190169
 30
0.0
 11
1.47588
 21
0.23151
 31
0.0
  0
LINE
  8
0
 62
     0
 10
1.47588
 20
0.23151
 30
0.0
 11
1.32981
 21
0.286632
 31
0.0
  0
LINE
  8
0
 62
     0
 10
1.32981
 20
0.286632
 30
0.0
 11
1.18787
 21
0.3514
 31
0.0
  0
LINE
  8
0
 62
     0
 10
1.18787
 20
0.3514
 30
0.0
 11
1.05006
 21
0.428569
 31
0.0
  0
LINE
  8
0
 62
     0
 10
1.05006
 20
0.428569
 30
0.0
 11
0.919152
 21
0.515387
 31
0.0
  0
LINE
  8
0
 62
     0
 10
0.919152
 20
0.515387
 30
0.0
 11
0.796505
 21
0.614606
 31
0.0
  0
LINE
  8
0
 62
     0
 10
0.796505
 20
0.614606
 30
0.0
 11
0.680752
 21
0.720714
 31
0.0
  0
LINE
  8
0
 62
     0
 10
0.680752
 20
0.720714
 30
0.0
 11
0.574643
 21
0.836468
 31
0.0
  0
LINE
  8
0
 62
     0
 10
0.574643
 20
0.836468
 30
0.0
 11
0.4768
 21
0.959115
 31
0.0
  0
LINE
  8
0
 62
     0
 10
0.4768
 20
0.959115
 30
0.0
 11
0.389985
 21
1.09003
 31
0.0
  0
LINE
  8
0
 62
     0
 10
0.389985
 20
1.09003
 30
0.0
 11
0.312815
 21
1.22645
 31
0.0
  0
LINE
  8
0
 62
     0
 10
0.312815
 20
1.22645
 30
0.0
 11
0.248047
 21
1.36839
 31
0.0
  0
LINE
  8
0
 62
     0
 10
0.248047
 20
1.36839
 30
0.0
 11
0.192925
 21
1.51584
 31
0.0
  0
LINE
  8
0
 62
     0
 10
0.192925
 20
1.51584
 30
0.0
 11
0.150206
 21
1.66743
 31
0.0
  0
LINE
  8
0
 62
     0
 10
0.150206
 20
1.66743
 30
0.0
 11
0.119889
 21
1.82177
 31
0.0
  0
LINE
  8
0
 62
     0
 10
0.119889
 20
1.82177
 30
0.0
 11
0.101975
 21
1.97749
 31
0.0
  0
LINE
  8
0
 62
     0
 10
0.101975
 20
1.97749
 30
0.0
 11
0.0950846
 21
2.13458
 31
0.0
  0
LINE
  8
0
 62
     0
 10
0.0950846
 20
2.13458
 30
0.0
 11
0.0950846
 21
103.385
 31
0.0
  0
LINE
  8
0
 62
     0
 10
0.0950846
 20
103.385
 30
0.0
 11
0.101975
 21
103.542
 31
0.0
  0
LINE
  8
0
 62
     0
 10
0.101975
 20
103.542
 30
0.0
 11
0.119889
 21
103.699
 31
0.0
  0
LINE
  8
0
 62
     0
 10
0.119889
 20
103.699
 30
0.0
 11
0.150206
 21
103.852
 31
0.0
  0
LINE
  8
0
 62
     0
 10
0.150206
 20
103.852
 30
0.0
 11
0.192925
 21
104.005
 31
0.0
  0
LINE
  8
0
 62
     0
 10
0.192925
 20
104.005
 30
0.0
 11
0.248047
 21
104.151
 31
0.0
  0
LINE
  8
0
 62
     0
 10
0.248047
 20
104.151
 30
0.0
 11
0.312815
 21
104.293
 31
0.0
  0
LINE
  8
0
 62
     0
 10
0.312815
 20
104.293
 30
0.0
 11
0.389985
 21
104.43
 31
0.0
  0
LINE
  8
0
 62
     0
 10
0.389985
 20
104.43
 30
0.0
 11
0.4768
 21
104.562
 31
0.0
  0
LINE
  8
0
 62
     0
 10
0.4768
 20
104.562
 30
0.0
 11
0.574643
 21
104.684
 31
0.0
  0
LINE
  8
0
 62
     0
 10
0.574643
 20
104.684
 30
0.0
 11
0.680752
 21
104.8
 31
0.0
  0
LINE
  8
0
 62
     0
 10
0.680752
 20
104.8
 30
0.0
 11
0.796505
 21
104.906
 31
0.0
  0
LINE
  8
0
 62
     0
 10
0.796505
 20
104.906
 30
0.0
 11
0.919152
 21
105.004
 31
0.0
  0
LINE
  8
0
 62
     0
 10
0.919152
 20
105.004
 30
0.0
 11
1.05006
 21
105.091
 31
0.0
  0
LINE
  8
0
 62
     0
 10
1.05006
 20
105.091
 30
0.0
 11
1.18787
 21
105.168
 31
0.0
  0
LINE
  8
0
 62
     0
 10
1.18787
 20
105.168
 30
0.0
 11
1.32981
 21
105.233
 31
0.0
  0
LINE
  8
0
 62
     0
 10
1.32981
 20
105.233
 30
0.0
 11
1.47588
 21
105.288
 31
0.0
  0
LINE
  8
0
 62
     0
 10
1.47588
 20
105.288
 30
0.0
 11
1.62884
 21
105.33
 31
0.0
  0
LINE
  8
0
 62
     0
 10
1.62884
 20
105.33
 30
0.0
 11
1.7818
 21
105.361
 31
0.0
  0
LINE
  8
0
 62
     0
 10
1.7818
 20
105.361
 30
0.0
 11
1.9389
 21
105.379
 31
0.0
  0
LINE
  8
0
 62
     0
 10
1.9389
 20
105.379
 30
0.0
 11
2.096
 21
105.385
 31
0.0
  0
LINE
  8
0
 62
     0
 10
2.096
 20
105.385
 30
0.0
 11
215.646
 21
105.385
 31
0.0
  0
LINE
  8
0
 62
     0
 10
2.28617
 20
3.58567
 30
0.0
 11
2.0078
 21
3.44372
 31
0.0
  0
LINE
  8
0
 62
     0
 10
2.0078
 20
3.44372
 30
0.0
 11
1.78594
 21
3.22185
 31
0.0
  0
LINE
  8
0
 62
     0
 10
1.78594
 20
3.22185
 30
0.0
 11
1.644
 21
2.94349
 31
0.0
  0
LINE
  8
0
 62
     0
 10
1.644
 20
2.94349
 30
0.0
 11
1.59439
 21
2.63481
 31
0.0
  0
LINE
  8
0
 62
     0
 10
1.59439
 20
2.63481
 30
0.0
 11
1.644
 21
2.32475
 31
0.0
  0
LINE
  8
0
 62
     0
 10
1.644
 20
2.32475
 30
0.0
 11
1.78594
 21
2.04639
 31
0.0
  0
LINE
  8
0
 62
     0
 10
1.78594
 20
2.04639
 30
0.0
 11
2.0078
 21
1.82452
 31
0.0
  0
LINE
  8
0
 62
     0
 10
2.0078
 20
1.82452
 30
0.0
 11
2.28617
 21
1.68258
 31
0.0
  0
LINE
  8
0
 62
     0
 10
2.28617
 20
1.68258
 30
0.0
 11
2.59485
 21
1.63573
 31
0.0
  0
LINE
  8
0
 62
     0
 10
2.59485
 20
1.63573
 30
0.0
 11
2.90491
 21
1.68258
 31
0.0
  0
LINE
  8
0
 62
     0
 10
2.90491
 20
1.68258
 30
0.0
 11
3.18189
 21
1.82452
 31
0.0
  0
LINE
  8
0
 62
     0
 10
3.18189
 20
1.82452
 30
0.0
 11
3.40513
 21
2.04639
 31
0.0
  0
LINE
  8
0
 62
     0
 10
3.40513
 20
2.04639
 30
0.0
 11
3.54707
 21
2.32475
 31
0.0
  0
LINE
  8
0
 62
     0
 10
3.54707
 20
2.32475
 30
0.0
 11
3.5953
 21
2.63481
 31
0.0
  0
LINE
  8
0
 62
     0
 10
3.5953
 20
2.63481
 30
0.0
 11
3.54707
 21
2.94349
 31
0.0
  0
LINE
  8
0
 62
     0
 10
3.54707
 20
2.94349
 30
0.0
 11
3.40513
 21
3.22185
 31
0.0
  0
LINE
  8
0
 62
     0
 10
3.40513
 20
3.22185
 30
0.0
 11
3.18189
 21
3.44372
 31
0.0
  0
LINE
  8
0
 62
     0
 10
3.18189
 20
3.44372
 30
0.0
 11
2.90491
 21
3.58567
 31
0.0
  0
LINE
  8
0
 62
     0
 10
2.90491
 20
3.58567
 30
0.0
 11
2.59485
 21
3.63527
 31
0.0
  0
LINE
  8
0
 62
     0
 10
2.59485
 20
3.63527
 30
0.0
 11
2.28617
 21
3.58567
 31
0.0
  0
LINE
  8
0
 62
     0
 10
73.1365
 20
3.58567
 30
0.0
 11
72.8567
 21
3.44372
 31
0.0
  0
LINE
  8
0
 62
     0
 10
72.8567
 20
3.44372
 30
0.0
 11
72.6362
 21
3.22185
 31
0.0
  0
LINE
  8
0
 62
     0
 10
72.6362
 20
3.22185
 30
0.0
 11
72.4944
 21
2.94349
 31
0.0
  0
LINE
  8
0
 62
     0
 10
72.4944
 20
2.94349
 30
0.0
 11
72.4447
 21
2.63481
 31
0.0
  0
LINE
  8
0
 62
     0
 10
72.4447
 20
2.63481
 30
0.0
 11
72.4944
 21
2.32475
 31
0.0
  0
LINE
  8
0
 62
     0
 10
72.4944
 20
2.32475
 30
0.0
 11
72.6362
 21
2.04639
 31
0.0
  0
LINE
  8
0
 62
     0
 10
72.6362
 20
2.04639
 30
0.0
 11
72.8567
 21
1.82452
 31
0.0
  0
LINE
  8
0
 62
     0
 10
72.8567
 20
1.82452
 30
0.0
 11
73.1365
 21
1.68258
 31
0.0
  0
LINE
  8
0
 62
     0
 10
73.1365
 20
1.68258
 30
0.0
 11
73.4452
 21
1.63573
 31
0.0
  0
LINE
  8
0
 62
     0
 10
73.4452
 20
1.63573
 30
0.0
 11
73.7538
 21
1.68258
 31
0.0
  0
LINE
  8
0
 62
     0
 10
73.7538
 20
1.68258
 30
0.0
 11
74.0336
 21
1.82452
 31
0.0
  0
LINE
  8
0
 62
     0
 10
74.0336
 20
1.82452
 30
0.0
 11
74.2541
 21
2.04639
 31
0.0
  0
LINE
  8
0
 62
     0
 10
74.2541
 20
2.04639
 30
0.0
 11
74.3962
 21
2.32475
 31
0.0
  0
LINE
  8
0
 62
     0
 10
74.3962
 20
2.32475
 30
0.0
 11
74.4456
 21
2.63481
 31
0.0
  0
LINE
  8
0
 62
     0
 10
74.4456
 20
2.63481
 30
0.0
 11
74.3962
 21
2.94349
 31
0.0
  0
LINE
  8
0
 62
     0
 10
74.3962
 20
2.94349
 30
0.0
 11
74.2541
 21
3.22185
 31
0.0
  0
LINE
  8
0
 62
     0
 10
74.2541
 20
3.22185
 30
0.0
 11
74.0336
 21
3.44372
 31
0.0
  0
LINE
  8
0
 62
     0
 10
74.0336
 20
3.44372
 30
0.0
 11
73.7538
 21
3.58567
 31
0.0
  0
LINE
  8
0
 62
     0
 10
73.7538
 20
3.58567
 30
0.0
 11
73.4452
 21
3.63527
 31
0.0
  0
LINE
  8
0
 62
     0
 10
73.4452
 20
3.63527
 30
0.0
 11
73.1365
 21
3.58567
 31
0.0
  0
LINE
  8
0
 62
     0
 10
143.987
 20
3.58567
 30
0.0
 11
143.707
 21
3.44372
 31
0.0
  0
LINE
  8
0
 62
     0
 10
143.707
 20
3.44372
 30
0.0
 11
143.487
 21
3.22185
 31
0.0
  0
LINE
  8
0
 62
     0
 10
143.487
 20
3.22185
 30
0.0
 11
143.345
 21
2.94349
 31
0.0
  0
LINE
  8
0
 62
     0
 10
143.345
 20
2.94349
 30
0.0
 11
143.295
 21
2.63481
 31
0.0
  0
LINE
  8
0
 62
     0
 10
143.295
 20
2.63481
 30
0.0
 11
143.345
 21
2.32475
 31
0.0
  0
LINE
  8
0
 62
     0
 10
143.345
 20
2.32475
 30
0.0
 11
143.487
 21
2.04639
 31
0.0
  0
LINE
  8
0
 62
     0
 10
143.487
 20
2.04639
 30
0.0
 11
143.707
 21
1.82452
 31
0.0
  0
LINE
  8
0
 62
     0
 10
143.707
 20
1.82452
 30
0.0
 11
143.987
 21
1.68258
 31
0.0
  0
LINE
  8
0
 62
     0
 10
143.987
 20
1.68258
 30
0.0
 11
144.296
 21
1.63573
 31
0.0
  0
LINE
  8
0
 62
     0
 10
144.296
 20
1.63573
 30
0.0
 11
144.604
 21
1.68258
 31
0.0
  0
LINE
  8
0
 62
     0
 10
144.604
 20
1.68258
 30
0.0
 11
144.883
 21
1.82452
 31
0.0
  0
LINE
  8
0
 62
     0
 10
144.883
 20
1.82452
 30
0.0
 11
145.105
 21
2.04639
 31
0.0
  0
LINE
  8
0
 62
     0
 10
145.105
 20
2.04639
 30
0.0
 11
145.247
 21
2.32475
 31
0.0
  0
LINE
  8
0
 62
     0
 10
145.247
 20
2.32475
 30
0.0
 11
145.295
 21
2.63481
 31
0.0
  0
LINE
  8
0
 62
     0
 10
145.295
 20
2.63481
 30
0.0
 11
145.247
 21
2.94349
 31
0.0
  0
LINE
  8
0
 62
     0
 10
145.247
 20
2.94349
 30
0.0
 11
145.105
 21
3.22185
 31
0.0
  0
LINE
  8
0
 62
     0
 10
145.105
 20
3.22185
 30
0.0
 11
144.883
 21
3.44372
 31
0.0
  0
LINE
  8
0
 62
     0
 10
144.883
 20
3.44372
 30
0.0
 11
144.604
 21
3.58567
 31
0.0
  0
LINE
  8
0
 62
     0
 10
144.604
 20
3.58567
 30
0.0
 11
144.296
 21
3.63527
 31
0.0
  0
LINE
  8
0
 62
     0
 10
144.296
 20
3.63527
 30
0.0
 11
143.987
 21
3.58567
 31
0.0
  0
LINE
  8
0
 62
     0
 10
214.836
 20
3.58567
 30
0.0
 11
214.559
 21
3.44372
 31
0.0
  0
LINE
  8
0
 62
     0
 10
214.559
 20
3.44372
 30
0.0
 11
214.336
 21
3.22185
 31
0.0
  0
LINE
  8
0
 62
     0
 10
214.336
 20
3.22185
 30
0.0
 11
214.194
 21
2.94349
 31
0.0
  0
LINE
  8
0
 62
     0
 10
214.194
 20
2.94349
 30
0.0
 11
214.147
 21
2.63481
 31
0.0
  0
LINE
  8
0
 62
     0
 10
214.147
 20
2.63481
 30
0.0
 11
214.194
 21
2.32475
 31
0.0
  0
LINE
  8
0
 62
     0
 10
214.194
 20
2.32475
 30
0.0
 11
214.336
 21
2.04639
 31
0.0
  0
LINE
  8
0
 62
     0
 10
214.336
 20
2.04639
 30
0.0
 11
214.559
 21
1.82452
 31
0.0
  0
LINE
  8
0
 62
     0
 10
214.559
 20
1.82452
 30
0.0
 11
214.836
 21
1.68258
 31
0.0
  0
LINE
  8
0
 62
     0
 10
214.836
 20
1.68258
 30
0.0
 11
215.146
 21
1.63573
 31
0.0
  0
LINE
  8
0
 62
     0
 10
215.146
 20
1.63573
 30
0.0
 11
215.455
 21
1.68258
 31
0.0
  0
LINE
  8
0
 62
     0
 10
215.455
 20
1.68258
 30
0.0
 11
215.733
 21
1.82452
 31
0.0
  0
LINE
  8
0
 62
     0
 10
215.733
 20
1.82452
 30
0.0
 11
215.955
 21
2.04639
 31
0.0
  0
LINE
  8
0
 62
     0
 10
215.955
 20
2.04639
 30
0.0
 11
216.097
 21
2.32475
 31
0.0
  0
LINE
  8
0
 62
     0
 10
216.097
 20
2.32475
 30
0.0
 11
216.147
 21
2.63481
 31
0.0
  0
LINE
  8
0
 62
     0
 10
216.147
 20
2.63481
 30
0.0
 11
216.097
 21
2.94349
 31
0.0
  0
LINE
  8
0
 62
     0
 10
216.097
 20
2.94349
 30
0.0
 11
215.955
 21
3.22185
 31
0.0
  0
LINE
  8
0
 62
     0
 10
215.955
 20
3.22185
 30
0.0
 11
215.733
 21
3.44372
 31
0.0
  0
LINE
  8
0
 62
     0
 10
215.733
 20
3.44372
 30
0.0
 11
215.455
 21
3.58567
 31
0.0
  0
LINE
  8
0
 62
     0
 10
215.455
 20
3.58567
 30
0.0
 11
215.146
 21
3.63527
 31
0.0
  0
LINE
  8
0
 62
     0
 10
215.146
 20
3.63527
 30
0.0
 11
214.836
 21
3.58567
 31
0.0
  0
LINE
  8
0
 62
     0
 10
6.62009
 20
21.66
 30
0.0
 11
6.62009
 21
20.6595
 31
0.0
  0
LINE
  8
0
 62
     0
 10
6.62009
 20
20.6595
 30
0.0
 11
5.81946
 21
20.6595
 31
0.0
  0
LINE
  8
0
 62
     0
 10
5.81946
 20
20.6595
 30
0.0
 11
5.81946
 21
17.5617
 31
0.0
  0
LINE
  8
0
 62
     0
 10
5.81946
 20
17.5617
 30
0.0
 11
6.62009
 21
17.5617
 31
0.0
  0
LINE
  8
0
 62
     0
 10
6.62009
 20
17.5617
 30
0.0
 11
6.62009
 21
11.7602
 31
0.0
  0
LINE
  8
0
 62
     0
 10
6.62009
 20
11.7602
 30
0.0
 11
5.81946
 21
11.7602
 31
0.0
  0
LINE
  8
0
 62
     0
 10
5.81946
 20
11.7602
 30
0.0
 11
5.81946
 21
8.6596
 31
0.0
  0
LINE
  8
0
 62
     0
 10
5.81946
 20
8.6596
 30
0.0
 11
6.62009
 21
8.6596
 31
0.0
  0
LINE
  8
0
 62
     0
 10
6.62009
 20
8.6596
 30
0.0
 11
6.62009
 21
7.6605
 31
0.0
  0
LINE
  8
0
 62
     0
 10
6.62009
 20
7.6605
 30
0.0
 11
20.621
 21
7.6605
 31
0.0
  0
LINE
  8
0
 62
     0
 10
20.621
 20
7.6605
 30
0.0
 11
20.621
 21
8.6596
 31
0.0
  0
LINE
  8
0
 62
     0
 10
20.621
 20
8.6596
 30
0.0
 11
21.4202
 21
8.6596
 31
0.0
  0
LINE
  8
0
 62
     0
 10
21.4202
 20
8.6596
 30
0.0
 11
21.4202
 21
11.7602
 31
0.0
  0
LINE
  8
0
 62
     0
 10
21.4202
 20
11.7602
 30
0.0
 11
20.621
 21
11.7602
 31
0.0
  0
LINE
  8
0
 62
     0
 10
20.621
 20
11.7602
 30
0.0
 11
20.621
 21
17.5617
 31
0.0
  0
LINE
  8
0
 62
     0
 10
20.621
 20
17.5617
 30
0.0
 11
21.4202
 21
17.5617
 31
0.0
  0
LINE
  8
0
 62
     0
 10
21.4202
 20
17.5617
 30
0.0
 11
21.4202
 21
20.6595
 31
0.0
  0
LINE
  8
0
 62
     0
 10
21.4202
 20
20.6595
 30
0.0
 11
20.621
 21
20.6595
 31
0.0
  0
LINE
  8
0
 62
     0
 10
20.621
 20
20.6595
 30
0.0
 11
20.621
 21
21.66
 31
0.0
  0
LINE
  8
0
 62
     0
 10
20.621
 20
21.66
 30
0.0
 11
6.62009
 21
21.66
 31
0.0
  0
LINE
  8
0
 62
     0
 10
25.6701
 20
21.66
 30
0.0
 11
25.6701
 21
20.6595
 31
0.0
  0
LINE
  8
0
 62
     0
 10
25.6701
 20
20.6595
 30
0.0
 11
24.8708
 21
20.6595
 31
0.0
  0
LINE
  8
0
 62
     0
 10
24.8708
 20
20.6595
 30
0.0
 11
24.8708
 21
17.5617
 31
0.0
  0
LINE
  8
0
 62
     0
 10
24.8708
 20
17.5617
 30
0.0
 11
25.6701
 21
17.5617
 31
0.0
  0
LINE
  8
0
 62
     0
 10
25.6701
 20
17.5617
 30
0.0
 11
25.6701
 21
11.7602
 31
0.0
  0
LINE
  8
0
 62
     0
 10
25.6701
 20
11.7602
 30
0.0
 11
24.8708
 21
11.7602
 31
0.0
  0
LINE
  8
0
 62
     0
 10
24.8708
 20
11.7602
 30
0.0
 11
24.8708
 21
8.6596
 31
0.0
  0
LINE
  8
0
 62
     0
 10
24.8708
 20
8.6596
 30
0.0
 11
25.6701
 21
8.6596
 31
0.0
  0
LINE
  8
0
 62
     0
 10
25.6701
 20
8.6596
 30
0.0
 11
25.6701
 21
7.6605
 31
0.0
  0
LINE
  8
0
 62
     0
 10
25.6701
 20
7.6605
 30
0.0
 11
39.6709
 21
7.6605
 31
0.0
  0
LINE
  8
0
 62
     0
 10
39.6709
 20
7.6605
 30
0.0
 11
39.6709
 21
8.6596
 31
0.0
  0
LINE
  8
0
 62
     0
 10
39.6709
 20
8.6596
 30
0.0
 11
40.4703
 21
8.6596
 31
0.0
  0
LINE
  8
0
 62
     0
 10
40.4703
 20
8.6596
 30
0.0
 11
40.4703
 21
11.7602
 31
0.0
  0
LINE
  8
0
 62
     0
 10
40.4703
 20
11.7602
 30
0.0
 11
39.6709
 21
11.7602
 31
0.0
  0
LINE
  8
0
 62
     0
 10
39.6709
 20
11.7602
 30
0.0
 11
39.6709
 21
17.5617
 31
0.0
  0
LINE
  8
0
 62
     0
 10
39.6709
 20
17.5617
 30
0.0
 11
40.4703
 21
17.5617
 31
0.0
  0
LINE
  8
0
 62
     0
 10
40.4703
 20
17.5617
 30
0.0
 11
40.4703
 21
20.6595
 31
0.0
  0
LINE
  8
0
 62
     0
 10
40.4703
 20
20.6595
 30
0.0
 11
39.6709
 21
20.6595
 31
0.0
  0
LINE
  8
0
 62
     0
 10
39.6709
 20
20.6595
 30
0.0
 11
39.6709
 21
21.66
 31
0.0
  0
LINE
  8
0
 62
     0
 10
39.6709
 20
21.66
 30
0.0
 11
25.6701
 21
21.66
 31
0.0
  0
LINE
  8
0
 62
     0
 10
44.7202
 20
21.66
 30
0.0
 11
44.7202
 21
20.6595
 31
0.0
  0
LINE
  8
0
 62
     0
 10
44.7202
 20
20.6595
 30
0.0
 11
43.9208
 21
20.6595
 31
0.0
  0
LINE
  8
0
 62
     0
 10
43.9208
 20
20.6595
 30
0.0
 11
43.9208
 21
17.5617
 31
0.0
  0
LINE
  8
0
 62
     0
 10
43.9208
 20
17.5617
 30
0.0
 11
44.7202
 21
17.5617
 31
0.0
  0
LINE
  8
0
 62
     0
 10
44.7202
 20
17.5617
 30
0.0
 11
44.7202
 21
11.7602
 31
0.0
  0
LINE
  8
0
 62
     0
 10
44.7202
 20
11.7602
 30
0.0
 11
43.9208
 21
11.7602
 31
0.0
  0
LINE
  8
0
 62
     0
 10
43.9208
 20
11.7602
 30
0.0
 11
43.9208
 21
8.6596
 31
0.0
  0
LINE
  8
0
 62
     0
 10
43.9208
 20
8.6596
 30
0.0
 11
44.7202
 21
8.6596
 31
0.0
  0
LINE
  8
0
 62
     0
 10
44.7202
 20
8.6596
 30
0.0
 11
44.7202
 21
7.6605
 31
0.0
  0
LINE
  8
0
 62
     0
 10
44.7202
 20
7.6605
 30
0.0
 11
58.7209
 21
7.6605
 31
0.0
  0
LINE
  8
0
 62
     0
 10
58.7209
 20
7.6605
 30
0.0
 11
58.7209
 21
8.6596
 31
0.0
  0
LINE
  8
0
 62
     0
 10
58.7209
 20
8.6596
 30
0.0
 11
59.5203
 21
8.6596
 31
0.0
  0
LINE
  8
0
 62
     0
 10
59.5203
 20
8.6596
 30
0.0
 11
59.5203
 21
11.7602
 31
0.0
  0
LINE
  8
0
 62
     0
 10
59.5203
 20
11.7602
 30
0.0
 11
58.7209
 21
11.7602
 31
0.0
  0
LINE
  8
0
 62
     0
 10
58.7209
 20
11.7602
 30
0.0
 11
58.7209
 21
17.5617
 31
0.0
  0
LINE
  8
0
 62
     0
 10
58.7209
 20
17.5617
 30
0.0
 11
59.5203
 21
17.5617
 31
0.0
  0
LINE
  8
0
 62
     0
 10
59.5203
 20
17.5617
 30
0.0
 11
59.5203
 21
20.6595
 31
0.0
  0
LINE
  8
0
 62
     0
 10
59.5203
 20
20.6595
 30
0.0
 11
58.7209
 21
20.6595
 31
0.0
  0
LINE
  8
0
 62
     0
 10
58.7209
 20
20.6595
 30
0.0
 11
58.7209
 21
21.66
 31
0.0
  0
LINE
  8
0
 62
     0
 10
58.7209
 20
21.66
 30
0.0
 11
44.7202
 21
21.66
 31
0.0
  0
LINE
  8
0
 62
     0
 10
63.7702
 20
21.66
 30
0.0
 11
63.7702
 21
20.6595
 31
0.0
  0
LINE
  8
0
 62
     0
 10
63.7702
 20
20.6595
 30
0.0
 11
62.9708
 21
20.6595
 31
0.0
  0
LINE
  8
0
 62
     0
 10
62.9708
 20
20.6595
 30
0.0
 11
62.9708
 21
17.5617
 31
0.0
  0
LINE
  8
0
 62
     0
 10
62.9708
 20
17.5617
 30
0.0
 11
63.7702
 21
17.5617
 31
0.0
  0
LINE
  8
0
 62
     0
 10
63.7702
 20
17.5617
 30
0.0
 11
63.7702
 21
11.7602
 31
0.0
  0
LINE
  8
0
 62
     0
 10
63.7702
 20
11.7602
 30
0.0
 11
62.9708
 21
11.7602
 31
0.0
  0
LINE
  8
0
 62
     0
 10
62.9708
 20
11.7602
 30
0.0
 11
62.9708
 21
8.6596
 31
0.0
  0
LINE
  8
0
 62
     0
 10
62.9708
 20
8.6596
 30
0.0
 11
63.7702
 21
8.6596
 31
0.0
  0
LINE
  8
0
 62
     0
 10
63.7702
 20
8.6596
 30
0.0
 11
63.7702
 21
7.6605
 31
0.0
  0
LINE
  8
0
 62
     0
 10
63.7702
 20
7.6605
 30
0.0
 11
77.7709
 21
7.6605
 31
0.0
  0
LINE
  8
0
 62
     0
 10
77.7709
 20
7.6605
 30
0.0
 11
77.7709
 21
8.6596
 31
0.0
  0
LINE
  8
0
 62
     0
 10
77.7709
 20
8.6596
 30
0.0
 11
78.5703
 21
8.6596
 31
0.0
  0
LINE
  8
0
 62
     0
 10
78.5703
 20
8.6596
 30
0.0
 11
78.5703
 21
11.7602
 31
0.0
  0
LINE
  8
0
 62
     0
 10
78.5703
 20
11.7602
 30
0.0
 11
77.7709
 21
11.7602
 31
0.0
  0
LINE
  8
0
 62
     0
 10
77.7709
 20
11.7602
 30
0.0
 11
77.7709
 21
17.5617
 31
0.0
  0
LINE
  8
0
 62
     0
 10
77.7709
 20
17.5617
 30
0.0
 11
78.5703
 21
17.5617
 31
0.0
  0
LINE
  8
0
 62
     0
 10
78.5703
 20
17.5617
 30
0.0
 11
78.5703
 21
20.6595
 31
0.0
  0
LINE
  8
0
 62
     0
 10
78.5703
 20
20.6595
 30
0.0
 11
77.7709
 21
20.6595
 31
0.0
  0
LINE
  8
0
 62
     0
 10
77.7709
 20
20.6595
 30
0.0
 11
77.7709
 21
21.66
 31
0.0
  0
LINE
  8
0
 62
     0
 10
77.7709
 20
21.66
 30
0.0
 11
63.7702
 21
21.66
 31
0.0
  0
LINE
  8
0
 62
     0
 10
82.8202
 20
21.66
 30
0.0
 11
82.8202
 21
20.6595
 31
0.0
  0
LINE
  8
0
 62
     0
 10
82.8202
 20
20.6595
 30
0.0
 11
82.0208
 21
20.6595
 31
0.0
  0
LINE
  8
0
 62
     0
 10
82.0208
 20
20.6595
 30
0.0
 11
82.0208
 21
17.5617
 31
0.0
  0
LINE
  8
0
 62
     0
 10
82.0208
 20
17.5617
 30
0.0
 11
82.8202
 21
17.5617
 31
0.0
  0
LINE
  8
0
 62
     0
 10
82.8202
 20
17.5617
 30
0.0
 11
82.8202
 21
11.7602
 31
0.0
  0
LINE
  8
0
 62
     0
 10
82.8202
 20
11.7602
 30
0.0
 11
82.0208
 21
11.7602
 31
0.0
  0
LINE
  8
0
 62
     0
 10
82.0208
 20
11.7602
 30
0.0
 11
82.0208
 21
8.6596
 31
0.0
  0
LINE
  8
0
 62
     0
 10
82.0208
 20
8.6596
 30
0.0
 11
82.8202
 21
8.6596
 31
0.0
  0
LINE
  8
0
 62
     0
 10
82.8202
 20
8.6596
 30
0.0
 11
82.8202
 21
7.6605
 31
0.0
  0
LINE
  8
0
 62
     0
 10
82.8202
 20
7.6605
 30
0.0
 11
96.8209
 21
7.6605
 31
0.0
  0
LINE
  8
0
 62
     0
 10
96.8209
 20
7.6605
 30
0.0
 11
96.8209
 21
8.6596
 31
0.0
  0
LINE
  8
0
 62
     0
 10
96.8209
 20
8.6596
 30
0.0
 11
97.6189
 21
8.6596
 31
0.0
  0
LINE
  8
0
 62
     0
 10
97.6189
 20
8.6596
 30
0.0
 11
97.6189
 21
11.7602
 31
0.0
  0
LINE
  8
0
 62
     0
 10
97.6189
 20
11.7602
 30
0.0
 11
96.8209
 21
11.7602
 31
0.0
  0
LINE
  8
0
 62
     0
 10
96.8209
 20
11.7602
 30
0.0
 11
96.8209
 21
17.5617
 31
0.0
  0
LINE
  8
0
 62
     0
 10
96.8209
 20
17.5617
 30
0.0
 11
97.6189
 21
17.5617
 31
0.0
  0
LINE
  8
0
 62
     0
 10
97.6189
 20
17.5617
 30
0.0
 11
97.6189
 21
20.6595
 31
0.0
  0
LINE
  8
0
 62
     0
 10
97.6189
 20
20.6595
 30
0.0
 11
96.8209
 21
20.6595
 31
0.0
  0
LINE
  8
0
 62
     0
 10
96.8209
 20
20.6595
 30
0.0
 11
96.8209
 21
21.66
 31
0.0
  0
LINE
  8
0
 62
     0
 10
96.8209
 20
21.66
 30
0.0
 11
82.8202
 21
21.66
 31
0.0
  0
LINE
  8
0
 62
     0
 10
101.87
 20
21.66
 30
0.0
 11
101.87
 21
20.6595
 31
0.0
  0
LINE
  8
0
 62
     0
 10
101.87
 20
20.6595
 30
0.0
 11
101.071
 21
20.6595
 31
0.0
  0
LINE
  8
0
 62
     0
 10
101.071
 20
20.6595
 30
0.0
 11
101.071
 21
17.5617
 31
0.0
  0
LINE
  8
0
 62
     0
 10
101.071
 20
17.5617
 30
0.0
 11
101.87
 21
17.5617
 31
0.0
  0
LINE
  8
0
 62
     0
 10
101.87
 20
17.5617
 30
0.0
 11
101.87
 21
11.7602
 31
0.0
  0
LINE
  8
0
 62
     0
 10
101.87
 20
11.7602
 30
0.0
 11
101.071
 21
11.7602
 31
0.0
  0
LINE
  8
0
 62
     0
 10
101.071
 20
11.7602
 30
0.0
 11
101.071
 21
8.6596
 31
0.0
  0
LINE
  8
0
 62
     0
 10
101.071
 20
8.6596
 30
0.0
 11
101.87
 21
8.6596
 31
0.0
  0
LINE
  8
0
 62
     0
 10
101.87
 20
8.6596
 30
0.0
 11
101.87
 21
7.6605
 31
0.0
  0
LINE
  8
0
 62
     0
 10
101.87
 20
7.6605
 30
0.0
 11
115.87
 21
7.6605
 31
0.0
  0
LINE
  8
0
 62
     0
 10
115.87
 20
7.6605
 30
0.0
 11
115.87
 21
8.6596
 31
0.0
  0
LINE
  8
0
 62
     0
 10
115.87
 20
8.6596
 30
0.0
 11
116.669
 21
8.6596
 31
0.0
  0
LINE
  8
0
 62
     0
 10
116.669
 20
8.6596
 30
0.0
 11
116.669
 21
11.7602
 31
0.0
  0
LINE
  8
0
 62
     0
 10
116.669
 20
11.7602
 30
0.0
 11
115.87
 21
11.7602
 31
0.0
  0
LINE
  8
0
 62
     0
 10
115.87
 20
11.7602
 30
0.0
 11
115.87
 21
17.5617
 31
0.0
  0
LINE
  8
0
 62
     0
 10
115.87
 20
17.5617
 30
0.0
 11
116.669
 21
17.5617
 31
0.0
  0
LINE
  8
0
 62
     0
 10
116.669
 20
17.5617
 30
0.0
 11
116.669
 21
20.6595
 31
0.0
  0
LINE
  8
0
 62
     0
 10
116.669
 20
20.6595
 30
0.0
 11
115.87
 21
20.6595
 31
0.0
  0
LINE
  8
0
 62
     0
 10
115.87
 20
20.6595
 30
0.0
 11
115.87
 21
21.66
 31
0.0
  0
LINE
  8
0
 62
     0
 10
115.87
 20
21.66
 30
0.0
 11
101.87
 21
21.66
 31
0.0
  0
LINE
  8
0
 62
     0
 10
120.92
 20
21.66
 30
0.0
 11
120.92
 21
20.6595
 31
0.0
  0
LINE
  8
0
 62
     0
 10
120.92
 20
20.6595
 30
0.0
 11
120.119
 21
20.6595
 31
0.0
  0
LINE
  8
0
 62
     0
 10
120.119
 20
20.6595
 30
0.0
 11
120.119
 21
17.5617
 31
0.0
  0
LINE
  8
0
 62
     0
 10
120.119
 20
17.5617
 30
0.0
 11
120.92
 21
17.5617
 31
0.0
  0
LINE
  8
0
 62
     0
 10
120.92
 20
17.5617
 30
0.0
 11
120.92
 21
11.7602
 31
0.0
  0
LINE
  8
0
 62
     0
 10
120.92
 20
11.7602
 30
0.0
 11
120.119
 21
11.7602
 31
0.0
  0
LINE
  8
0
 62
     0
 10
120.119
 20
11.7602
 30
0.0
 11
120.119
 21
8.6596
 31
0.0
  0
LINE
  8
0
 62
     0
 10
120.119
 20
8.6596
 30
0.0
 11
120.92
 21
8.6596
 31
0.0
  0
LINE
  8
0
 62
     0
 10
120.92
 20
8.6596
 30
0.0
 11
120.92
 21
7.6605
 31
0.0
  0
LINE
  8
0
 62
     0
 10
120.92
 20
7.6605
 30
0.0
 11
134.921
 21
7.6605
 31
0.0
  0
LINE
  8
0
 62
     0
 10
134.921
 20
7.6605
 30
0.0
 11
134.921
 21
8.6596
 31
0.0
  0
LINE
  8
0
 62
     0
 10
134.921
 20
8.6596
 30
0.0
 11
135.72
 21
8.6596
 31
0.0
  0
LINE
  8
0
 62
     0
 10
135.72
 20
8.6596
 30
0.0
 11
135.72
 21
11.7602
 31
0.0
  0
LINE
  8
0
 62
     0
 10
135.72
 20
11.7602
 30
0.0
 11
134.921
 21
11.7602
 31
0.0
  0
LINE
  8
0
 62
     0
 10
134.921
 20
11.7602
 30
0.0
 11
134.921
 21
17.5617
 31
0.0
  0
LINE
  8
0
 62
     0
 10
134.921
 20
17.5617
 30
0.0
 11
135.72
 21
17.5617
 31
0.0
  0
LINE
  8
0
 62
     0
 10
135.72
 20
17.5617
 30
0.0
 11
135.72
 21
20.6595
 31
0.0
  0
LINE
  8
0
 62
     0
 10
135.72
 20
20.6595
 30
0.0
 11
134.921
 21
20.6595
 31
0.0
  0
LINE
  8
0
 62
     0
 10
134.921
 20
20.6595
 30
0.0
 11
134.921
 21
21.66
 31
0.0
  0
LINE
  8
0
 62
     0
 10
134.921
 20
21.66
 30
0.0
 11
120.92
 21
21.66
 31
0.0
  0
LINE
  8
0
 62
     0
 10
139.97
 20
21.66
 30
0.0
 11
139.97
 21
20.6595
 31
0.0
  0
LINE
  8
0
 62
     0
 10
139.97
 20
20.6595
 30
0.0
 11
139.171
 21
20.6595
 31
0.0
  0
LINE
  8
0
 62
     0
 10
139.171
 20
20.6595
 30
0.0
 11
139.171
 21
17.5617
 31
0.0
  0
LINE
  8
0
 62
     0
 10
139.171
 20
17.5617
 30
0.0
 11
139.97
 21
17.5617
 31
0.0
  0
LINE
  8
0
 62
     0
 10
139.97
 20
17.5617
 30
0.0
 11
139.97
 21
11.7602
 31
0.0
  0
LINE
  8
0
 62
     0
 10
139.97
 20
11.7602
 30
0.0
 11
139.171
 21
11.7602
 31
0.0
  0
LINE
  8
0
 62
     0
 10
139.171
 20
11.7602
 30
0.0
 11
139.171
 21
8.6596
 31
0.0
  0
LINE
  8
0
 62
     0
 10
139.171
 20
8.6596
 30
0.0
 11
139.97
 21
8.6596
 31
0.0
  0
LINE
  8
0
 62
     0
 10
139.97
 20
8.6596
 30
0.0
 11
139.97
 21
7.6605
 31
0.0
  0
LINE
  8
0
 62
     0
 10
139.97
 20
7.6605
 30
0.0
 11
153.971
 21
7.6605
 31
0.0
  0
LINE
  8
0
 62
     0
 10
153.971
 20
7.6605
 30
0.0
 11
153.971
 21
8.6596
 31
0.0
  0
LINE
  8
0
 62
     0
 10
153.971
 20
8.6596
 30
0.0
 11
154.77
 21
8.6596
 31
0.0
  0
LINE
  8
0
 62
     0
 10
154.77
 20
8.6596
 30
0.0
 11
154.77
 21
11.7602
 31
0.0
  0
LINE
  8
0
 62
     0
 10
154.77
 20
11.7602
 30
0.0
 11
153.971
 21
11.7602
 31
0.0
  0
LINE
  8
0
 62
     0
 10
153.971
 20
11.7602
 30
0.0
 11
153.971
 21
17.5617
 31
0.0
  0
LINE
  8
0
 62
     0
 10
153.971
 20
17.5617
 30
0.0
 11
154.77
 21
17.5617
 31
0.0
  0
LINE
  8
0
 62
     0
 10
154.77
 20
17.5617
 30
0.0
 11
154.77
 21
20.6595
 31
0.0
  0
LINE
  8
0
 62
     0
 10
154.77
 20
20.6595
 30
0.0
 11
153.971
 21
20.6595
 31
0.0
  0
LINE
  8
0
 62
     0
 10
153.971
 20
20.6595
 30
0.0
 11
153.971
 21
21.66
 31
0.0
  0
LINE
  8
0
 62
     0
 10
153.971
 20
21.66
 30
0.0
 11
139.97
 21
21.66
 31
0.0
  0
LINE
  8
0
 62
     0
 10
159.02
 20
21.66
 30
0.0
 11
159.02
 21
20.6595
 31
0.0
  0
LINE
  8
0
 62
     0
 10
159.02
 20
20.6595
 30
0.0
 11
158.221
 21
20.6595
 31
0.0
  0
LINE
  8
0
 62
     0
 10
158.221
 20
20.6595
 30
0.0
 11
158.221
 21
17.5617
 31
0.0
  0
LINE
  8
0
 62
     0
 10
158.221
 20
17.5617
 30
0.0
 11
159.02
 21
17.5617
 31
0.0
  0
LINE
  8
0
 62
     0
 10
159.02
 20
17.5617
 30
0.0
 11
159.02
 21
11.7602
 31
0.0
  0
LINE
  8
0
 62
     0
 10
159.02
 20
11.7602
 30
0.0
 11
158.221
 21
11.7602
 31
0.0
  0
LINE
  8
0
 62
     0
 10
158.221
 20
11.7602
 30
0.0
 11
158.221
 21
8.6596
 31
0.0
  0
LINE
  8
0
 62
     0
 10
158.221
 20
8.6596
 30
0.0
 11
159.02
 21
8.6596
 31
0.0
  0
LINE
  8
0
 62
     0
 10
159.02
 20
8.6596
 30
0.0
 11
159.02
 21
7.6605
 31
0.0
  0
LINE
  8
0
 62
     0
 10
159.02
 20
7.6605
 30
0.0
 11
173.021
 21
7.6605
 31
0.0
  0
LINE
  8
0
 62
     0
 10
173.021
 20
7.6605
 30
0.0
 11
173.021
 21
8.6596
 31
0.0
  0
LINE
  8
0
 62
     0
 10
173.021
 20
8.6596
 30
0.0
 11
173.82
 21
8.6596
 31
0.0
  0
LINE
  8
0
 62
     0
 10
173.82
 20
8.6596
 30
0.0
 11
173.82
 21
11.7602
 31
0.0
  0
LINE
  8
0
 62
     0
 10
173.82
 20
11.7602
 30
0.0
 11
173.021
 21
11.7602
 31
0.0
  0
LINE
  8
0
 62
     0
 10
173.021
 20
11.7602
 30
0.0
 11
173.021
 21
17.5617
 31
0.0
  0
LINE
  8
0
 62
     0
 10
173.021
 20
17.5617
 30
0.0
 11
173.82
 21
17.5617
 31
0.0
  0
LINE
  8
0
 62
     0
 10
173.82
 20
17.5617
 30
0.0
 11
173.82
 21
20.6595
 31
0.0
  0
LINE
  8
0
 62
     0
 10
173.82
 20
20.6595
 30
0.0
 11
173.021
 21
20.6595
 31
0.0
  0
LINE
  8
0
 62
     0
 10
173.021
 20
20.6595
 30
0.0
 11
173.021
 21
21.66
 31
0.0
  0
LINE
  8
0
 62
     0
 10
173.021
 20
21.66
 30
0.0
 11
159.02
 21
21.66
 31
0.0
  0
LINE
  8
0
 62
     0
 10
178.07
 20
21.66
 30
0.0
 11
178.07
 21
20.6595
 31
0.0
  0
LINE
  8
0
 62
     0
 10
178.07
 20
20.6595
 30
0.0
 11
177.271
 21
20.6595
 31
0.0
  0
LINE
  8
0
 62
     0
 10
177.271
 20
20.6595
 30
0.0
 11
177.271
 21
17.5617
 31
0.0
  0
LINE
  8
0
 62
     0
 10
177.271
 20
17.5617
 30
0.0
 11
178.07
 21
17.5617
 31
0.0
  0
LINE
  8
0
 62
     0
 10
178.07
 20
17.5617
 30
0.0
 11
178.07
 21
11.7602
 31
0.0
  0
LINE
  8
0
 62
     0
 10
178.07
 20
11.7602
 30
0.0
 11
177.271
 21
11.7602
 31
0.0
  0
LINE
  8
0
 62
     0
 10
177.271
 20
11.7602
 30
0.0
 11
177.271
 21
8.6596
 31
0.0
  0
LINE
  8
0
 62
     0
 10
177.271
 20
8.6596
 30
0.0
 11
178.07
 21
8.6596
 31
0.0
  0
LINE
  8
0
 62
     0
 10
178.07
 20
8.6596
 30
0.0
 11
178.07
 21
7.6605
 31
0.0
  0
LINE
  8
0
 62
     0
 10
178.07
 20
7.6605
 30
0.0
 11
192.071
 21
7.6605
 31
0.0
  0
LINE
  8
0
 62
     0
 10
192.071
 20
7.6605
 30
0.0
 11
192.071
 21
8.6596
 31
0.0
  0
LINE
  8
0
 62
     0
 10
192.071
 20
8.6596
 30
0.0
 11
192.87
 21
8.6596
 31
0.0
  0
LINE
  8
0
 62
     0
 10
192.87
 20
8.6596
 30
0.0
 11
192.87
 21
11.7602
 31
0.0
  0
LINE
  8
0
 62
     0
 10
192.87
 20
11.7602
 30
0.0
 11
192.071
 21
11.7602
 31
0.0
  0
LINE
  8
0
 62
     0
 10
192.071
 20
11.7602
 30
0.0
 11
192.071
 21
17.5617
 31
0.0
  0
LINE
  8
0
 62
     0
 10
192.071
 20
17.5617
 30
0.0
 11
192.87
 21
17.5617
 31
0.0
  0
LINE
  8
0
 62
     0
 10
192.87
 20
17.5617
 30
0.0
 11
192.87
 21
20.6595
 31
0.0
  0
LINE
  8
0
 62
     0
 10
192.87
 20
20.6595
 30
0.0
 11
192.071
 21
20.6595
 31
0.0
  0
LINE
  8
0
 62
     0
 10
192.071
 20
20.6595
 30
0.0
 11
192.071
 21
21.66
 31
0.0
  0
LINE
  8
0
 62
     0
 10
192.071
 20
21.66
 30
0.0
 11
178.07
 21
21.66
 31
0.0
  0
LINE
  8
0
 62
     0
 10
197.12
 20
21.66
 30
0.0
 11
197.12
 21
20.6595
 31
0.0
  0
LINE
  8
0
 62
     0
 10
197.12
 20
20.6595
 30
0.0
 11
196.321
 21
20.6595
 31
0.0
  0
LINE
  8
0
 62
     0
 10
196.321
 20
20.6595
 30
0.0
 11
196.321
 21
17.5617
 31
0.0
  0
LINE
  8
0
 62
     0
 10
196.321
 20
17.5617
 30
0.0
 11
197.12
 21
17.5617
 31
0.0
  0
LINE
  8
0
 62
     0
 10
197.12
 20
17.5617
 30
0.0
 11
197.12
 21
11.7602
 31
0.0
  0
LINE
  8
0
 62
     0
 10
197.12
 20
11.7602
 30
0.0
 11
196.321
 21
11.7602
 31
0.0
  0
LINE
  8
0
 62
     0
 10
196.321
 20
11.7602
 30
0.0
 11
196.321
 21
8.6596
 31
0.0
  0
LINE
  8
0
 62
     0
 10
196.321
 20
8.6596
 30
0.0
 11
197.12
 21
8.6596
 31
0.0
  0
LINE
  8
0
 62
     0
 10
197.12
 20
8.6596
 30
0.0
 11
197.12
 21
7.6605
 31
0.0
  0
LINE
  8
0
 62
     0
 10
197.12
 20
7.6605
 30
0.0
 11
211.121
 21
7.6605
 31
0.0
  0
LINE
  8
0
 62
     0
 10
211.121
 20
7.6605
 30
0.0
 11
211.121
 21
8.6596
 31
0.0
  0
LINE
  8
0
 62
     0
 10
211.121
 20
8.6596
 30
0.0
 11
211.92
 21
8.6596
 31
0.0
  0
LINE
  8
0
 62
     0
 10
211.92
 20
8.6596
 30
0.0
 11
211.92
 21
11.7602
 31
0.0
  0
LINE
  8
0
 62
     0
 10
211.92
 20
11.7602
 30
0.0
 11
211.121
 21
11.7602
 31
0.0
  0
LINE
  8
0
 62
     0
 10
211.121
 20
11.7602
 30
0.0
 11
211.121
 21
17.5617
 31
0.0
  0
LINE
  8
0
 62
     0
 10
211.121
 20
17.5617
 30
0.0
 11
211.92
 21
17.5617
 31
0.0
  0
LINE
  8
0
 62
     0
 10
211.92
 20
17.5617
 30
0.0
 11
211.92
 21
20.6595
 31
0.0
  0
LINE
  8
0
 62
     0
 10
211.92
 20
20.6595
 30
0.0
 11
211.121
 21
20.6595
 31
0.0
  0
LINE
  8
0
 62
     0
 10
211.121
 20
20.6595
 30
0.0
 11
211.121
 21
21.66
 31
0.0
  0
LINE
  8
0
 62
     0
 10
211.121
 20
21.66
 30
0.0
 11
197.12
 21
21.66
 31
0.0
  0
LINE
  8
0
 62
     0
 10
6.62009
 20
40.7099
 30
0.0
 11
6.62009
 21
39.7097
 31
0.0
  0
LINE
  8
0
 62
     0
 10
6.62009
 20
39.7097
 30
0.0
 11
5.81946
 21
39.7097
 31
0.0
  0
LINE
  8
0
 62
     0
 10
5.81946
 20
39.7097
 30
0.0
 11
5.81946
 21
36.6116
 31
0.0
  0
LINE
  8
0
 62
     0
 10
5.81946
 20
36.6116
 30
0.0
 11
6.62009
 21
36.6116
 31
0.0
  0
LINE
  8
0
 62
     0
 10
6.62009
 20
36.6116
 30
0.0
 11
6.62009
 21
30.8102
 31
0.0
  0
LINE
  8
0
 62
     0
 10
6.62009
 20
30.8102
 30
0.0
 11
5.81946
 21
30.8102
 31
0.0
  0
LINE
  8
0
 62
     0
 10
5.81946
 20
30.8102
 30
0.0
 11
5.81946
 21
27.7096
 31
0.0
  0
LINE
  8
0
 62
     0
 10
5.81946
 20
27.7096
 30
0.0
 11
6.62009
 21
27.7096
 31
0.0
  0
LINE
  8
0
 62
     0
 10
6.62009
 20
27.7096
 30
0.0
 11
6.62009
 21
26.7105
 31
0.0
  0
LINE
  8
0
 62
     0
 10
6.62009
 20
26.7105
 30
0.0
 11
20.621
 21
26.7105
 31
0.0
  0
LINE
  8
0
 62
     0
 10
20.621
 20
26.7105
 30
0.0
 11
20.621
 21
27.7096
 31
0.0
  0
LINE
  8
0
 62
     0
 10
20.621
 20
27.7096
 30
0.0
 11
21.4202
 21
27.7096
 31
0.0
  0
LINE
  8
0
 62
     0
 10
21.4202
 20
27.7096
 30
0.0
 11
21.4202
 21
30.8102
 31
0.0
  0
LINE
  8
0
 62
     0
 10
21.4202
 20
30.8102
 30
0.0
 11
20.621
 21
30.8102
 31
0.0
  0
LINE
  8
0
 62
     0
 10
20.621
 20
30.8102
 30
0.0
 11
20.621
 21
36.6116
 31
0.0
  0
LINE
  8
0
 62
     0
 10
20.621
 20
36.6116
 30
0.0
 11
21.4202
 21
36.6116
 31
0.0
  0
LINE
  8
0
 62
     0
 10
21.4202
 20
36.6116
 30
0.0
 11
21.4202
 21
39.7097
 31
0.0
  0
LINE
  8
0
 62
     0
 10
21.4202
 20
39.7097
 30
0.0
 11
20.621
 21
39.7097
 31
0.0
  0
LINE
  8
0
 62
     0
 10
20.621
 20
39.7097
 30
0.0
 11
20.621
 21
40.7099
 31
0.0
  0
LINE
  8
0
 62
     0
 10
20.621
 20
40.7099
 30
0.0
 11
6.62009
 21
40.7099
 31
0.0
  0
LINE
  8
0
 62
     0
 10
25.6701
 20
40.7099
 30
0.0
 11
25.6701
 21
39.7097
 31
0.0
  0
LINE
  8
0
 62
     0
 10
25.6701
 20
39.7097
 30
0.0
 11
24.8708
 21
39.7097
 31
0.0
  0
LINE
  8
0
 62
     0
 10
24.8708
 20
39.7097
 30
0.0
 11
24.8708
 21
36.6116
 31
0.0
  0
LINE
  8
0
 62
     0
 10
24.8708
 20
36.6116
 30
0.0
 11
25.6701
 21
36.6116
 31
0.0
  0
LINE
  8
0
 62
     0
 10
25.6701
 20
36.6116
 30
0.0
 11
25.6701
 21
30.8102
 31
0.0
  0
LINE
  8
0
 62
     0
 10
25.6701
 20
30.8102
 30
0.0
 11
24.8708
 21
30.8102
 31
0.0
  0
LINE
  8
0
 62
     0
 10
24.8708
 20
30.8102
 30
0.0
 11
24.8708
 21
27.7096
 31
0.0
  0
LINE
  8
0
 62
     0
 10
24.8708
 20
27.7096
 30
0.0
 11
25.6701
 21
27.7096
 31
0.0
  0
LINE
  8
0
 62
     0
 10
25.6701
 20
27.7096
 30
0.0
 11
25.6701
 21
26.7105
 31
0.0
  0
LINE
  8
0
 62
     0
 10
25.6701
 20
26.7105
 30
0.0
 11
39.6709
 21
26.7105
 31
0.0
  0
LINE
  8
0
 62
     0
 10
39.6709
 20
26.7105
 30
0.0
 11
39.6709
 21
27.7096
 31
0.0
  0
LINE
  8
0
 62
     0
 10
39.6709
 20
27.7096
 30
0.0
 11
40.4703
 21
27.7096
 31
0.0
  0
LINE
  8
0
 62
     0
 10
40.4703
 20
27.7096
 30
0.0
 11
40.4703
 21
30.8102
 31
0.0
  0
LINE
  8
0
 62
     0
 10
40.4703
 20
30.8102
 30
0.0
 11
39.6709
 21
30.8102
 31
0.0
  0
LINE
  8
0
 62
     0
 10
39.6709
 20
30.8102
 30
0.0
 11
39.6709
 21
36.6116
 31
0.0
  0
LINE
  8
0
 62
     0
 10
39.6709
 20
36.6116
 30
0.0
 11
40.4703
 21
36.6116
 31
0.0
  0
LINE
  8
0
 62
     0
 10
40.4703
 20
36.6116
 30
0.0
 11
40.4703
 21
39.7097
 31
0.0
  0
LINE
  8
0
 62
     0
 10
40.4703
 20
39.7097
 30
0.0
 11
39.6709
 21
39.7097
 31
0.0
  0
LINE
  8
0
 62
     0
 10
39.6709
 20
39.7097
 30
0.0
 11
39.6709
 21
40.7099
 31
0.0
  0
LINE
  8
0
 62
     0
 10
39.6709
 20
40.7099
 30
0.0
 11
25.6701
 21
40.7099
 31
0.0
  0
LINE
  8
0
 62
     0
 10
44.7202
 20
40.7099
 30
0.0
 11
44.7202
 21
39.7097
 31
0.0
  0
LINE
  8
0
 62
     0
 10
44.7202
 20
39.7097
 30
0.0
 11
43.9208
 21
39.7097
 31
0.0
  0
LINE
  8
0
 62
     0
 10
43.9208
 20
39.7097
 30
0.0
 11
43.9208
 21
36.6116
 31
0.0
  0
LINE
  8
0
 62
     0
 10
43.9208
 20
36.6116
 30
0.0
 11
44.7202
 21
36.6116
 31
0.0
  0
LINE
  8
0
 62
     0
 10
44.7202
 20
36.6116
 30
0.0
 11
44.7202
 21
30.8102
 31
0.0
  0
LINE
  8
0
 62
     0
 10
44.7202
 20
30.8102
 30
0.0
 11
43.9208
 21
30.8102
 31
0.0
  0
LINE
  8
0
 62
     0
 10
43.9208
 20
30.8102
 30
0.0
 11
43.9208
 21
27.7096
 31
0.0
  0
LINE
  8
0
 62
     0
 10
43.9208
 20
27.7096
 30
0.0
 11
44.7202
 21
27.7096
 31
0.0
  0
LINE
  8
0
 62
     0
 10
44.7202
 20
27.7096
 30
0.0
 11
44.7202
 21
26.7105
 31
0.0
  0
LINE
  8
0
 62
     0
 10
44.7202
 20
26.7105
 30
0.0
 11
58.7209
 21
26.7105
 31
0.0
  0
LINE
  8
0
 62
     0
 10
58.7209
 20
26.7105
 30
0.0
 11
58.7209
 21
27.7096
 31
0.0
  0
LINE
  8
0
 62
     0
 10
58.7209
 20
27.7096
 30
0.0
 11
59.5203
 21
27.7096
 31
0.0
  0
LINE
  8
0
 62
     0
 10
59.5203
 20
27.7096
 30
0.0
 11
59.5203
 21
30.8102
 31
0.0
  0
LINE
  8
0
 62
     0
 10
59.5203
 20
30.8102
 30
0.0
 11
58.7209
 21
30.8102
 31
0.0
  0
LINE
  8
0
 62
     0
 10
58.7209
 20
30.8102
 30
0.0
 11
58.7209
 21
36.6116
 31
0.0
  0
LINE
  8
0
 62
     0
 10
58.7209
 20
36.6116
 30
0.0
 11
59.5203
 21
36.6116
 31
0.0
  0
LINE
  8
0
 62
     0
 10
59.5203
 20
36.6116
 30
0.0
 11
59.5203
 21
39.7097
 31
0.0
  0
LINE
  8
0
 62
     0
 10
59.5203
 20
39.7097
 30
0.0
 11
58.7209
 21
39.7097
 31
0.0
  0
LINE
  8
0
 62
     0
 10
58.7209
 20
39.7097
 30
0.0
 11
58.7209
 21
40.7099
 31
0.0
  0
LINE
  8
0
 62
     0
 10
58.7209
 20
40.7099
 30
0.0
 11
44.7202
 21
40.7099
 31
0.0
  0
LINE
  8
0
 62
     0
 10
63.7702
 20
40.7099
 30
0.0
 11
63.7702
 21
39.7097
 31
0.0
  0
LINE
  8
0
 62
     0
 10
63.7702
 20
39.7097
 30
0.0
 11
62.9708
 21
39.7097
 31
0.0
  0
LINE
  8
0
 62
     0
 10
62.9708
 20
39.7097
 30
0.0
 11
62.9708
 21
36.6116
 31
0.0
  0
LINE
  8
0
 62
     0
 10
62.9708
 20
36.6116
 30
0.0
 11
63.7702
 21
36.6116
 31
0.0
  0
LINE
  8
0
 62
     0
 10
63.7702
 20
36.6116
 30
0.0
 11
63.7702
 21
30.8102
 31
0.0
  0
LINE
  8
0
 62
     0
 10
63.7702
 20
30.8102
 30
0.0
 11
62.9708
 21
30.8102
 31
0.0
  0
LINE
  8
0
 62
     0
 10
62.9708
 20
30.8102
 30
0.0
 11
62.9708
 21
27.7096
 31
0.0
  0
LINE
  8
0
 62
     0
 10
62.9708
 20
27.7096
 30
0.0
 11
63.7702
 21
27.7096
 31
0.0
  0
LINE
  8
0
 62
     0
 10
63.7702
 20
27.7096
 30
0.0
 11
63.7702
 21
26.7105
 31
0.0
  0
LINE
  8
0
 62
     0
 10
63.7702
 20
26.7105
 30
0.0
 11
77.7709
 21
26.7105
 31
0.0
  0
LINE
  8
0
 62
     0
 10
77.7709
 20
26.7105
 30
0.0
 11
77.7709
 21
27.7096
 31
0.0
  0
LINE
  8
0
 62
     0
 10
77.7709
 20
27.7096
 30
0.0
 11
78.5703
 21
27.7096
 31
0.0
  0
LINE
  8
0
 62
     0
 10
78.5703
 20
27.7096
 30
0.0
 11
78.5703
 21
30.8102
 31
0.0
  0
LINE
  8
0
 62
     0
 10
78.5703
 20
30.8102
 30
0.0
 11
77.7709
 21
30.8102
 31
0.0
  0
LINE
  8
0
 62
     0
 10
77.7709
 20
30.8102
 30
0.0
 11
77.7709
 21
36.6116
 31
0.0
  0
LINE
  8
0
 62
     0
 10
77.7709
 20
36.6116
 30
0.0
 11
78.5703
 21
36.6116
 31
0.0
  0
LINE
  8
0
 62
     0
 10
78.5703
 20
36.6116
 30
0.0
 11
78.5703
 21
39.7097
 31
0.0
  0
LINE
  8
0
 62
     0
 10
78.5703
 20
39.7097
 30
0.0
 11
77.7709
 21
39.7097
 31
0.0
  0
LINE
  8
0
 62
     0
 10
77.7709
 20
39.7097
 30
0.0
 11
77.7709
 21
40.7099
 31
0.0
  0
LINE
  8
0
 62
     0
 10
77.7709
 20
40.7099
 30
0.0
 11
63.7702
 21
40.7099
 31
0.0
  0
LINE
  8
0
 62
     0
 10
82.8202
 20
40.7099
 30
0.0
 11
82.8202
 21
39.7097
 31
0.0
  0
LINE
  8
0
 62
     0
 10
82.8202
 20
39.7097
 30
0.0
 11
82.0208
 21
39.7097
 31
0.0
  0
LINE
  8
0
 62
     0
 10
82.0208
 20
39.7097
 30
0.0
 11
82.0208
 21
36.6116
 31
0.0
  0
LINE
  8
0
 62
     0
 10
82.0208
 20
36.6116
 30
0.0
 11
82.8202
 21
36.6116
 31
0.0
  0
LINE
  8
0
 62
     0
 10
82.8202
 20
36.6116
 30
0.0
 11
82.8202
 21
30.8102
 31
0.0
  0
LINE
  8
0
 62
     0
 10
82.8202
 20
30.8102
 30
0.0
 11
82.0208
 21
30.8102
 31
0.0
  0
LINE
  8
0
 62
     0
 10
82.0208
 20
30.8102
 30
0.0
 11
82.0208
 21
27.7096
 31
0.0
  0
LINE
  8
0
 62
     0
 10
82.0208
 20
27.7096
 30
0.0
 11
82.8202
 21
27.7096
 31
0.0
  0
LINE
  8
0
 62
     0
 10
82.8202
 20
27.7096
 30
0.0
 11
82.8202
 21
26.7105
 31
0.0
  0
LINE
  8
0
 62
     0
 10
82.8202
 20
26.7105
 30
0.0
 11
96.8209
 21
26.7105
 31
0.0
  0
LINE
  8
0
 62
     0
 10
96.8209
 20
26.7105
 30
0.0
 11
96.8209
 21
27.7096
 31
0.0
  0
LINE
  8
0
 62
     0
 10
96.8209
 20
27.7096
 30
0.0
 11
97.6189
 21
27.7096
 31
0.0
  0
LINE
  8
0
 62
     0
 10
97.6189
 20
27.7096
 30
0.0
 11
97.6189
 21
30.8102
 31
0.0
  0
LINE
  8
0
 62
     0
 10
97.6189
 20
30.8102
 30
0.0
 11
96.8209
 21
30.8102
 31
0.0
  0
LINE
  8
0
 62
     0
 10
96.8209
 20
30.8102
 30
0.0
 11
96.8209
 21
36.6116
 31
0.0
  0
LINE
  8
0
 62
     0
 10
96.8209
 20
36.6116
 30
0.0
 11
97.6189
 21
36.6116
 31
0.0
  0
LINE
  8
0
 62
     0
 10
97.6189
 20
36.6116
 30
0.0
 11
97.6189
 21
39.7097
 31
0.0
  0
LINE
  8
0
 62
     0
 10
97.6189
 20
39.7097
 30
0.0
 11
96.8209
 21
39.7097
 31
0.0
  0
LINE
  8
0
 62
     0
 10
96.8209
 20
39.7097
 30
0.0
 11
96.8209
 21
40.7099
 31
0.0
  0
LINE
  8
0
 62
     0
 10
96.8209
 20
40.7099
 30
0.0
 11
82.8202
 21
40.7099
 31
0.0
  0
LINE
  8
0
 62
     0
 10
101.87
 20
40.7099
 30
0.0
 11
101.87
 21
39.7097
 31
0.0
  0
LINE
  8
0
 62
     0
 10
101.87
 20
39.7097
 30
0.0
 11
101.071
 21
39.7097
 31
0.0
  0
LINE
  8
0
 62
     0
 10
101.071
 20
39.7097
 30
0.0
 11
101.071
 21
36.6116
 31
0.0
  0
LINE
  8
0
 62
     0
 10
101.071
 20
36.6116
 30
0.0
 11
101.87
 21
36.6116
 31
0.0
  0
LINE
  8
0
 62
     0
 10
101.87
 20
36.6116
 30
0.0
 11
101.87
 21
30.8102
 31
0.0
  0
LINE
  8
0
 62
     0
 10
101.87
 20
30.8102
 30
0.0
 11
101.071
 21
30.8102
 31
0.0
  0
LINE
  8
0
 62
     0
 10
101.071
 20
30.8102
 30
0.0
 11
101.071
 21
27.7096
 31
0.0
  0
LINE
  8
0
 62
     0
 10
101.071
 20
27.7096
 30
0.0
 11
101.87
 21
27.7096
 31
0.0
  0
LINE
  8
0
 62
     0
 10
101.87
 20
27.7096
 30
0.0
 11
101.87
 21
26.7105
 31
0.0
  0
LINE
  8
0
 62
     0
 10
101.87
 20
26.7105
 30
0.0
 11
115.87
 21
26.7105
 31
0.0
  0
LINE
  8
0
 62
     0
 10
115.87
 20
26.7105
 30
0.0
 11
115.87
 21
27.7096
 31
0.0
  0
LINE
  8
0
 62
     0
 10
115.87
 20
27.7096
 30
0.0
 11
116.669
 21
27.7096
 31
0.0
  0
LINE
  8
0
 62
     0
 10
116.669
 20
27.7096
 30
0.0
 11
116.669
 21
30.8102
 31
0.0
  0
LINE
  8
0
 62
     0
 10
116.669
 20
30.8102
 30
0.0
 11
115.87
 21
30.8102
 31
0.0
  0
LINE
  8
0
 62
     0
 10
115.87
 20
30.8102
 30
0.0
 11
115.87
 21
36.6116
 31
0.0
  0
LINE
  8
0
 62
     0
 10
115.87
 20
36.6116
 30
0.0
 11
116.669
 21
36.6116
 31
0.0
  0
LINE
  8
0
 62
     0
 10
116.669
 20
36.6116
 30
0.0
 11
116.669
 21
39.7097
 31
0.0
  0
LINE
  8
0
 62
     0
 10
116.669
 20
39.7097
 30
0.0
 11
115.87
 21
39.7097
 31
0.0
  0
LINE
  8
0
 62
     0
 10
115.87
 20
39.7097
 30
0.0
 11
115.87
 21
40.7099
 31
0.0
  0
LINE
  8
0
 62
     0
 10
115.87
 20
40.7099
 30
0.0
 11
101.87
 21
40.7099
 31
0.0
  0
LINE
  8
0
 62
     0
 10
120.92
 20
40.7099
 30
0.0
 11
120.92
 21
39.7097
 31
0.0
  0
LINE
  8
0
 62
     0
 10
120.92
 20
39.7097
 30
0.0
 11
120.119
 21
39.7097
 31
0.0
  0
LINE
  8
0
 62
     0
 10
120.119
 20
39.7097
 30
0.0
 11
120.119
 21
36.6116
 31
0.0
  0
LINE
  8
0
 62
     0
 10
120.119
 20
36.6116
 30
0.0
 11
120.92
 21
36.6116
 31
0.0
  0
LINE
  8
0
 62
     0
 10
120.92
 20
36.6116
 30
0.0
 11
120.92
 21
30.8102
 31
0.0
  0
LINE
  8
0
 62
     0
 10
120.92
 20
30.8102
 30
0.0
 11
120.119
 21
30.8102
 31
0.0
  0
LINE
  8
0
 62
     0
 10
120.119
 20
30.8102
 30
0.0
 11
120.119
 21
27.7096
 31
0.0
  0
LINE
  8
0
 62
     0
 10
120.119
 20
27.7096
 30
0.0
 11
120.92
 21
27.7096
 31
0.0
  0
LINE
  8
0
 62
     0
 10
120.92
 20
27.7096
 30
0.0
 11
120.92
 21
26.7105
 31
0.0
  0
LINE
  8
0
 62
     0
 10
120.92
 20
26.7105
 30
0.0
 11
134.921
 21
26.7105
 31
0.0
  0
LINE
  8
0
 62
     0
 10
134.921
 20
26.7105
 30
0.0
 11
134.921
 21
27.7096
 31
0.0
  0
LINE
  8
0
 62
     0
 10
134.921
 20
27.7096
 30
0.0
 11
135.72
 21
27.7096
 31
0.0
  0
LINE
  8
0
 62
     0
 10
135.72
 20
27.7096
 30
0.0
 11
135.72
 21
30.8102
 31
0.0
  0
LINE
  8
0
 62
     0
 10
135.72
 20
30.8102
 30
0.0
 11
134.921
 21
30.8102
 31
0.0
  0
LINE
  8
0
 62
     0
 10
134.921
 20
30.8102
 30
0.0
 11
134.921
 21
36.6116
 31
0.0
  0
LINE
  8
0
 62
     0
 10
134.921
 20
36.6116
 30
0.0
 11
135.72
 21
36.6116
 31
0.0
  0
LINE
  8
0
 62
     0
 10
135.72
 20
36.6116
 30
0.0
 11
135.72
 21
39.7097
 31
0.0
  0
LINE
  8
0
 62
     0
 10
135.72
 20
39.7097
 30
0.0
 11
134.921
 21
39.7097
 31
0.0
  0
LINE
  8
0
 62
     0
 10
134.921
 20
39.7097
 30
0.0
 11
134.921
 21
40.7099
 31
0.0
  0
LINE
  8
0
 62
     0
 10
134.921
 20
40.7099
 30
0.0
 11
120.92
 21
40.7099
 31
0.0
  0
LINE
  8
0
 62
     0
 10
139.97
 20
40.7099
 30
0.0
 11
139.97
 21
39.7097
 31
0.0
  0
LINE
  8
0
 62
     0
 10
139.97
 20
39.7097
 30
0.0
 11
139.171
 21
39.7097
 31
0.0
  0
LINE
  8
0
 62
     0
 10
139.171
 20
39.7097
 30
0.0
 11
139.171
 21
36.6116
 31
0.0
  0
LINE
  8
0
 62
     0
 10
139.171
 20
36.6116
 30
0.0
 11
139.97
 21
36.6116
 31
0.0
  0
LINE
  8
0
 62
     0
 10
139.97
 20
36.6116
 30
0.0
 11
139.97
 21
30.8102
 31
0.0
  0
LINE
  8
0
 62
     0
 10
139.97
 20
30.8102
 30
0.0
 11
139.171
 21
30.8102
 31
0.0
  0
LINE
  8
0
 62
     0
 10
139.171
 20
30.8102
 30
0.0
 11
139.171
 21
27.7096
 31
0.0
  0
LINE
  8
0
 62
     0
 10
139.171
 20
27.7096
 30
0.0
 11
139.97
 21
27.7096
 31
0.0
  0
LINE
  8
0
 62
     0
 10
139.97
 20
27.7096
 30
0.0
 11
139.97
 21
26.7105
 31
0.0
  0
LINE
  8
0
 62
     0
 10
139.97
 20
26.7105
 30
0.0
 11
153.971
 21
26.7105
 31
0.0
  0
LINE
  8
0
 62
     0
 10
153.971
 20
26.7105
 30
0.0
 11
153.971
 21
27.7096
 31
0.0
  0
LINE
  8
0
 62
     0
 10
153.971
 20
27.7096
 30
0.0
 11
154.77
 21
27.7096
 31
0.0
  0
LINE
  8
0
 62
     0
 10
154.77
 20
27.7096
 30
0.0
 11
154.77
 21
30.8102
 31
0.0
  0
LINE
  8
0
 62
     0
 10
154.77
 20
30.8102
 30
0.0
 11
153.971
 21
30.8102
 31
0.0
  0
LINE
  8
0
 62
     0
 10
153.971
 20
30.8102
 30
0.0
 11
153.971
 21
36.6116
 31
0.0
  0
LINE
  8
0
 62
     0
 10
153.971
 20
36.6116
 30
0.0
 11
154.77
 21
36.6116
 31
0.0
  0
LINE
  8
0
 62
     0
 10
154.77
 20
36.6116
 30
0.0
 11
154.77
 21
39.7097
 31
0.0
  0
LINE
  8
0
 62
     0
 10
154.77
 20
39.7097
 30
0.0
 11
153.971
 21
39.7097
 31
0.0
  0
LINE
  8
0
 62
     0
 10
153.971
 20
39.7097
 30
0.0
 11
153.971
 21
40.7099
 31
0.0
  0
LINE
  8
0
 62
     0
 10
153.971
 20
40.7099
 30
0.0
 11
139.97
 21
40.7099
 31
0.0
  0
LINE
  8
0
 62
     0
 10
159.02
 20
40.7099
 30
0.0
 11
159.02
 21
39.7097
 31
0.0
  0
LINE
  8
0
 62
     0
 10
159.02
 20
39.7097
 30
0.0
 11
158.221
 21
39.7097
 31
0.0
  0
LINE
  8
0
 62
     0
 10
158.221
 20
39.7097
 30
0.0
 11
158.221
 21
36.6116
 31
0.0
  0
LINE
  8
0
 62
     0
 10
158.221
 20
36.6116
 30
0.0
 11
159.02
 21
36.6116
 31
0.0
  0
LINE
  8
0
 62
     0
 10
159.02
 20
36.6116
 30
0.0
 11
159.02
 21
30.8102
 31
0.0
  0
LINE
  8
0
 62
     0
 10
159.02
 20
30.8102
 30
0.0
 11
158.221
 21
30.8102
 31
0.0
  0
LINE
  8
0
 62
     0
 10
158.221
 20
30.8102
 30
0.0
 11
158.221
 21
27.7096
 31
0.0
  0
LINE
  8
0
 62
     0
 10
158.221
 20
27.7096
 30
0.0
 11
159.02
 21
27.7096
 31
0.0
  0
LINE
  8
0
 62
     0
 10
159.02
 20
27.7096
 30
0.0
 11
159.02
 21
26.7105
 31
0.0
  0
LINE
  8
0
 62
     0
 10
159.02
 20
26.7105
 30
0.0
 11
173.021
 21
26.7105
 31
0.0
  0
LINE
  8
0
 62
     0
 10
173.021
 20
26.7105
 30
0.0
 11
173.021
 21
27.7096
 31
0.0
  0
LINE
  8
0
 62
     0
 10
173.021
 20
27.7096
 30
0.0
 11
173.82
 21
27.7096
 31
0.0
  0
LINE
  8
0
 62
     0
 10
173.82
 20
27.7096
 30
0.0
 11
173.82
 21
30.8102
 31
0.0
  0
LINE
  8
0
 62
     0
 10
173.82
 20
30.8102
 30
0.0
 11
173.021
 21
30.8102
 31
0.0
  0
LINE
  8
0
 62
     0
 10
173.021
 20
30.8102
 30
0.0
 11
173.021
 21
36.6116
 31
0.0
  0
LINE
  8
0
 62
     0
 10
173.021
 20
36.6116
 30
0.0
 11
173.82
 21
36.6116
 31
0.0
  0
LINE
  8
0
 62
     0
 10
173.82
 20
36.6116
 30
0.0
 11
173.82
 21
39.7097
 31
0.0
  0
LINE
  8
0
 62
     0
 10
173.82
 20
39.7097
 30
0.0
 11
173.021
 21
39.7097
 31
0.0
  0
LINE
  8
0
 62
     0
 10
173.021
 20
39.7097
 30
0.0
 11
173.021
 21
40.7099
 31
0.0
  0
LINE
  8
0
 62
     0
 10
173.021
 20
40.7099
 30
0.0
 11
159.02
 21
40.7099
 31
0.0
  0
LINE
  8
0
 62
     0
 10
178.07
 20
40.7099
 30
0.0
 11
178.07
 21
39.7097
 31
0.0
  0
LINE
  8
0
 62
     0
 10
178.07
 20
39.7097
 30
0.0
 11
177.271
 21
39.7097
 31
0.0
  0
LINE
  8
0
 62
     0
 10
177.271
 20
39.7097
 30
0.0
 11
177.271
 21
36.6116
 31
0.0
  0
LINE
  8
0
 62
     0
 10
177.271
 20
36.6116
 30
0.0
 11
178.07
 21
36.6116
 31
0.0
  0
LINE
  8
0
 62
     0
 10
178.07
 20
36.6116
 30
0.0
 11
178.07
 21
30.8102
 31
0.0
  0
LINE
  8
0
 62
     0
 10
178.07
 20
30.8102
 30
0.0
 11
177.271
 21
30.8102
 31
0.0
  0
LINE
  8
0
 62
     0
 10
177.271
 20
30.8102
 30
0.0
 11
177.271
 21
27.7096
 31
0.0
  0
LINE
  8
0
 62
     0
 10
177.271
 20
27.7096
 30
0.0
 11
178.07
 21
27.7096
 31
0.0
  0
LINE
  8
0
 62
     0
 10
178.07
 20
27.7096
 30
0.0
 11
178.07
 21
26.7105
 31
0.0
  0
LINE
  8
0
 62
     0
 10
178.07
 20
26.7105
 30
0.0
 11
192.071
 21
26.7105
 31
0.0
  0
LINE
  8
0
 62
     0
 10
192.071
 20
26.7105
 30
0.0
 11
192.071
 21
27.7096
 31
0.0
  0
LINE
  8
0
 62
     0
 10
192.071
 20
27.7096
 30
0.0
 11
192.87
 21
27.7096
 31
0.0
  0
LINE
  8
0
 62
     0
 10
192.87
 20
27.7096
 30
0.0
 11
192.87
 21
30.8102
 31
0.0
  0
LINE
  8
0
 62
     0
 10
192.87
 20
30.8102
 30
0.0
 11
192.071
 21
30.8102
 31
0.0
  0
LINE
  8
0
 62
     0
 10
192.071
 20
30.8102
 30
0.0
 11
192.071
 21
36.6116
 31
0.0
  0
LINE
  8
0
 62
     0
 10
192.071
 20
36.6116
 30
0.0
 11
192.87
 21
36.6116
 31
0.0
  0
LINE
  8
0
 62
     0
 10
192.87
 20
36.6116
 30
0.0
 11
192.87
 21
39.7097
 31
0.0
  0
LINE
  8
0
 62
     0
 10
192.87
 20
39.7097
 30
0.0
 11
192.071
 21
39.7097
 31
0.0
  0
LINE
  8
0
 62
     0
 10
192.071
 20
39.7097
 30
0.0
 11
192.071
 21
40.7099
 31
0.0
  0
LINE
  8
0
 62
     0
 10
192.071
 20
40.7099
 30
0.0
 11
178.07
 21
40.7099
 31
0.0
  0
LINE
  8
0
 62
     0
 10
197.12
 20
40.7099
 30
0.0
 11
197.12
 21
39.7097
 31
0.0
  0
LINE
  8
0
 62
     0
 10
197.12
 20
39.7097
 30
0.0
 11
196.321
 21
39.7097
 31
0.0
  0
LINE
  8
0
 62
     0
 10
196.321
 20
39.7097
 30
0.0
 11
196.321
 21
36.6116
 31
0.0
  0
LINE
  8
0
 62
     0
 10
196.321
 20
36.6116
 30
0.0
 11
197.12
 21
36.6116
 31
0.0
  0
LINE
  8
0
 62
     0
 10
197.12
 20
36.6116
 30
0.0
 11
197.12
 21
30.8102
 31
0.0
  0
LINE
  8
0
 62
     0
 10
197.12
 20
30.8102
 30
0.0
 11
196.321
 21
30.8102
 31
0.0
  0
LINE
  8
0
 62
     0
 10
196.321
 20
30.8102
 30
0.0
 11
196.321
 21
27.7096
 31
0.0
  0
LINE
  8
0
 62
     0
 10
196.321
 20
27.7096
 30
0.0
 11
197.12
 21
27.7096
 31
0.0
  0
LINE
  8
0
 62
     0
 10
197.12
 20
27.7096
 30
0.0
 11
197.12
 21
26.7105
 31
0.0
  0
LINE
  8
0
 62
     0
 10
197.12
 20
26.7105
 30
0.0
 11
211.121
 21
26.7105
 31
0.0
  0
LINE
  8
0
 62
     0
 10
211.121
 20
26.7105
 30
0.0
 11
211.121
 21
27.7096
 31
0.0
  0
LINE
  8
0
 62
     0
 10
211.121
 20
27.7096
 30
0.0
 11
211.92
 21
27.7096
 31
0.0
  0
LINE
  8
0
 62
     0
 10
211.92
 20
27.7096
 30
0.0
 11
211.92
 21
30.8102
 31
0.0
  0
LINE
  8
0
 62
     0
 10
211.92
 20
30.8102
 30
0.0
 11
211.121
 21
30.8102
 31
0.0
  0
LINE
  8
0
 62
     0
 10
211.121
 20
30.8102
 30
0.0
 11
211.121
 21
36.6116
 31
0.0
  0
LINE
  8
0
 62
     0
 10
211.121
 20
36.6116
 30
0.0
 11
211.92
 21
36.6116
 31
0.0
  0
LINE
  8
0
 62
     0
 10
211.92
 20
36.6116
 30
0.0
 11
211.92
 21
39.7097
 31
0.0
  0
LINE
  8
0
 62
     0
 10
211.92
 20
39.7097
 30
0.0
 11
211.121
 21
39.7097
 31
0.0
  0
LINE
  8
0
 62
     0
 10
211.121
 20
39.7097
 30
0.0
 11
211.121
 21
40.7099
 31
0.0
  0
LINE
  8
0
 62
     0
 10
211.121
 20
40.7099
 30
0.0
 11
197.12
 21
40.7099
 31
0.0
  0
LINE
  8
0
 62
     0
 10
6.62009
 20
59.7598
 30
0.0
 11
6.62009
 21
58.7597
 31
0.0
  0
LINE
  8
0
 62
     0
 10
6.62009
 20
58.7597
 30
0.0
 11
5.81946
 21
58.7597
 31
0.0
  0
LINE
  8
0
 62
     0
 10
5.81946
 20
58.7597
 30
0.0
 11
5.81946
 21
55.6602
 31
0.0
  0
LINE
  8
0
 62
     0
 10
5.81946
 20
55.6602
 30
0.0
 11
6.62009
 21
55.6602
 31
0.0
  0
LINE
  8
0
 62
     0
 10
6.62009
 20
55.6602
 30
0.0
 11
6.62009
 21
49.8602
 31
0.0
  0
LINE
  8
0
 62
     0
 10
6.62009
 20
49.8602
 30
0.0
 11
5.81946
 21
49.8602
 31
0.0
  0
LINE
  8
0
 62
     0
 10
5.81946
 20
49.8602
 30
0.0
 11
5.81946
 21
46.7596
 31
0.0
  0
LINE
  8
0
 62
     0
 10
5.81946
 20
46.7596
 30
0.0
 11
6.62009
 21
46.7596
 31
0.0
  0
LINE
  8
0
 62
     0
 10
6.62009
 20
46.7596
 30
0.0
 11
6.62009
 21
45.7606
 31
0.0
  0
LINE
  8
0
 62
     0
 10
6.62009
 20
45.7606
 30
0.0
 11
20.621
 21
45.7606
 31
0.0
  0
LINE
  8
0
 62
     0
 10
20.621
 20
45.7606
 30
0.0
 11
20.621
 21
46.7596
 31
0.0
  0
LINE
  8
0
 62
     0
 10
20.621
 20
46.7596
 30
0.0
 11
21.4202
 21
46.7596
 31
0.0
  0
LINE
  8
0
 62
     0
 10
21.4202
 20
46.7596
 30
0.0
 11
21.4202
 21
49.8602
 31
0.0
  0
LINE
  8
0
 62
     0
 10
21.4202
 20
49.8602
 30
0.0
 11
20.621
 21
49.8602
 31
0.0
  0
LINE
  8
0
 62
     0
 10
20.621
 20
49.8602
 30
0.0
 11
20.621
 21
55.6602
 31
0.0
  0
LINE
  8
0
 62
     0
 10
20.621
 20
55.6602
 30
0.0
 11
21.4202
 21
55.6602
 31
0.0
  0
LINE
  8
0
 62
     0
 10
21.4202
 20
55.6602
 30
0.0
 11
21.4202
 21
58.7597
 31
0.0
  0
LINE
  8
0
 62
     0
 10
21.4202
 20
58.7597
 30
0.0
 11
20.621
 21
58.7597
 31
0.0
  0
LINE
  8
0
 62
     0
 10
20.621
 20
58.7597
 30
0.0
 11
20.621
 21
59.7598
 31
0.0
  0
LINE
  8
0
 62
     0
 10
20.621
 20
59.7598
 30
0.0
 11
6.62009
 21
59.7598
 31
0.0
  0
LINE
  8
0
 62
     0
 10
25.6701
 20
59.7598
 30
0.0
 11
25.6701
 21
58.7597
 31
0.0
  0
LINE
  8
0
 62
     0
 10
25.6701
 20
58.7597
 30
0.0
 11
24.8708
 21
58.7597
 31
0.0
  0
LINE
  8
0
 62
     0
 10
24.8708
 20
58.7597
 30
0.0
 11
24.8708
 21
55.6602
 31
0.0
  0
LINE
  8
0
 62
     0
 10
24.8708
 20
55.6602
 30
0.0
 11
25.6701
 21
55.6602
 31
0.0
  0
LINE
  8
0
 62
     0
 10
25.6701
 20
55.6602
 30
0.0
 11
25.6701
 21
49.8602
 31
0.0
  0
LINE
  8
0
 62
     0
 10
25.6701
 20
49.8602
 30
0.0
 11
24.8708
 21
49.8602
 31
0.0
  0
LINE
  8
0
 62
     0
 10
24.8708
 20
49.8602
 30
0.0
 11
24.8708
 21
46.7596
 31
0.0
  0
LINE
  8
0
 62
     0
 10
24.8708
 20
46.7596
 30
0.0
 11
25.6701
 21
46.7596
 31
0.0
  0
LINE
  8
0
 62
     0
 10
25.6701
 20
46.7596
 30
0.0
 11
25.6701
 21
45.7606
 31
0.0
  0
LINE
  8
0
 62
     0
 10
25.6701
 20
45.7606
 30
0.0
 11
39.6709
 21
45.7606
 31
0.0
  0
LINE
  8
0
 62
     0
 10
39.6709
 20
45.7606
 30
0.0
 11
39.6709
 21
46.7596
 31
0.0
  0
LINE
  8
0
 62
     0
 10
39.6709
 20
46.7596
 30
0.0
 11
40.4703
 21
46.7596
 31
0.0
  0
LINE
  8
0
 62
     0
 10
40.4703
 20
46.7596
 30
0.0
 11
40.4703
 21
49.8602
 31
0.0
  0
LINE
  8
0
 62
     0
 10
40.4703
 20
49.8602
 30
0.0
 11
39.6709
 21
49.8602
 31
0.0
  0
LINE
  8
0
 62
     0
 10
39.6709
 20
49.8602
 30
0.0
 11
39.6709
 21
55.6602
 31
0.0
  0
LINE
  8
0
 62
     0
 10
39.6709
 20
55.6602
 30
0.0
 11
40.4703
 21
55.6602
 31
0.0
  0
LINE
  8
0
 62
     0
 10
40.4703
 20
55.6602
 30
0.0
 11
40.4703
 21
58.7597
 31
0.0
  0
LINE
  8
0
 62
     0
 10
40.4703
 20
58.7597
 30
0.0
 11
39.6709
 21
58.7597
 31
0.0
  0
LINE
  8
0
 62
     0
 10
39.6709
 20
58.7597
 30
0.0
 11
39.6709
 21
59.7598
 31
0.0
  0
LINE
  8
0
 62
     0
 10
39.6709
 20
59.7598
 30
0.0
 11
25.6701
 21
59.7598
 31
0.0
  0
LINE
  8
0
 62
     0
 10
44.7202
 20
59.7598
 30
0.0
 11
44.7202
 21
58.7597
 31
0.0
  0
LINE
  8
0
 62
     0
 10
44.7202
 20
58.7597
 30
0.0
 11
43.9208
 21
58.7597
 31
0.0
  0
LINE
  8
0
 62
     0
 10
43.9208
 20
58.7597
 30
0.0
 11
43.9208
 21
55.6602
 31
0.0
  0
LINE
  8
0
 62
     0
 10
43.9208
 20
55.6602
 30
0.0
 11
44.7202
 21
55.6602
 31
0.0
  0
LINE
  8
0
 62
     0
 10
44.7202
 20
55.6602
 30
0.0
 11
44.7202
 21
49.8602
 31
0.0
  0
LINE
  8
0
 62
     0
 10
44.7202
 20
49.8602
 30
0.0
 11
43.9208
 21
49.8602
 31
0.0
  0
LINE
  8
0
 62
     0
 10
43.9208
 20
49.8602
 30
0.0
 11
43.9208
 21
46.7596
 31
0.0
  0
LINE
  8
0
 62
     0
 10
43.9208
 20
46.7596
 30
0.0
 11
44.7202
 21
46.7596
 31
0.0
  0
LINE
  8
0
 62
     0
 10
44.7202
 20
46.7596
 30
0.0
 11
44.7202
 21
45.7606
 31
0.0
  0
LINE
  8
0
 62
     0
 10
44.7202
 20
45.7606
 30
0.0
 11
58.7209
 21
45.7606
 31
0.0
  0
LINE
  8
0
 62
     0
 10
58.7209
 20
45.7606
 30
0.0
 11
58.7209
 21
46.7596
 31
0.0
  0
LINE
  8
0
 62
     0
 10
58.7209
 20
46.7596
 30
0.0
 11
59.5203
 21
46.7596
 31
0.0
  0
LINE
  8
0
 62
     0
 10
59.5203
 20
46.7596
 30
0.0
 11
59.5203
 21
49.8602
 31
0.0
  0
LINE
  8
0
 62
     0
 10
59.5203
 20
49.8602
 30
0.0
 11
58.7209
 21
49.8602
 31
0.0
  0
LINE
  8
0
 62
     0
 10
58.7209
 20
49.8602
 30
0.0
 11
58.7209
 21
55.6602
 31
0.0
  0
LINE
  8
0
 62
     0
 10
58.7209
 20
55.6602
 30
0.0
 11
59.5203
 21
55.6602
 31
0.0
  0
LINE
  8
0
 62
     0
 10
59.5203
 20
55.6602
 30
0.0
 11
59.5203
 21
58.7597
 31
0.0
  0
LINE
  8
0
 62
     0
 10
59.5203
 20
58.7597
 30
0.0
 11
58.7209
 21
58.7597
 31
0.0
  0
LINE
  8
0
 62
     0
 10
58.7209
 20
58.7597
 30
0.0
 11
58.7209
 21
59.7598
 31
0.0
  0
LINE
  8
0
 62
     0
 10
58.7209
 20
59.7598
 30
0.0
 11
44.7202
 21
59.7598
 31
0.0
  0
LINE
  8
0
 62
     0
 10
63.7702
 20
59.7598
 30
0.0
 11
63.7702
 21
58.7597
 31
0.0
  0
LINE
  8
0
 62
     0
 10
63.7702
 20
58.7597
 30
0.0
 11
62.9708
 21
58.7597
 31
0.0
  0
LINE
  8
0
 62
     0
 10
62.9708
 20
58.7597
 30
0.0
 11
62.9708
 21
55.6602
 31
0.0
  0
LINE
  8
0
 62
     0
 10
62.9708
 20
55.6602
 30
0.0
 11
63.7702
 21
55.6602
 31
0.0
  0
LINE
  8
0
 62
     0
 10
63.7702
 20
55.6602
 30
0.0
 11
63.7702
 21
49.8602
 31
0.0
  0
LINE
  8
0
 62
     0
 10
63.7702
 20
49.8602
 30
0.0
 11
62.9708
 21
49.8602
 31
0.0
  0
LINE
  8
0
 62
     0
 10
62.9708
 20
49.8602
 30
0.0
 11
62.9708
 21
46.7596
 31
0.0
  0
LINE
  8
0
 62
     0
 10
62.9708
 20
46.7596
 30
0.0
 11
63.7702
 21
46.7596
 31
0.0
  0
LINE
  8
0
 62
     0
 10
63.7702
 20
46.7596
 30
0.0
 11
63.7702
 21
45.7606
 31
0.0
  0
LINE
  8
0
 62
     0
 10
63.7702
 20
45.7606
 30
0.0
 11
77.7709
 21
45.7606
 31
0.0
  0
LINE
  8
0
 62
     0
 10
77.7709
 20
45.7606
 30
0.0
 11
77.7709
 21
46.7596
 31
0.0
  0
LINE
  8
0
 62
     0
 10
77.7709
 20
46.7596
 30
0.0
 11
78.5703
 21
46.7596
 31
0.0
  0
LINE
  8
0
 62
     0
 10
78.5703
 20
46.7596
 30
0.0
 11
78.5703
 21
49.8602
 31
0.0
  0
LINE
  8
0
 62
     0
 10
78.5703
 20
49.8602
 30
0.0
 11
77.7709
 21
49.8602
 31
0.0
  0
LINE
  8
0
 62
     0
 10
77.7709
 20
49.8602
 30
0.0
 11
77.7709
 21
55.6602
 31
0.0
  0
LINE
  8
0
 62
     0
 10
77.7709
 20
55.6602
 30
0.0
 11
78.5703
 21
55.6602
 31
0.0
  0
LINE
  8
0
 62
     0
 10
78.5703
 20
55.6602
 30
0.0
 11
78.5703
 21
58.7597
 31
0.0
  0
LINE
  8
0
 62
     0
 10
78.5703
 20
58.7597
 30
0.0
 11
77.7709
 21
58.7597
 31
0.0
  0
LINE
  8
0
 62
     0
 10
77.7709
 20
58.7597
 30
0.0
 11
77.7709
 21
59.7598
 31
0.0
  0
LINE
  8
0
 62
     0
 10
77.7709
 20
59.7598
 30
0.0
 11
63.7702
 21
59.7598
 31
0.0
  0
LINE
  8
0
 62
     0
 10
82.8202
 20
59.7598
 30
0.0
 11
82.8202
 21
58.7597
 31
0.0
  0
LINE
  8
0
 62
     0
 10
82.8202
 20
58.7597
 30
0.0
 11
82.0208
 21
58.7597
 31
0.0
  0
LINE
  8
0
 62
     0
 10
82.0208
 20
58.7597
 30
0.0
 11
82.0208
 21
55.6602
 31
0.0
  0
LINE
  8
0
 62
     0
 10
82.0208
 20
55.6602
 30
0.0
 11
82.8202
 21
55.6602
 31
0.0
  0
LINE
  8
0
 62
     0
 10
82.8202
 20
55.6602
 30
0.0
 11
82.8202
 21
49.8602
 31
0.0
  0
LINE
  8
0
 62
     0
 10
82.8202
 20
49.8602
 30
0.0
 11
82.0208
 21
49.8602
 31
0.0
  0
LINE
  8
0
 62
     0
 10
82.0208
 20
49.8602
 30
0.0
 11
82.0208
 21
46.7596
 31
0.0
  0
LINE
  8
0
 62
     0
 10
82.0208
 20
46.7596
 30
0.0
 11
82.8202
 21
46.7596
 31
0.0
  0
LINE
  8
0
 62
     0
 10
82.8202
 20
46.7596
 30
0.0
 11
82.8202
 21
45.7606
 31
0.0
  0
LINE
  8
0
 62
     0
 10
82.8202
 20
45.7606
 30
0.0
 11
96.8209
 21
45.7606
 31
0.0
  0
LINE
  8
0
 62
     0
 10
96.8209
 20
45.7606
 30
0.0
 11
96.8209
 21
46.7596
 31
0.0
  0
LINE
  8
0
 62
     0
 10
96.8209
 20
46.7596
 30
0.0
 11
97.6189
 21
46.7596
 31
0.0
  0
LINE
  8
0
 62
     0
 10
97.6189
 20
46.7596
 30
0.0
 11
97.6189
 21
49.8602
 31
0.0
  0
LINE
  8
0
 62
     0
 10
97.6189
 20
49.8602
 30
0.0
 11
96.8209
 21
49.8602
 31
0.0
  0
LINE
  8
0
 62
     0
 10
96.8209
 20
49.8602
 30
0.0
 11
96.8209
 21
55.6602
 31
0.0
  0
LINE
  8
0
 62
     0
 10
96.8209
 20
55.6602
 30
0.0
 11
97.6189
 21
55.6602
 31
0.0
  0
LINE
  8
0
 62
     0
 10
97.6189
 20
55.6602
 30
0.0
 11
97.6189
 21
58.7597
 31
0.0
  0
LINE
  8
0
 62
     0
 10
97.6189
 20
58.7597
 30
0.0
 11
96.8209
 21
58.7597
 31
0.0
  0
LINE
  8
0
 62
     0
 10
96.8209
 20
58.7597
 30
0.0
 11
96.8209
 21
59.7598
 31
0.0
  0
LINE
  8
0
 62
     0
 10
96.8209
 20
59.7598
 30
0.0
 11
82.8202
 21
59.7598
 31
0.0
  0
LINE
  8
0
 62
     0
 10
101.87
 20
59.7598
 30
0.0
 11
101.87
 21
58.7597
 31
0.0
  0
LINE
  8
0
 62
     0
 10
101.87
 20
58.7597
 30
0.0
 11
101.071
 21
58.7597
 31
0.0
  0
LINE
  8
0
 62
     0
 10
101.071
 20
58.7597
 30
0.0
 11
101.071
 21
55.6602
 31
0.0
  0
LINE
  8
0
 62
     0
 10
101.071
 20
55.6602
 30
0.0
 11
101.87
 21
55.6602
 31
0.0
  0
LINE
  8
0
 62
     0
 10
101.87
 20
55.6602
 30
0.0
 11
101.87
 21
49.8602
 31
0.0
  0
LINE
  8
0
 62
     0
 10
101.87
 20
49.8602
 30
0.0
 11
101.071
 21
49.8602
 31
0.0
  0
LINE
  8
0
 62
     0
 10
101.071
 20
49.8602
 30
0.0
 11
101.071
 21
46.7596
 31
0.0
  0
LINE
  8
0
 62
     0
 10
101.071
 20
46.7596
 30
0.0
 11
101.87
 21
46.7596
 31
0.0
  0
LINE
  8
0
 62
     0
 10
101.87
 20
46.7596
 30
0.0
 11
101.87
 21
45.7606
 31
0.0
  0
LINE
  8
0
 62
     0
 10
101.87
 20
45.7606
 30
0.0
 11
115.87
 21
45.7606
 31
0.0
  0
LINE
  8
0
 62
     0
 10
115.87
 20
45.7606
 30
0.0
 11
115.87
 21
46.7596
 31
0.0
  0
LINE
  8
0
 62
     0
 10
115.87
 20
46.7596
 30
0.0
 11
116.669
 21
46.7596
 31
0.0
  0
LINE
  8
0
 62
     0
 10
116.669
 20
46.7596
 30
0.0
 11
116.669
 21
49.8602
 31
0.0
  0
LINE
  8
0
 62
     0
 10
116.669
 20
49.8602
 30
0.0
 11
115.87
 21
49.8602
 31
0.0
  0
LINE
  8
0
 62
     0
 10
115.87
 20
49.8602
 30
0.0
 11
115.87
 21
55.6602
 31
0.0
  0
LINE
  8
0
 62
     0
 10
115.87
 20
55.6602
 30
0.0
 11
116.669
 21
55.6602
 31
0.0
  0
LINE
  8
0
 62
     0
 10
116.669
 20
55.6602
 30
0.0
 11
116.669
 21
58.7597
 31
0.0
  0
LINE
  8
0
 62
     0
 10
116.669
 20
58.7597
 30
0.0
 11
115.87
 21
58.7597
 31
0.0
  0
LINE
  8
0
 62
     0
 10
115.87
 20
58.7597
 30
0.0
 11
115.87
 21
59.7598
 31
0.0
  0
LINE
  8
0
 62
     0
 10
115.87
 20
59.7598
 30
0.0
 11
101.87
 21
59.7598
 31
0.0
  0
LINE
  8
0
 62
     0
 10
120.92
 20
59.7598
 30
0.0
 11
120.92
 21
58.7597
 31
0.0
  0
LINE
  8
0
 62
     0
 10
120.92
 20
58.7597
 30
0.0
 11
120.119
 21
58.7597
 31
0.0
  0
LINE
  8
0
 62
     0
 10
120.119
 20
58.7597
 30
0.0
 11
120.119
 21
55.6602
 31
0.0
  0
LINE
  8
0
 62
     0
 10
120.119
 20
55.6602
 30
0.0
 11
120.92
 21
55.6602
 31
0.0
  0
LINE
  8
0
 62
     0
 10
120.92
 20
55.6602
 30
0.0
 11
120.92
 21
49.8602
 31
0.0
  0
LINE
  8
0
 62
     0
 10
120.92
 20
49.8602
 30
0.0
 11
120.119
 21
49.8602
 31
0.0
  0
LINE
  8
0
 62
     0
 10
120.119
 20
49.8602
 30
0.0
 11
120.119
 21
46.7596
 31
0.0
  0
LINE
  8
0
 62
     0
 10
120.119
 20
46.7596
 30
0.0
 11
120.92
 21
46.7596
 31
0.0
  0
LINE
  8
0
 62
     0
 10
120.92
 20
46.7596
 30
0.0
 11
120.92
 21
45.7606
 31
0.0
  0
LINE
  8
0
 62
     0
 10
120.92
 20
45.7606
 30
0.0
 11
134.921
 21
45.7606
 31
0.0
  0
LINE
  8
0
 62
     0
 10
134.921
 20
45.7606
 30
0.0
 11
134.921
 21
46.7596
 31
0.0
  0
LINE
  8
0
 62
     0
 10
134.921
 20
46.7596
 30
0.0
 11
135.72
 21
46.7596
 31
0.0
  0
LINE
  8
0
 62
     0
 10
135.72
 20
46.7596
 30
0.0
 11
135.72
 21
49.8602
 31
0.0
  0
LINE
  8
0
 62
     0
 10
135.72
 20
49.8602
 30
0.0
 11
134.921
 21
49.8602
 31
0.0
  0
LINE
  8
0
 62
     0
 10
134.921
 20
49.8602
 30
0.0
 11
134.921
 21
55.6602
 31
0.0
  0
LINE
  8
0
 62
     0
 10
134.921
 20
55.6602
 30
0.0
 11
135.72
 21
55.6602
 31
0.0
  0
LINE
  8
0
 62
     0
 10
135.72
 20
55.6602
 30
0.0
 11
135.72
 21
58.7597
 31
0.0
  0
LINE
  8
0
 62
     0
 10
135.72
 20
58.7597
 30
0.0
 11
134.921
 21
58.7597
 31
0.0
  0
LINE
  8
0
 62
     0
 10
134.921
 20
58.7597
 30
0.0
 11
134.921
 21
59.7598
 31
0.0
  0
LINE
  8
0
 62
     0
 10
134.921
 20
59.7598
 30
0.0
 11
120.92
 21
59.7598
 31
0.0
  0
LINE
  8
0
 62
     0
 10
139.97
 20
59.7598
 30
0.0
 11
139.97
 21
58.7597
 31
0.0
  0
LINE
  8
0
 62
     0
 10
139.97
 20
58.7597
 30
0.0
 11
139.171
 21
58.7597
 31
0.0
  0
LINE
  8
0
 62
     0
 10
139.171
 20
58.7597
 30
0.0
 11
139.171
 21
55.6602
 31
0.0
  0
LINE
  8
0
 62
     0
 10
139.171
 20
55.6602
 30
0.0
 11
139.97
 21
55.6602
 31
0.0
  0
LINE
  8
0
 62
     0
 10
139.97
 20
55.6602
 30
0.0
 11
139.97
 21
49.8602
 31
0.0
  0
LINE
  8
0
 62
     0
 10
139.97
 20
49.8602
 30
0.0
 11
139.171
 21
49.8602
 31
0.0
  0
LINE
  8
0
 62
     0
 10
139.171
 20
49.8602
 30
0.0
 11
139.171
 21
46.7596
 31
0.0
  0
LINE
  8
0
 62
     0
 10
139.171
 20
46.7596
 30
0.0
 11
139.97
 21
46.7596
 31
0.0
  0
LINE
  8
0
 62
     0
 10
139.97
 20
46.7596
 30
0.0
 11
139.97
 21
45.7606
 31
0.0
  0
LINE
  8
0
 62
     0
 10
139.97
 20
45.7606
 30
0.0
 11
153.971
 21
45.7606
 31
0.0
  0
LINE
  8
0
 62
     0
 10
153.971
 20
45.7606
 30
0.0
 11
153.971
 21
46.7596
 31
0.0
  0
LINE
  8
0
 62
     0
 10
153.971
 20
46.7596
 30
0.0
 11
154.77
 21
46.7596
 31
0.0
  0
LINE
  8
0
 62
     0
 10
154.77
 20
46.7596
 30
0.0
 11
154.77
 21
49.8602
 31
0.0
  0
LINE
  8
0
 62
     0
 10
154.77
 20
49.8602
 30
0.0
 11
153.971
 21
49.8602
 31
0.0
  0
LINE
  8
0
 62
     0
 10
153.971
 20
49.8602
 30
0.0
 11
153.971
 21
55.6602
 31
0.0
  0
LINE
  8
0
 62
     0
 10
153.971
 20
55.6602
 30
0.0
 11
154.77
 21
55.6602
 31
0.0
  0
LINE
  8
0
 62
     0
 10
154.77
 20
55.6602
 30
0.0
 11
154.77
 21
58.7597
 31
0.0
  0
LINE
  8
0
 62
     0
 10
154.77
 20
58.7597
 30
0.0
 11
153.971
 21
58.7597
 31
0.0
  0
LINE
  8
0
 62
     0
 10
153.971
 20
58.7597
 30
0.0
 11
153.971
 21
59.7598
 31
0.0
  0
LINE
  8
0
 62
     0
 10
153.971
 20
59.7598
 30
0.0
 11
139.97
 21
59.7598
 31
0.0
  0
LINE
  8
0
 62
     0
 10
159.02
 20
59.7598
 30
0.0
 11
159.02
 21
58.7597
 31
0.0
  0
LINE
  8
0
 62
     0
 10
159.02
 20
58.7597
 30
0.0
 11
158.221
 21
58.7597
 31
0.0
  0
LINE
  8
0
 62
     0
 10
158.221
 20
58.7597
 30
0.0
 11
158.221
 21
55.6602
 31
0.0
  0
LINE
  8
0
 62
     0
 10
158.221
 20
55.6602
 30
0.0
 11
159.02
 21
55.6602
 31
0.0
  0
LINE
  8
0
 62
     0
 10
159.02
 20
55.6602
 30
0.0
 11
159.02
 21
49.8602
 31
0.0
  0
LINE
  8
0
 62
     0
 10
159.02
 20
49.8602
 30
0.0
 11
158.221
 21
49.8602
 31
0.0
  0
LINE
  8
0
 62
     0
 10
158.221
 20
49.8602
 30
0.0
 11
158.221
 21
46.7596
 31
0.0
  0
LINE
  8
0
 62
     0
 10
158.221
 20
46.7596
 30
0.0
 11
159.02
 21
46.7596
 31
0.0
  0
LINE
  8
0
 62
     0
 10
159.02
 20
46.7596
 30
0.0
 11
159.02
 21
45.7606
 31
0.0
  0
LINE
  8
0
 62
     0
 10
159.02
 20
45.7606
 30
0.0
 11
173.021
 21
45.7606
 31
0.0
  0
LINE
  8
0
 62
     0
 10
173.021
 20
45.7606
 30
0.0
 11
173.021
 21
46.7596
 31
0.0
  0
LINE
  8
0
 62
     0
 10
173.021
 20
46.7596
 30
0.0
 11
173.82
 21
46.7596
 31
0.0
  0
LINE
  8
0
 62
     0
 10
173.82
 20
46.7596
 30
0.0
 11
173.82
 21
49.8602
 31
0.0
  0
LINE
  8
0
 62
     0
 10
173.82
 20
49.8602
 30
0.0
 11
173.021
 21
49.8602
 31
0.0
  0
LINE
  8
0
 62
     0
 10
173.021
 20
49.8602
 30
0.0
 11
173.021
 21
55.6602
 31
0.0
  0
LINE
  8
0
 62
     0
 10
173.021
 20
55.6602
 30
0.0
 11
173.82
 21
55.6602
 31
0.0
  0
LINE
  8
0
 62
     0
 10
173.82
 20
55.6602
 30
0.0
 11
173.82
 21
58.7597
 31
0.0
  0
LINE
  8
0
 62
     0
 10
173.82
 20
58.7597
 30
0.0
 11
173.021
 21
58.7597
 31
0.0
  0
LINE
  8
0
 62
     0
 10
173.021
 20
58.7597
 30
0.0
 11
173.021
 21
59.7598
 31
0.0
  0
LINE
  8
0
 62
     0
 10
173.021
 20
59.7598
 30
0.0
 11
159.02
 21
59.7598
 31
0.0
  0
LINE
  8
0
 62
     0
 10
178.07
 20
59.7598
 30
0.0
 11
178.07
 21
58.7597
 31
0.0
  0
LINE
  8
0
 62
     0
 10
178.07
 20
58.7597
 30
0.0
 11
177.271
 21
58.7597
 31
0.0
  0
LINE
  8
0
 62
     0
 10
177.271
 20
58.7597
 30
0.0
 11
177.271
 21
55.6602
 31
0.0
  0
LINE
  8
0
 62
     0
 10
177.271
 20
55.6602
 30
0.0
 11
178.07
 21
55.6602
 31
0.0
  0
LINE
  8
0
 62
     0
 10
178.07
 20
55.6602
 30
0.0
 11
178.07
 21
49.8602
 31
0.0
  0
LINE
  8
0
 62
     0
 10
178.07
 20
49.8602
 30
0.0
 11
177.271
 21
49.8602
 31
0.0
  0
LINE
  8
0
 62
     0
 10
177.271
 20
49.8602
 30
0.0
 11
177.271
 21
46.7596
 31
0.0
  0
LINE
  8
0
 62
     0
 10
177.271
 20
46.7596
 30
0.0
 11
178.07
 21
46.7596
 31
0.0
  0
LINE
  8
0
 62
     0
 10
178.07
 20
46.7596
 30
0.0
 11
178.07
 21
45.7606
 31
0.0
  0
LINE
  8
0
 62
     0
 10
178.07
 20
45.7606
 30
0.0
 11
192.071
 21
45.7606
 31
0.0
  0
LINE
  8
0
 62
     0
 10
192.071
 20
45.7606
 30
0.0
 11
192.071
 21
46.7596
 31
0.0
  0
LINE
  8
0
 62
     0
 10
192.071
 20
46.7596
 30
0.0
 11
192.87
 21
46.7596
 31
0.0
  0
LINE
  8
0
 62
     0
 10
192.87
 20
46.7596
 30
0.0
 11
192.87
 21
49.8602
 31
0.0
  0
LINE
  8
0
 62
     0
 10
192.87
 20
49.8602
 30
0.0
 11
192.071
 21
49.8602
 31
0.0
  0
LINE
  8
0
 62
     0
 10
192.071
 20
49.8602
 30
0.0
 11
192.071
 21
55.6602
 31
0.0
  0
LINE
  8
0
 62
     0
 10
192.071
 20
55.6602
 30
0.0
 11
192.87
 21
55.6602
 31
0.0
  0
LINE
  8
0
 62
     0
 10
192.87
 20
55.6602
 30
0.0
 11
192.87
 21
58.7597
 31
0.0
  0
LINE
  8
0
 62
     0
 10
192.87
 20
58.7597
 30
0.0
 11
192.071
 21
58.7597
 31
0.0
  0
LINE
  8
0
 62
     0
 10
192.071
 20
58.7597
 30
0.0
 11
192.071
 21
59.7598
 31
0.0
  0
LINE
  8
0
 62
     0
 10
192.071
 20
59.7598
 30
0.0
 11
178.07
 21
59.7598
 31
0.0
  0
LINE
  8
0
 62
     0
 10
197.12
 20
59.7598
 30
0.0
 11
197.12
 21
58.7597
 31
0.0
  0
LINE
  8
0
 62
     0
 10
197.12
 20
58.7597
 30
0.0
 11
196.321
 21
58.7597
 31
0.0
  0
LINE
  8
0
 62
     0
 10
196.321
 20
58.7597
 30
0.0
 11
196.321
 21
55.6602
 31
0.0
  0
LINE
  8
0
 62
     0
 10
196.321
 20
55.6602
 30
0.0
 11
197.12
 21
55.6602
 31
0.0
  0
LINE
  8
0
 62
     0
 10
197.12
 20
55.6602
 30
0.0
 11
197.12
 21
49.8602
 31
0.0
  0
LINE
  8
0
 62
     0
 10
197.12
 20
49.8602
 30
0.0
 11
196.321
 21
49.8602
 31
0.0
  0
LINE
  8
0
 62
     0
 10
196.321
 20
49.8602
 30
0.0
 11
196.321
 21
46.7596
 31
0.0
  0
LINE
  8
0
 62
     0
 10
196.321
 20
46.7596
 30
0.0
 11
197.12
 21
46.7596
 31
0.0
  0
LINE
  8
0
 62
     0
 10
197.12
 20
46.7596
 30
0.0
 11
197.12
 21
45.7606
 31
0.0
  0
LINE
  8
0
 62
     0
 10
197.12
 20
45.7606
 30
0.0
 11
211.121
 21
45.7606
 31
0.0
  0
LINE
  8
0
 62
     0
 10
211.121
 20
45.7606
 30
0.0
 11
211.121
 21
46.7596
 31
0.0
  0
LINE
  8
0
 62
     0
 10
211.121
 20
46.7596
 30
0.0
 11
211.92
 21
46.7596
 31
0.0
  0
LINE
  8
0
 62
     0
 10
211.92
 20
46.7596
 30
0.0
 11
211.92
 21
49.8602
 31
0.0
  0
LINE
  8
0
 62
     0
 10
211.92
 20
49.8602
 30
0.0
 11
211.121
 21
49.8602
 31
0.0
  0
LINE
  8
0
 62
     0
 10
211.121
 20
49.8602
 30
0.0
 11
211.121
 21
55.6602
 31
0.0
  0
LINE
  8
0
 62
     0
 10
211.121
 20
55.6602
 30
0.0
 11
211.92
 21
55.6602
 31
0.0
  0
LINE
  8
0
 62
     0
 10
211.92
 20
55.6602
 30
0.0
 11
211.92
 21
58.7597
 31
0.0
  0
LINE
  8
0
 62
     0
 10
211.92
 20
58.7597
 30
0.0
 11
211.121
 21
58.7597
 31
0.0
  0
LINE
  8
0
 62
     0
 10
211.121
 20
58.7597
 30
0.0
 11
211.121
 21
59.7598
 31
0.0
  0
LINE
  8
0
 62
     0
 10
211.121
 20
59.7598
 30
0.0
 11
197.12
 21
59.7598
 31
0.0
  0
LINE
  8
0
 62
     0
 10
6.62009
 20
78.8098
 30
0.0
 11
6.62009
 21
77.8097
 31
0.0
  0
LINE
  8
0
 62
     0
 10
6.62009
 20
77.8097
 30
0.0
 11
5.81946
 21
77.8097
 31
0.0
  0
LINE
  8
0
 62
     0
 10
5.81946
 20
77.8097
 30
0.0
 11
5.81946
 21
74.7102
 31
0.0
  0
LINE
  8
0
 62
     0
 10
5.81946
 20
74.7102
 30
0.0
 11
6.62009
 21
74.7102
 31
0.0
  0
LINE
  8
0
 62
     0
 10
6.62009
 20
74.7102
 30
0.0
 11
6.62009
 21
68.9102
 31
0.0
  0
LINE
  8
0
 62
     0
 10
6.62009
 20
68.9102
 30
0.0
 11
5.81946
 21
68.9102
 31
0.0
  0
LINE
  8
0
 62
     0
 10
5.81946
 20
68.9102
 30
0.0
 11
5.81946
 21
65.8096
 31
0.0
  0
LINE
  8
0
 62
     0
 10
5.81946
 20
65.8096
 30
0.0
 11
6.62009
 21
65.8096
 31
0.0
  0
LINE
  8
0
 62
     0
 10
6.62009
 20
65.8096
 30
0.0
 11
6.62009
 21
64.8106
 31
0.0
  0
LINE
  8
0
 62
     0
 10
6.62009
 20
64.8106
 30
0.0
 11
20.621
 21
64.8106
 31
0.0
  0
LINE
  8
0
 62
     0
 10
20.621
 20
64.8106
 30
0.0
 11
20.621
 21
65.8096
 31
0.0
  0
LINE
  8
0
 62
     0
 10
20.621
 20
65.8096
 30
0.0
 11
21.4202
 21
65.8096
 31
0.0
  0
LINE
  8
0
 62
     0
 10
21.4202
 20
65.8096
 30
0.0
 11
21.4202
 21
68.9102
 31
0.0
  0
LINE
  8
0
 62
     0
 10
21.4202
 20
68.9102
 30
0.0
 11
20.621
 21
68.9102
 31
0.0
  0
LINE
  8
0
 62
     0
 10
20.621
 20
68.9102
 30
0.0
 11
20.621
 21
74.7102
 31
0.0
  0
LINE
  8
0
 62
     0
 10
20.621
 20
74.7102
 30
0.0
 11
21.4202
 21
74.7102
 31
0.0
  0
LINE
  8
0
 62
     0
 10
21.4202
 20
74.7102
 30
0.0
 11
21.4202
 21
77.8097
 31
0.0
  0
LINE
  8
0
 62
     0
 10
21.4202
 20
77.8097
 30
0.0
 11
20.621
 21
77.8097
 31
0.0
  0
LINE
  8
0
 62
     0
 10
20.621
 20
77.8097
 30
0.0
 11
20.621
 21
78.8098
 31
0.0
  0
LINE
  8
0
 62
     0
 10
20.621
 20
78.8098
 30
0.0
 11
6.62009
 21
78.8098
 31
0.0
  0
LINE
  8
0
 62
     0
 10
25.6701
 20
78.8098
 30
0.0
 11
25.6701
 21
77.8097
 31
0.0
  0
LINE
  8
0
 62
     0
 10
25.6701
 20
77.8097
 30
0.0
 11
24.8708
 21
77.8097
 31
0.0
  0
LINE
  8
0
 62
     0
 10
24.8708
 20
77.8097
 30
0.0
 11
24.8708
 21
74.7102
 31
0.0
  0
LINE
  8
0
 62
     0
 10
24.8708
 20
74.7102
 30
0.0
 11
25.6701
 21
74.7102
 31
0.0
  0
LINE
  8
0
 62
     0
 10
25.6701
 20
74.7102
 30
0.0
 11
25.6701
 21
68.9102
 31
0.0
  0
LINE
  8
0
 62
     0
 10
25.6701
 20
68.9102
 30
0.0
 11
24.8708
 21
68.9102
 31
0.0
  0
LINE
  8
0
 62
     0
 10
24.8708
 20
68.9102
 30
0.0
 11
24.8708
 21
65.8096
 31
0.0
  0
LINE
  8
0
 62
     0
 10
24.8708
 20
65.8096
 30
0.0
 11
25.6701
 21
65.8096
 31
0.0
  0
LINE
  8
0
 62
     0
 10
25.6701
 20
65.8096
 30
0.0
 11
25.6701
 21
64.8106
 31
0.0
  0
LINE
  8
0
 62
     0
 10
25.6701
 20
64.8106
 30
0.0
 11
39.6709
 21
64.8106
 31
0.0
  0
LINE
  8
0
 62
     0
 10
39.6709
 20
64.8106
 30
0.0
 11
39.6709
 21
65.8096
 31
0.0
  0
LINE
  8
0
 62
     0
 10
39.6709
 20
65.8096
 30
0.0
 11
40.4703
 21
65.8096
 31
0.0
  0
LINE
  8
0
 62
     0
 10
40.4703
 20
65.8096
 30
0.0
 11
40.4703
 21
68.9102
 31
0.0
  0
LINE
  8
0
 62
     0
 10
40.4703
 20
68.9102
 30
0.0
 11
39.6709
 21
68.9102
 31
0.0
  0
LINE
  8
0
 62
     0
 10
39.6709
 20
68.9102
 30
0.0
 11
39.6709
 21
74.7102
 31
0.0
  0
LINE
  8
0
 62
     0
 10
39.6709
 20
74.7102
 30
0.0
 11
40.4703
 21
74.7102
 31
0.0
  0
LINE
  8
0
 62
     0
 10
40.4703
 20
74.7102
 30
0.0
 11
40.4703
 21
77.8097
 31
0.0
  0
LINE
  8
0
 62
     0
 10
40.4703
 20
77.8097
 30
0.0
 11
39.6709
 21
77.8097
 31
0.0
  0
LINE
  8
0
 62
     0
 10
39.6709
 20
77.8097
 30
0.0
 11
39.6709
 21
78.8098
 31
0.0
  0
LINE
  8
0
 62
     0
 10
39.6709
 20
78.8098
 30
0.0
 11
25.6701
 21
78.8098
 31
0.0
  0
LINE
  8
0
 62
     0
 10
44.7202
 20
78.8098
 30
0.0
 11
44.7202
 21
77.8097
 31
0.0
  0
LINE
  8
0
 62
     0
 10
44.7202
 20
77.8097
 30
0.0
 11
43.9208
 21
77.8097
 31
0.0
  0
LINE
  8
0
 62
     0
 10
43.9208
 20
77.8097
 30
0.0
 11
43.9208
 21
74.7102
 31
0.0
  0
LINE
  8
0
 62
     0
 10
43.9208
 20
74.7102
 30
0.0
 11
44.7202
 21
74.7102
 31
0.0
  0
LINE
  8
0
 62
     0
 10
44.7202
 20
74.7102
 30
0.0
 11
44.7202
 21
68.9102
 31
0.0
  0
LINE
  8
0
 62
     0
 10
44.7202
 20
68.9102
 30
0.0
 11
43.9208
 21
68.9102
 31
0.0
  0
LINE
  8
0
 62
     0
 10
43.9208
 20
68.9102
 30
0.0
 11
43.9208
 21
65.8096
 31
0.0
  0
LINE
  8
0
 62
     0
 10
43.9208
 20
65.8096
 30
0.0
 11
44.7202
 21
65.8096
 31
0.0
  0
LINE
  8
0
 62
     0
 10
44.7202
 20
65.8096
 30
0.0
 11
44.7202
 21
64.8106
 31
0.0
  0
LINE
  8
0
 62
     0
 10
44.7202
 20
64.8106
 30
0.0
 11
58.7209
 21
64.8106
 31
0.0
  0
LINE
  8
0
 62
     0
 10
58.7209
 20
64.8106
 30
0.0
 11
58.7209
 21
65.8096
 31
0.0
  0
LINE
  8
0
 62
     0
 10
58.7209
 20
65.8096
 30
0.0
 11
59.5203
 21
65.8096
 31
0.0
  0
LINE
  8
0
 62
     0
 10
59.5203
 20
65.8096
 30
0.0
 11
59.5203
 21
68.9102
 31
0.0
  0
LINE
  8
0
 62
     0
 10
59.5203
 20
68.9102
 30
0.0
 11
58.7209
 21
68.9102
 31
0.0
  0
LINE
  8
0
 62
     0
 10
58.7209
 20
68.9102
 30
0.0
 11
58.7209
 21
74.7102
 31
0.0
  0
LINE
  8
0
 62
     0
 10
58.7209
 20
74.7102
 30
0.0
 11
59.5203
 21
74.7102
 31
0.0
  0
LINE
  8
0
 62
     0
 10
59.5203
 20
74.7102
 30
0.0
 11
59.5203
 21
77.8097
 31
0.0
  0
LINE
  8
0
 62
     0
 10
59.5203
 20
77.8097
 30
0.0
 11
58.7209
 21
77.8097
 31
0.0
  0
LINE
  8
0
 62
     0
 10
58.7209
 20
77.8097
 30
0.0
 11
58.7209
 21
78.8098
 31
0.0
  0
LINE
  8
0
 62
     0
 10
58.7209
 20
78.8098
 30
0.0
 11
44.7202
 21
78.8098
 31
0.0
  0
LINE
  8
0
 62
     0
 10
63.7702
 20
78.8098
 30
0.0
 11
63.7702
 21
77.8097
 31
0.0
  0
LINE
  8
0
 62
     0
 10
63.7702
 20
77.8097
 30
0.0
 11
62.9708
 21
77.8097
 31
0.0
  0
LINE
  8
0
 62
     0
 10
62.9708
 20
77.8097
 30
0.0
 11
62.9708
 21
74.7102
 31
0.0
  0
LINE
  8
0
 62
     0
 10
62.9708
 20
74.7102
 30
0.0
 11
63.7702
 21
74.7102
 31
0.0
  0
LINE
  8
0
 62
     0
 10
63.7702
 20
74.7102
 30
0.0
 11
63.7702
 21
68.9102
 31
0.0
  0
LINE
  8
0
 62
     0
 10
63.7702
 20
68.9102
 30
0.0
 11
62.9708
 21
68.9102
 31
0.0
  0
LINE
  8
0
 62
     0
 10
62.9708
 20
68.9102
 30
0.0
 11
62.9708
 21
65.8096
 31
0.0
  0
LINE
  8
0
 62
     0
 10
62.9708
 20
65.8096
 30
0.0
 11
63.7702
 21
65.8096
 31
0.0
  0
LINE
  8
0
 62
     0
 10
63.7702
 20
65.8096
 30
0.0
 11
63.7702
 21
64.8106
 31
0.0
  0
LINE
  8
0
 62
     0
 10
63.7702
 20
64.8106
 30
0.0
 11
77.7709
 21
64.8106
 31
0.0
  0
LINE
  8
0
 62
     0
 10
77.7709
 20
64.8106
 30
0.0
 11
77.7709
 21
65.8096
 31
0.0
  0
LINE
  8
0
 62
     0
 10
77.7709
 20
65.8096
 30
0.0
 11
78.5703
 21
65.8096
 31
0.0
  0
LINE
  8
0
 62
     0
 10
78.5703
 20
65.8096
 30
0.0
 11
78.5703
 21
68.9102
 31
0.0
  0
LINE
  8
0
 62
     0
 10
78.5703
 20
68.9102
 30
0.0
 11
77.7709
 21
68.9102
 31
0.0
  0
LINE
  8
0
 62
     0
 10
77.7709
 20
68.9102
 30
0.0
 11
77.7709
 21
74.7102
 31
0.0
  0
LINE
  8
0
 62
     0
 10
77.7709
 20
74.7102
 30
0.0
 11
78.5703
 21
74.7102
 31
0.0
  0
LINE
  8
0
 62
     0
 10
78.5703
 20
74.7102
 30
0.0
 11
78.5703
 21
77.8097
 31
0.0
  0
LINE
  8
0
 62
     0
 10
78.5703
 20
77.8097
 30
0.0
 11
77.7709
 21
77.8097
 31
0.0
  0
LINE
  8
0
 62
     0
 10
77.7709
 20
77.8097
 30
0.0
 11
77.7709
 21
78.8098
 31
0.0
  0
LINE
  8
0
 62
     0
 10
77.7709
 20
78.8098
 30
0.0
 11
63.7702
 21
78.8098
 31
0.0
  0
LINE
  8
0
 62
     0
 10
139.97
 20
78.8098
 30
0.0
 11
139.97
 21
77.8097
 31
0.0
  0
LINE
  8
0
 62
     0
 10
139.97
 20
77.8097
 30
0.0
 11
139.171
 21
77.8097
 31
0.0
  0
LINE
  8
0
 62
     0
 10
139.171
 20
77.8097
 30
0.0
 11
139.171
 21
74.7102
 31
0.0
  0
LINE
  8
0
 62
     0
 10
139.171
 20
74.7102
 30
0.0
 11
139.97
 21
74.7102
 31
0.0
  0
LINE
  8
0
 62
     0
 10
139.97
 20
74.7102
 30
0.0
 11
139.97
 21
68.9102
 31
0.0
  0
LINE
  8
0
 62
     0
 10
139.97
 20
68.9102
 30
0.0
 11
139.171
 21
68.9102
 31
0.0
  0
LINE
  8
0
 62
     0
 10
139.171
 20
68.9102
 30
0.0
 11
139.171
 21
65.8096
 31
0.0
  0
LINE
  8
0
 62
     0
 10
139.171
 20
65.8096
 30
0.0
 11
139.97
 21
65.8096
 31
0.0
  0
LINE
  8
0
 62
     0
 10
139.97
 20
65.8096
 30
0.0
 11
139.97
 21
64.8106
 31
0.0
  0
LINE
  8
0
 62
     0
 10
139.97
 20
64.8106
 30
0.0
 11
153.971
 21
64.8106
 31
0.0
  0
LINE
  8
0
 62
     0
 10
153.971
 20
64.8106
 30
0.0
 11
153.971
 21
65.8096
 31
0.0
  0
LINE
  8
0
 62
     0
 10
153.971
 20
65.8096
 30
0.0
 11
154.77
 21
65.8096
 31
0.0
  0
LINE
  8
0
 62
     0
 10
154.77
 20
65.8096
 30
0.0
 11
154.77
 21
68.9102
 31
0.0
  0
LINE
  8
0
 62
     0
 10
154.77
 20
68.9102
 30
0.0
 11
153.971
 21
68.9102
 31
0.0
  0
LINE
  8
0
 62
     0
 10
153.971
 20
68.9102
 30
0.0
 11
153.971
 21
74.7102
 31
0.0
  0
LINE
  8
0
 62
     0
 10
153.971
 20
74.7102
 30
0.0
 11
154.77
 21
74.7102
 31
0.0
  0
LINE
  8
0
 62
     0
 10
154.77
 20
74.7102
 30
0.0
 11
154.77
 21
77.8097
 31
0.0
  0
LINE
  8
0
 62
     0
 10
154.77
 20
77.8097
 30
0.0
 11
153.971
 21
77.8097
 31
0.0
  0
LINE
  8
0
 62
     0
 10
153.971
 20
77.8097
 30
0.0
 11
153.971
 21
78.8098
 31
0.0
  0
LINE
  8
0
 62
     0
 10
153.971
 20
78.8098
 30
0.0
 11
139.97
 21
78.8098
 31
0.0
  0
LINE
  8
0
 62
     0
 10
159.02
 20
78.8098
 30
0.0
 11
159.02
 21
77.8097
 31
0.0
  0
LINE
  8
0
 62
     0
 10
159.02
 20
77.8097
 30
0.0
 11
158.221
 21
77.8097
 31
0.0
  0
LINE
  8
0
 62
     0
 10
158.221
 20
77.8097
 30
0.0
 11
158.221
 21
74.7102
 31
0.0
  0
LINE
  8
0
 62
     0
 10
158.221
 20
74.7102
 30
0.0
 11
159.02
 21
74.7102
 31
0.0
  0
LINE
  8
0
 62
     0
 10
159.02
 20
74.7102
 30
0.0
 11
159.02
 21
68.9102
 31
0.0
  0
LINE
  8
0
 62
     0
 10
159.02
 20
68.9102
 30
0.0
 11
158.221
 21
68.9102
 31
0.0
  0
LINE
  8
0
 62
     0
 10
158.221
 20
68.9102
 30
0.0
 11
158.221
 21
65.8096
 31
0.0
  0
LINE
  8
0
 62
     0
 10
158.221
 20
65.8096
 30
0.0
 11
159.02
 21
65.8096
 31
0.0
  0
LINE
  8
0
 62
     0
 10
159.02
 20
65.8096
 30
0.0
 11
159.02
 21
64.8106
 31
0.0
  0
LINE
  8
0
 62
     0
 10
159.02
 20
64.8106
 30
0.0
 11
173.021
 21
64.8106
 31
0.0
  0
LINE
  8
0
 62
     0
 10
173.021
 20
64.8106
 30
0.0
 11
173.021
 21
65.8096
 31
0.0
  0
LINE
  8
0
 62
     0
 10
173.021
 20
65.8096
 30
0.0
 11
173.82
 21
65.8096
 31
0.0
  0
LINE
  8
0
 62
     0
 10
173.82
 20
65.8096
 30
0.0
 11
173.82
 21
68.9102
 31
0.0
  0
LINE
  8
0
 62
     0
 10
173.82
 20
68.9102
 30
0.0
 11
173.021
 21
68.9102
 31
0.0
  0
LINE
  8
0
 62
     0
 10
173.021
 20
68.9102
 30
0.0
 11
173.021
 21
74.7102
 31
0.0
  0
LINE
  8
0
 62
     0
 10
173.021
 20
74.7102
 30
0.0
 11
173.82
 21
74.7102
 31
0.0
  0
LINE
  8
0
 62
     0
 10
173.82
 20
74.7102
 30
0.0
 11
173.82
 21
77.8097
 31
0.0
  0
LINE
  8
0
 62
     0
 10
173.82
 20
77.8097
 30
0.0
 11
173.021
 21
77.8097
 31
0.0
  0
LINE
  8
0
 62
     0
 10
173.021
 20
77.8097
 30
0.0
 11
173.021
 21
78.8098
 31
0.0
  0
LINE
  8
0
 62
     0
 10
173.021
 20
78.8098
 30
0.0
 11
159.02
 21
78.8098
 31
0.0
  0
LINE
  8
0
 62
     0
 10
178.07
 20
78.8098
 30
0.0
 11
178.07
 21
77.8097
 31
0.0
  0
LINE
  8
0
 62
     0
 10
178.07
 20
77.8097
 30
0.0
 11
177.271
 21
77.8097
 31
0.0
  0
LINE
  8
0
 62
     0
 10
177.271
 20
77.8097
 30
0.0
 11
177.271
 21
74.7102
 31
0.0
  0
LINE
  8
0
 62
     0
 10
177.271
 20
74.7102
 30
0.0
 11
178.07
 21
74.7102
 31
0.0
  0
LINE
  8
0
 62
     0
 10
178.07
 20
74.7102
 30
0.0
 11
178.07
 21
68.9102
 31
0.0
  0
LINE
  8
0
 62
     0
 10
178.07
 20
68.9102
 30
0.0
 11
177.271
 21
68.9102
 31
0.0
  0
LINE
  8
0
 62
     0
 10
177.271
 20
68.9102
 30
0.0
 11
177.271
 21
65.8096
 31
0.0
  0
LINE
  8
0
 62
     0
 10
177.271
 20
65.8096
 30
0.0
 11
178.07
 21
65.8096
 31
0.0
  0
LINE
  8
0
 62
     0
 10
178.07
 20
65.8096
 30
0.0
 11
178.07
 21
64.8106
 31
0.0
  0
LINE
  8
0
 62
     0
 10
178.07
 20
64.8106
 30
0.0
 11
192.071
 21
64.8106
 31
0.0
  0
LINE
  8
0
 62
     0
 10
192.071
 20
64.8106
 30
0.0
 11
192.071
 21
65.8096
 31
0.0
  0
LINE
  8
0
 62
     0
 10
192.071
 20
65.8096
 30
0.0
 11
192.87
 21
65.8096
 31
0.0
  0
LINE
  8
0
 62
     0
 10
192.87
 20
65.8096
 30
0.0
 11
192.87
 21
68.9102
 31
0.0
  0
LINE
  8
0
 62
     0
 10
192.87
 20
68.9102
 30
0.0
 11
192.071
 21
68.9102
 31
0.0
  0
LINE
  8
0
 62
     0
 10
192.071
 20
68.9102
 30
0.0
 11
192.071
 21
74.7102
 31
0.0
  0
LINE
  8
0
 62
     0
 10
192.071
 20
74.7102
 30
0.0
 11
192.87
 21
74.7102
 31
0.0
  0
LINE
  8
0
 62
     0
 10
192.87
 20
74.7102
 30
0.0
 11
192.87
 21
77.8097
 31
0.0
  0
LINE
  8
0
 62
     0
 10
192.87
 20
77.8097
 30
0.0
 11
192.071
 21
77.8097
 31
0.0
  0
LINE
  8
0
 62
     0
 10
192.071
 20
77.8097
 30
0.0
 11
192.071
 21
78.8098
 31
0.0
  0
LINE
  8
0
 62
     0
 10
192.071
 20
78.8098
 30
0.0
 11
178.07
 21
78.8098
 31
0.0
  0
LINE
  8
0
 62
     0
 10
197.12
 20
78.8098
 30
0.0
 11
197.12
 21
77.8097
 31
0.0
  0
LINE
  8
0
 62
     0
 10
197.12
 20
77.8097
 30
0.0
 11
196.321
 21
77.8097
 31
0.0
  0
LINE
  8
0
 62
     0
 10
196.321
 20
77.8097
 30
0.0
 11
196.321
 21
74.7102
 31
0.0
  0
LINE
  8
0
 62
     0
 10
196.321
 20
74.7102
 30
0.0
 11
197.12
 21
74.7102
 31
0.0
  0
LINE
  8
0
 62
     0
 10
197.12
 20
74.7102
 30
0.0
 11
197.12
 21
68.9102
 31
0.0
  0
LINE
  8
0
 62
     0
 10
197.12
 20
68.9102
 30
0.0
 11
196.321
 21
68.9102
 31
0.0
  0
LINE
  8
0
 62
     0
 10
196.321
 20
68.9102
 30
0.0
 11
196.321
 21
65.8096
 31
0.0
  0
LINE
  8
0
 62
     0
 10
196.321
 20
65.8096
 30
0.0
 11
197.12
 21
65.8096
 31
0.0
  0
LINE
  8
0
 62
     0
 10
197.12
 20
65.8096
 30
0.0
 11
197.12
 21
64.8106
 31
0.0
  0
LINE
  8
0
 62
     0
 10
197.12
 20
64.8106
 30
0.0
 11
211.121
 21
64.8106
 31
0.0
  0
LINE
  8
0
 62
     0
 10
211.121
 20
64.8106
 30
0.0
 11
211.121
 21
65.8096
 31
0.0
  0
LINE
  8
0
 62
     0
 10
211.121
 20
65.8096
 30
0.0
 11
211.92
 21
65.8096
 31
0.0
  0
LINE
  8
0
 62
     0
 10
211.92
 20
65.8096
 30
0.0
 11
211.92
 21
68.9102
 31
0.0
  0
LINE
  8
0
 62
     0
 10
211.92
 20
68.9102
 30
0.0
 11
211.121
 21
68.9102
 31
0.0
  0
LINE
  8
0
 62
     0
 10
211.121
 20
68.9102
 30
0.0
 11
211.121
 21
74.7102
 31
0.0
  0
LINE
  8
0
 62
     0
 10
211.121
 20
74.7102
 30
0.0
 11
211.92
 21
74.7102
 31
0.0
  0
LINE
  8
0
 62
     0
 10
211.92
 20
74.7102
 30
0.0
 11
211.92
 21
77.8097
 31
0.0
  0
LINE
  8
0
 62
     0
 10
211.92
 20
77.8097
 30
0.0
 11
211.121
 21
77.8097
 31
0.0
  0
LINE
  8
0
 62
     0
 10
211.121
 20
77.8097
 30
0.0
 11
211.121
 21
78.8098
 31
0.0
  0
LINE
  8
0
 62
     0
 10
211.121
 20
78.8098
 30
0.0
 11
197.12
 21
78.8098
 31
0.0
  0
LINE
  8
0
 62
     0
 10
125.039
 20
97.4355
 30
0.0
 11
125.039
 21
96.6114
 31
0.0
  0
LINE
  8
0
 62
     0
 10
125.039
 20
96.6114
 30
0.0
 11
118.769
 21
96.6114
 31
0.0
  0
LINE
  8
0
 62
     0
 10
118.769
 20
96.6114
 30
0.0
 11
118.769
 21
94.8863
 31
0.0
  0
LINE
  8
0
 62
     0
 10
118.769
 20
94.8863
 30
0.0
 11
117.569
 21
94.8863
 31
0.0
  0
LINE
  8
0
 62
     0
 10
117.569
 20
94.8863
 30
0.0
 11
117.569
 21
91.5857
 31
0.0
  0
LINE
  8
0
 62
     0
 10
117.569
 20
91.5857
 30
0.0
 11
118.769
 21
91.5857
 31
0.0
  0
LINE
  8
0
 62
     0
 10
118.769
 20
91.5857
 30
0.0
 11
118.769
 21
89.8606
 31
0.0
  0
LINE
  8
0
 62
     0
 10
118.769
 20
89.8606
 30
0.0
 11
123.238
 21
89.8606
 31
0.0
  0
LINE
  8
0
 62
     0
 10
123.238
 20
89.8606
 30
0.0
 11
123.238
 21
88.3363
 31
0.0
  0
LINE
  8
0
 62
     0
 10
123.238
 20
88.3363
 30
0.0
 11
122.639
 21
88.3363
 31
0.0
  0
LINE
  8
0
 62
     0
 10
122.639
 20
88.3363
 30
0.0
 11
122.639
 21
89.1357
 31
0.0
  0
LINE
  8
0
 62
     0
 10
122.639
 20
89.1357
 30
0.0
 11
119.538
 21
89.1357
 31
0.0
  0
LINE
  8
0
 62
     0
 10
119.538
 20
89.1357
 30
0.0
 11
119.538
 21
88.3363
 31
0.0
  0
LINE
  8
0
 62
     0
 10
119.538
 20
88.3363
 30
0.0
 11
118.539
 21
88.3363
 31
0.0
  0
LINE
  8
0
 62
     0
 10
118.539
 20
88.3363
 30
0.0
 11
118.539
 21
74.3356
 31
0.0
  0
LINE
  8
0
 62
     0
 10
118.539
 20
74.3356
 30
0.0
 11
119.538
 21
74.3356
 31
0.0
  0
LINE
  8
0
 62
     0
 10
119.538
 20
74.3356
 30
0.0
 11
119.538
 21
73.5362
 31
0.0
  0
LINE
  8
0
 62
     0
 10
119.538
 20
73.5362
 30
0.0
 11
122.639
 21
73.5362
 31
0.0
  0
LINE
  8
0
 62
     0
 10
122.639
 20
73.5362
 30
0.0
 11
122.639
 21
74.3356
 31
0.0
  0
LINE
  8
0
 62
     0
 10
122.639
 20
74.3356
 30
0.0
 11
123.238
 21
74.3356
 31
0.0
  0
LINE
  8
0
 62
     0
 10
123.238
 20
74.3356
 30
0.0
 11
123.238
 21
72.8116
 31
0.0
  0
LINE
  8
0
 62
     0
 10
123.238
 20
72.8116
 30
0.0
 11
118.769
 21
72.8116
 31
0.0
  0
LINE
  8
0
 62
     0
 10
118.769
 20
72.8116
 30
0.0
 11
118.769
 21
71.0847
 31
0.0
  0
LINE
  8
0
 62
     0
 10
118.769
 20
71.0847
 30
0.0
 11
117.569
 21
71.0847
 31
0.0
  0
LINE
  8
0
 62
     0
 10
117.569
 20
71.0847
 30
0.0
 11
117.569
 21
67.7855
 31
0.0
  0
LINE
  8
0
 62
     0
 10
117.569
 20
67.7855
 30
0.0
 11
118.769
 21
67.7855
 31
0.0
  0
LINE
  8
0
 62
     0
 10
118.769
 20
67.7855
 30
0.0
 11
118.769
 21
66.0605
 31
0.0
  0
LINE
  8
0
 62
     0
 10
118.769
 20
66.0605
 30
0.0
 11
125.039
 21
66.0605
 31
0.0
  0
LINE
  8
0
 62
     0
 10
125.039
 20
66.0605
 30
0.0
 11
125.039
 21
65.235
 31
0.0
  0
LINE
  8
0
 62
     0
 10
125.039
 20
65.235
 30
0.0
 11
127.838
 21
65.235
 31
0.0
  0
LINE
  8
0
 62
     0
 10
127.838
 20
65.235
 30
0.0
 11
127.838
 21
66.0605
 31
0.0
  0
LINE
  8
0
 62
     0
 10
127.838
 20
66.0605
 30
0.0
 11
131.068
 21
66.0605
 31
0.0
  0
LINE
  8
0
 62
     0
 10
131.068
 20
66.0605
 30
0.0
 11
131.068
 21
72.8116
 31
0.0
  0
LINE
  8
0
 62
     0
 10
131.068
 20
72.8116
 30
0.0
 11
127.838
 21
72.8116
 31
0.0
  0
LINE
  8
0
 62
     0
 10
127.838
 20
72.8116
 30
0.0
 11
127.838
 21
74.3356
 31
0.0
  0
LINE
  8
0
 62
     0
 10
127.838
 20
74.3356
 30
0.0
 11
128.439
 21
74.3356
 31
0.0
  0
LINE
  8
0
 62
     0
 10
128.439
 20
74.3356
 30
0.0
 11
128.439
 21
73.5362
 31
0.0
  0
LINE
  8
0
 62
     0
 10
128.439
 20
73.5362
 30
0.0
 11
131.538
 21
73.5362
 31
0.0
  0
LINE
  8
0
 62
     0
 10
131.538
 20
73.5362
 30
0.0
 11
131.538
 21
74.3356
 31
0.0
  0
LINE
  8
0
 62
     0
 10
131.538
 20
74.3356
 30
0.0
 11
132.538
 21
74.3356
 31
0.0
  0
LINE
  8
0
 62
     0
 10
132.538
 20
74.3356
 30
0.0
 11
132.538
 21
88.3363
 31
0.0
  0
LINE
  8
0
 62
     0
 10
132.538
 20
88.3363
 30
0.0
 11
131.538
 21
88.3363
 31
0.0
  0
LINE
  8
0
 62
     0
 10
131.538
 20
88.3363
 30
0.0
 11
131.538
 21
89.1357
 31
0.0
  0
LINE
  8
0
 62
     0
 10
131.538
 20
89.1357
 30
0.0
 11
128.439
 21
89.1357
 31
0.0
  0
LINE
  8
0
 62
     0
 10
128.439
 20
89.1357
 30
0.0
 11
128.439
 21
88.3363
 31
0.0
  0
LINE
  8
0
 62
     0
 10
128.439
 20
88.3363
 30
0.0
 11
127.838
 21
88.3363
 31
0.0
  0
LINE
  8
0
 62
     0
 10
127.838
 20
88.3363
 30
0.0
 11
127.838
 21
89.8606
 31
0.0
  0
LINE
  8
0
 62
     0
 10
127.838
 20
89.8606
 30
0.0
 11
131.068
 21
89.8606
 31
0.0
  0
LINE
  8
0
 62
     0
 10
131.068
 20
89.8606
 30
0.0
 11
131.068
 21
96.6114
 31
0.0
  0
LINE
  8
0
 62
     0
 10
131.068
 20
96.6114
 30
0.0
 11
127.838
 21
96.6114
 31
0.0
  0
LINE
  8
0
 62
     0
 10
127.838
 20
96.6114
 30
0.0
 11
127.838
 21
97.4355
 31
0.0
  0
LINE
  8
0
 62
     0
 10
127.838
 20
97.4355
 30
0.0
 11
125.039
 21
97.4355
 31
0.0
  0
LINE
  8
0
 62
     0
 10
91.7014
 20
97.4355
 30
0.0
 11
91.7014
 21
96.6114
 31
0.0
  0
LINE
  8
0
 62
     0
 10
91.7014
 20
96.6114
 30
0.0
 11
85.4315
 21
96.6114
 31
0.0
  0
LINE
  8
0
 62
     0
 10
85.4315
 20
96.6114
 30
0.0
 11
85.4315
 21
94.8863
 31
0.0
  0
LINE
  8
0
 62
     0
 10
85.4315
 20
94.8863
 30
0.0
 11
84.2313
 21
94.8863
 31
0.0
  0
LINE
  8
0
 62
     0
 10
84.2313
 20
94.8863
 30
0.0
 11
84.2313
 21
91.5857
 31
0.0
  0
LINE
  8
0
 62
     0
 10
84.2313
 20
91.5857
 30
0.0
 11
85.4315
 21
91.5857
 31
0.0
  0
LINE
  8
0
 62
     0
 10
85.4315
 20
91.5857
 30
0.0
 11
85.4315
 21
89.8606
 31
0.0
  0
LINE
  8
0
 62
     0
 10
85.4315
 20
89.8606
 30
0.0
 11
89.9019
 21
89.8606
 31
0.0
  0
LINE
  8
0
 62
     0
 10
89.9019
 20
89.8606
 30
0.0
 11
89.9019
 21
88.3363
 31
0.0
  0
LINE
  8
0
 62
     0
 10
89.9019
 20
88.3363
 30
0.0
 11
89.3011
 21
88.3363
 31
0.0
  0
LINE
  8
0
 62
     0
 10
89.3011
 20
88.3363
 30
0.0
 11
89.3011
 21
89.1357
 31
0.0
  0
LINE
  8
0
 62
     0
 10
89.3011
 20
89.1357
 30
0.0
 11
86.202
 21
89.1357
 31
0.0
  0
LINE
  8
0
 62
     0
 10
86.202
 20
89.1357
 30
0.0
 11
86.202
 21
88.3363
 31
0.0
  0
LINE
  8
0
 62
     0
 10
86.202
 20
88.3363
 30
0.0
 11
85.2015
 21
88.3363
 31
0.0
  0
LINE
  8
0
 62
     0
 10
85.2015
 20
88.3363
 30
0.0
 11
85.2015
 21
74.3356
 31
0.0
  0
LINE
  8
0
 62
     0
 10
85.2015
 20
74.3356
 30
0.0
 11
86.202
 21
74.3356
 31
0.0
  0
LINE
  8
0
 62
     0
 10
86.202
 20
74.3356
 30
0.0
 11
86.202
 21
73.5348
 31
0.0
  0
LINE
  8
0
 62
     0
 10
86.202
 20
73.5348
 30
0.0
 11
89.3011
 21
73.5348
 31
0.0
  0
LINE
  8
0
 62
     0
 10
89.3011
 20
73.5348
 30
0.0
 11
89.3011
 21
74.3356
 31
0.0
  0
LINE
  8
0
 62
     0
 10
89.3011
 20
74.3356
 30
0.0
 11
89.9019
 21
74.3356
 31
0.0
  0
LINE
  8
0
 62
     0
 10
89.9019
 20
74.3356
 30
0.0
 11
89.9019
 21
72.8116
 31
0.0
  0
LINE
  8
0
 62
     0
 10
89.9019
 20
72.8116
 30
0.0
 11
85.4315
 21
72.8116
 31
0.0
  0
LINE
  8
0
 62
     0
 10
85.4315
 20
72.8116
 30
0.0
 11
85.4315
 21
71.0861
 31
0.0
  0
LINE
  8
0
 62
     0
 10
85.4315
 20
71.0861
 30
0.0
 11
84.2313
 21
71.0861
 31
0.0
  0
LINE
  8
0
 62
     0
 10
84.2313
 20
71.0861
 30
0.0
 11
84.2313
 21
67.7855
 31
0.0
  0
LINE
  8
0
 62
     0
 10
84.2313
 20
67.7855
 30
0.0
 11
85.4315
 21
67.7855
 31
0.0
  0
LINE
  8
0
 62
     0
 10
85.4315
 20
67.7855
 30
0.0
 11
85.4315
 21
66.0605
 31
0.0
  0
LINE
  8
0
 62
     0
 10
85.4315
 20
66.0605
 30
0.0
 11
91.7014
 21
66.0605
 31
0.0
  0
LINE
  8
0
 62
     0
 10
91.7014
 20
66.0605
 30
0.0
 11
91.7014
 21
65.2364
 31
0.0
  0
LINE
  8
0
 62
     0
 10
91.7014
 20
65.2364
 30
0.0
 11
94.5018
 21
65.2364
 31
0.0
  0
LINE
  8
0
 62
     0
 10
94.5018
 20
65.2364
 30
0.0
 11
94.5018
 21
66.0605
 31
0.0
  0
LINE
  8
0
 62
     0
 10
94.5018
 20
66.0605
 30
0.0
 11
97.7318
 21
66.0605
 31
0.0
  0
LINE
  8
0
 62
     0
 10
97.7318
 20
66.0605
 30
0.0
 11
97.7318
 21
72.8116
 31
0.0
  0
LINE
  8
0
 62
     0
 10
97.7318
 20
72.8116
 30
0.0
 11
94.5018
 21
72.8116
 31
0.0
  0
LINE
  8
0
 62
     0
 10
94.5018
 20
72.8116
 30
0.0
 11
94.5018
 21
74.3356
 31
0.0
  0
LINE
  8
0
 62
     0
 10
94.5018
 20
74.3356
 30
0.0
 11
95.1011
 21
74.3356
 31
0.0
  0
LINE
  8
0
 62
     0
 10
95.1011
 20
74.3356
 30
0.0
 11
95.1011
 21
73.5348
 31
0.0
  0
LINE
  8
0
 62
     0
 10
95.1011
 20
73.5348
 30
0.0
 11
98.2017
 21
73.5348
 31
0.0
  0
LINE
  8
0
 62
     0
 10
98.2017
 20
73.5348
 30
0.0
 11
98.2017
 21
74.3356
 31
0.0
  0
LINE
  8
0
 62
     0
 10
98.2017
 20
74.3356
 30
0.0
 11
99.2008
 21
74.3356
 31
0.0
  0
LINE
  8
0
 62
     0
 10
99.2008
 20
74.3356
 30
0.0
 11
99.2008
 21
88.3363
 31
0.0
  0
LINE
  8
0
 62
     0
 10
99.2008
 20
88.3363
 30
0.0
 11
98.2017
 21
88.3363
 31
0.0
  0
LINE
  8
0
 62
     0
 10
98.2017
 20
88.3363
 30
0.0
 11
98.2017
 21
89.1357
 31
0.0
  0
LINE
  8
0
 62
     0
 10
98.2017
 20
89.1357
 30
0.0
 11
95.1011
 21
89.1357
 31
0.0
  0
LINE
  8
0
 62
     0
 10
95.1011
 20
89.1357
 30
0.0
 11
95.1011
 21
88.3363
 31
0.0
  0
LINE
  8
0
 62
     0
 10
95.1011
 20
88.3363
 30
0.0
 11
94.5018
 21
88.3363
 31
0.0
  0
LINE
  8
0
 62
     0
 10
94.5018
 20
88.3363
 30
0.0
 11
94.5018
 21
89.8606
 31
0.0
  0
LINE
  8
0
 62
     0
 10
94.5018
 20
89.8606
 30
0.0
 11
97.7318
 21
89.8606
 31
0.0
  0
LINE
  8
0
 62
     0
 10
97.7318
 20
89.8606
 30
0.0
 11
97.7318
 21
96.6114
 31
0.0
  0
LINE
  8
0
 62
     0
 10
97.7318
 20
96.6114
 30
0.0
 11
94.5018
 21
96.6114
 31
0.0
  0
LINE
  8
0
 62
     0
 10
94.5018
 20
96.6114
 30
0.0
 11
94.5018
 21
97.4355
 31
0.0
  0
LINE
  8
0
 62
     0
 10
94.5018
 20
97.4355
 30
0.0
 11
91.7014
 21
97.4355
 31
0.0
  0
LINE
  8
0
 62
     0
 10
6.62009
 20
97.8613
 30
0.0
 11
6.62009
 21
96.8608
 31
0.0
  0
LINE
  8
0
 62
     0
 10
6.62009
 20
96.8608
 30
0.0
 11
5.81946
 21
96.8608
 31
0.0
  0
LINE
  8
0
 62
     0
 10
5.81946
 20
96.8608
 30
0.0
 11
5.81946
 21
93.7602
 31
0.0
  0
LINE
  8
0
 62
     0
 10
5.81946
 20
93.7602
 30
0.0
 11
6.62009
 21
93.7602
 31
0.0
  0
LINE
  8
0
 62
     0
 10
6.62009
 20
93.7602
 30
0.0
 11
6.62009
 21
87.9616
 31
0.0
  0
LINE
  8
0
 62
     0
 10
6.62009
 20
87.9616
 30
0.0
 11
5.81946
 21
87.9616
 31
0.0
  0
LINE
  8
0
 62
     0
 10
5.81946
 20
87.9616
 30
0.0
 11
5.81946
 21
84.8596
 31
0.0
  0
LINE
  8
0
 62
     0
 10
5.81946
 20
84.8596
 30
0.0
 11
6.62009
 21
84.8596
 31
0.0
  0
LINE
  8
0
 62
     0
 10
6.62009
 20
84.8596
 30
0.0
 11
6.62009
 21
83.8606
 31
0.0
  0
LINE
  8
0
 62
     0
 10
6.62009
 20
83.8606
 30
0.0
 11
20.621
 21
83.8606
 31
0.0
  0
LINE
  8
0
 62
     0
 10
20.621
 20
83.8606
 30
0.0
 11
20.621
 21
84.8596
 31
0.0
  0
LINE
  8
0
 62
     0
 10
20.621
 20
84.8596
 30
0.0
 11
21.4202
 21
84.8596
 31
0.0
  0
LINE
  8
0
 62
     0
 10
21.4202
 20
84.8596
 30
0.0
 11
21.4202
 21
87.9616
 31
0.0
  0
LINE
  8
0
 62
     0
 10
21.4202
 20
87.9616
 30
0.0
 11
20.621
 21
87.9616
 31
0.0
  0
LINE
  8
0
 62
     0
 10
20.621
 20
87.9616
 30
0.0
 11
20.621
 21
93.7602
 31
0.0
  0
LINE
  8
0
 62
     0
 10
20.621
 20
93.7602
 30
0.0
 11
21.4202
 21
93.7602
 31
0.0
  0
LINE
  8
0
 62
     0
 10
21.4202
 20
93.7602
 30
0.0
 11
21.4202
 21
96.8608
 31
0.0
  0
LINE
  8
0
 62
     0
 10
21.4202
 20
96.8608
 30
0.0
 11
20.621
 21
96.8608
 31
0.0
  0
LINE
  8
0
 62
     0
 10
20.621
 20
96.8608
 30
0.0
 11
20.621
 21
97.8613
 31
0.0
  0
LINE
  8
0
 62
     0
 10
20.621
 20
97.8613
 30
0.0
 11
6.62009
 21
97.8613
 31
0.0
  0
LINE
  8
0
 62
     0
 10
25.6701
 20
97.8613
 30
0.0
 11
25.6701
 21
96.8608
 31
0.0
  0
LINE
  8
0
 62
     0
 10
25.6701
 20
96.8608
 30
0.0
 11
24.8708
 21
96.8608
 31
0.0
  0
LINE
  8
0
 62
     0
 10
24.8708
 20
96.8608
 30
0.0
 11
24.8708
 21
93.7602
 31
0.0
  0
LINE
  8
0
 62
     0
 10
24.8708
 20
93.7602
 30
0.0
 11
25.6701
 21
93.7602
 31
0.0
  0
LINE
  8
0
 62
     0
 10
25.6701
 20
93.7602
 30
0.0
 11
25.6701
 21
87.9616
 31
0.0
  0
LINE
  8
0
 62
     0
 10
25.6701
 20
87.9616
 30
0.0
 11
24.8708
 21
87.9616
 31
0.0
  0
LINE
  8
0
 62
     0
 10
24.8708
 20
87.9616
 30
0.0
 11
24.8708
 21
84.8596
 31
0.0
  0
LINE
  8
0
 62
     0
 10
24.8708
 20
84.8596
 30
0.0
 11
25.6701
 21
84.8596
 31
0.0
  0
LINE
  8
0
 62
     0
 10
25.6701
 20
84.8596
 30
0.0
 11
25.6701
 21
83.8606
 31
0.0
  0
LINE
  8
0
 62
     0
 10
25.6701
 20
83.8606
 30
0.0
 11
39.6709
 21
83.8606
 31
0.0
  0
LINE
  8
0
 62
     0
 10
39.6709
 20
83.8606
 30
0.0
 11
39.6709
 21
84.8596
 31
0.0
  0
LINE
  8
0
 62
     0
 10
39.6709
 20
84.8596
 30
0.0
 11
40.4703
 21
84.8596
 31
0.0
  0
LINE
  8
0
 62
     0
 10
40.4703
 20
84.8596
 30
0.0
 11
40.4703
 21
87.9616
 31
0.0
  0
LINE
  8
0
 62
     0
 10
40.4703
 20
87.9616
 30
0.0
 11
39.6709
 21
87.9616
 31
0.0
  0
LINE
  8
0
 62
     0
 10
39.6709
 20
87.9616
 30
0.0
 11
39.6709
 21
93.7602
 31
0.0
  0
LINE
  8
0
 62
     0
 10
39.6709
 20
93.7602
 30
0.0
 11
40.4703
 21
93.7602
 31
0.0
  0
LINE
  8
0
 62
     0
 10
40.4703
 20
93.7602
 30
0.0
 11
40.4703
 21
96.8608
 31
0.0
  0
LINE
  8
0
 62
     0
 10
40.4703
 20
96.8608
 30
0.0
 11
39.6709
 21
96.8608
 31
0.0
  0
LINE
  8
0
 62
     0
 10
39.6709
 20
96.8608
 30
0.0
 11
39.6709
 21
97.8613
 31
0.0
  0
LINE
  8
0
 62
     0
 10
39.6709
 20
97.8613
 30
0.0
 11
25.6701
 21
97.8613
 31
0.0
  0
LINE
  8
0
 62
     0
 10
44.7202
 20
97.8613
 30
0.0
 11
44.7202
 21
96.8608
 31
0.0
  0
LINE
  8
0
 62
     0
 10
44.7202
 20
96.8608
 30
0.0
 11
43.9208
 21
96.8608
 31
0.0
  0
LINE
  8
0
 62
     0
 10
43.9208
 20
96.8608
 30
0.0
 11
43.9208
 21
93.7602
 31
0.0
  0
LINE
  8
0
 62
     0
 10
43.9208
 20
93.7602
 30
0.0
 11
44.7202
 21
93.7602
 31
0.0
  0
LINE
  8
0
 62
     0
 10
44.7202
 20
93.7602
 30
0.0
 11
44.7202
 21
87.9616
 31
0.0
  0
LINE
  8
0
 62
     0
 10
44.7202
 20
87.9616
 30
0.0
 11
43.9208
 21
87.9616
 31
0.0
  0
LINE
  8
0
 62
     0
 10
43.9208
 20
87.9616
 30
0.0
 11
43.9208
 21
84.8596
 31
0.0
  0
LINE
  8
0
 62
     0
 10
43.9208
 20
84.8596
 30
0.0
 11
44.7202
 21
84.8596
 31
0.0
  0
LINE
  8
0
 62
     0
 10
44.7202
 20
84.8596
 30
0.0
 11
44.7202
 21
83.8606
 31
0.0
  0
LINE
  8
0
 62
     0
 10
44.7202
 20
83.8606
 30
0.0
 11
58.7209
 21
83.8606
 31
0.0
  0
LINE
  8
0
 62
     0
 10
58.7209
 20
83.8606
 30
0.0
 11
58.7209
 21
84.8596
 31
0.0
  0
LINE
  8
0
 62
     0
 10
58.7209
 20
84.8596
 30
0.0
 11
59.5203
 21
84.8596
 31
0.0
  0
LINE
  8
0
 62
     0
 10
59.5203
 20
84.8596
 30
0.0
 11
59.5203
 21
87.9616
 31
0.0
  0
LINE
  8
0
 62
     0
 10
59.5203
 20
87.9616
 30
0.0
 11
58.7209
 21
87.9616
 31
0.0
  0
LINE
  8
0
 62
     0
 10
58.7209
 20
87.9616
 30
0.0
 11
58.7209
 21
93.7602
 31
0.0
  0
LINE
  8
0
 62
     0
 10
58.7209
 20
93.7602
 30
0.0
 11
59.5203
 21
93.7602
 31
0.0
  0
LINE
  8
0
 62
     0
 10
59.5203
 20
93.7602
 30
0.0
 11
59.5203
 21
96.8608
 31
0.0
  0
LINE
  8
0
 62
     0
 10
59.5203
 20
96.8608
 30
0.0
 11
58.7209
 21
96.8608
 31
0.0
  0
LINE
  8
0
 62
     0
 10
58.7209
 20
96.8608
 30
0.0
 11
58.7209
 21
97.8613
 31
0.0
  0
LINE
  8
0
 62
     0
 10
58.7209
 20
97.8613
 30
0.0
 11
44.7202
 21
97.8613
 31
0.0
  0
LINE
  8
0
 62
     0
 10
63.7702
 20
97.8613
 30
0.0
 11
63.7702
 21
96.8608
 31
0.0
  0
LINE
  8
0
 62
     0
 10
63.7702
 20
96.8608
 30
0.0
 11
62.9708
 21
96.8608
 31
0.0
  0
LINE
  8
0
 62
     0
 10
62.9708
 20
96.8608
 30
0.0
 11
62.9708
 21
93.7602
 31
0.0
  0
LINE
  8
0
 62
     0
 10
62.9708
 20
93.7602
 30
0.0
 11
63.7702
 21
93.7602
 31
0.0
  0
LINE
  8
0
 62
     0
 10
63.7702
 20
93.7602
 30
0.0
 11
63.7702
 21
87.9616
 31
0.0
  0
LINE
  8
0
 62
     0
 10
63.7702
 20
87.9616
 30
0.0
 11
62.9708
 21
87.9616
 31
0.0
  0
LINE
  8
0
 62
     0
 10
62.9708
 20
87.9616
 30
0.0
 11
62.9708
 21
84.8596
 31
0.0
  0
LINE
  8
0
 62
     0
 10
62.9708
 20
84.8596
 30
0.0
 11
63.7702
 21
84.8596
 31
0.0
  0
LINE
  8
0
 62
     0
 10
63.7702
 20
84.8596
 30
0.0
 11
63.7702
 21
83.8606
 31
0.0
  0
LINE
  8
0
 62
     0
 10
63.7702
 20
83.8606
 30
0.0
 11
77.7709
 21
83.8606
 31
0.0
  0
LINE
  8
0
 62
     0
 10
77.7709
 20
83.8606
 30
0.0
 11
77.7709
 21
84.8596
 31
0.0
  0
LINE
  8
0
 62
     0
 10
77.7709
 20
84.8596
 30
0.0
 11
78.5703
 21
84.8596
 31
0.0
  0
LINE
  8
0
 62
     0
 10
78.5703
 20
84.8596
 30
0.0
 11
78.5703
 21
87.9616
 31
0.0
  0
LINE
  8
0
 62
     0
 10
78.5703
 20
87.9616
 30
0.0
 11
77.7709
 21
87.9616
 31
0.0
  0
LINE
  8
0
 62
     0
 10
77.7709
 20
87.9616
 30
0.0
 11
77.7709
 21
93.7602
 31
0.0
  0
LINE
  8
0
 62
     0
 10
77.7709
 20
93.7602
 30
0.0
 11
78.5703
 21
93.7602
 31
0.0
  0
LINE
  8
0
 62
     0
 10
78.5703
 20
93.7602
 30
0.0
 11
78.5703
 21
96.8608
 31
0.0
  0
LINE
  8
0
 62
     0
 10
78.5703
 20
96.8608
 30
0.0
 11
77.7709
 21
96.8608
 31
0.0
  0
LINE
  8
0
 62
     0
 10
77.7709
 20
96.8608
 30
0.0
 11
77.7709
 21
97.8613
 31
0.0
  0
LINE
  8
0
 62
     0
 10
77.7709
 20
97.8613
 30
0.0
 11
63.7702
 21
97.8613
 31
0.0
  0
LINE
  8
0
 62
     0
 10
139.97
 20
97.8613
 30
0.0
 11
139.97
 21
96.8608
 31
0.0
  0
LINE
  8
0
 62
     0
 10
139.97
 20
96.8608
 30
0.0
 11
139.171
 21
96.8608
 31
0.0
  0
LINE
  8
0
 62
     0
 10
139.171
 20
96.8608
 30
0.0
 11
139.171
 21
93.7602
 31
0.0
  0
LINE
  8
0
 62
     0
 10
139.171
 20
93.7602
 30
0.0
 11
139.97
 21
93.7602
 31
0.0
  0
LINE
  8
0
 62
     0
 10
139.97
 20
93.7602
 30
0.0
 11
139.97
 21
87.9616
 31
0.0
  0
LINE
  8
0
 62
     0
 10
139.97
 20
87.9616
 30
0.0
 11
139.171
 21
87.9616
 31
0.0
  0
LINE
  8
0
 62
     0
 10
139.171
 20
87.9616
 30
0.0
 11
139.171
 21
84.8596
 31
0.0
  0
LINE
  8
0
 62
     0
 10
139.171
 20
84.8596
 30
0.0
 11
139.97
 21
84.8596
 31
0.0
  0
LINE
  8
0
 62
     0
 10
139.97
 20
84.8596
 30
0.0
 11
139.97
 21
83.8606
 31
0.0
  0
LINE
  8
0
 62
     0
 10
139.97
 20
83.8606
 30
0.0
 11
153.971
 21
83.8606
 31
0.0
  0
LINE
  8
0
 62
     0
 10
153.971
 20
83.8606
 30
0.0
 11
153.971
 21
84.8596
 31
0.0
  0
LINE
  8
0
 62
     0
 10
153.971
 20
84.8596
 30
0.0
 11
154.77
 21
84.8596
 31
0.0
  0
LINE
  8
0
 62
     0
 10
154.77
 20
84.8596
 30
0.0
 11
154.77
 21
87.9616
 31
0.0
  0
LINE
  8
0
 62
     0
 10
154.77
 20
87.9616
 30
0.0
 11
153.971
 21
87.9616
 31
0.0
  0
LINE
  8
0
 62
     0
 10
153.971
 20
87.9616
 30
0.0
 11
153.971
 21
93.7602
 31
0.0
  0
LINE
  8
0
 62
     0
 10
153.971
 20
93.7602
 30
0.0
 11
154.77
 21
93.7602
 31
0.0
  0
LINE
  8
0
 62
     0
 10
154.77
 20
93.7602
 30
0.0
 11
154.77
 21
96.8608
 31
0.0
  0
LINE
  8
0
 62
     0
 10
154.77
 20
96.8608
 30
0.0
 11
153.971
 21
96.8608
 31
0.0
  0
LINE
  8
0
 62
     0
 10
153.971
 20
96.8608
 30
0.0
 11
153.971
 21
97.8613
 31
0.0
  0
LINE
  8
0
 62
     0
 10
153.971
 20
97.8613
 30
0.0
 11
139.97
 21
97.8613
 31
0.0
  0
LINE
  8
0
 62
     0
 10
159.02
 20
97.8613
 30
0.0
 11
159.02
 21
96.8608
 31
0.0
  0
LINE
  8
0
 62
     0
 10
159.02
 20
96.8608
 30
0.0
 11
158.221
 21
96.8608
 31
0.0
  0
LINE
  8
0
 62
     0
 10
158.221
 20
96.8608
 30
0.0
 11
158.221
 21
93.7602
 31
0.0
  0
LINE
  8
0
 62
     0
 10
158.221
 20
93.7602
 30
0.0
 11
159.02
 21
93.7602
 31
0.0
  0
LINE
  8
0
 62
     0
 10
159.02
 20
93.7602
 30
0.0
 11
159.02
 21
87.9616
 31
0.0
  0
LINE
  8
0
 62
     0
 10
159.02
 20
87.9616
 30
0.0
 11
158.221
 21
87.9616
 31
0.0
  0
LINE
  8
0
 62
     0
 10
158.221
 20
87.9616
 30
0.0
 11
158.221
 21
84.8596
 31
0.0
  0
LINE
  8
0
 62
     0
 10
158.221
 20
84.8596
 30
0.0
 11
159.02
 21
84.8596
 31
0.0
  0
LINE
  8
0
 62
     0
 10
159.02
 20
84.8596
 30
0.0
 11
159.02
 21
83.8606
 31
0.0
  0
LINE
  8
0
 62
     0
 10
159.02
 20
83.8606
 30
0.0
 11
173.021
 21
83.8606
 31
0.0
  0
LINE
  8
0
 62
     0
 10
173.021
 20
83.8606
 30
0.0
 11
173.021
 21
84.8596
 31
0.0
  0
LINE
  8
0
 62
     0
 10
173.021
 20
84.8596
 30
0.0
 11
173.82
 21
84.8596
 31
0.0
  0
LINE
  8
0
 62
     0
 10
173.82
 20
84.8596
 30
0.0
 11
173.82
 21
87.9616
 31
0.0
  0
LINE
  8
0
 62
     0
 10
173.82
 20
87.9616
 30
0.0
 11
173.021
 21
87.9616
 31
0.0
  0
LINE
  8
0
 62
     0
 10
173.021
 20
87.9616
 30
0.0
 11
173.021
 21
93.7602
 31
0.0
  0
LINE
  8
0
 62
     0
 10
173.021
 20
93.7602
 30
0.0
 11
173.82
 21
93.7602
 31
0.0
  0
LINE
  8
0
 62
     0
 10
173.82
 20
93.7602
 30
0.0
 11
173.82
 21
96.8608
 31
0.0
  0
LINE
  8
0
 62
     0
 10
173.82
 20
96.8608
 30
0.0
 11
173.021
 21
96.8608
 31
0.0
  0
LINE
  8
0
 62
     0
 10
173.021
 20
96.8608
 30
0.0
 11
173.021
 21
97.8613
 31
0.0
  0
LINE
  8
0
 62
     0
 10
173.021
 20
97.8613
 30
0.0
 11
159.02
 21
97.8613
 31
0.0
  0
LINE
  8
0
 62
     0
 10
178.07
 20
97.8613
 30
0.0
 11
178.07
 21
96.8608
 31
0.0
  0
LINE
  8
0
 62
     0
 10
178.07
 20
96.8608
 30
0.0
 11
177.271
 21
96.8608
 31
0.0
  0
LINE
  8
0
 62
     0
 10
177.271
 20
96.8608
 30
0.0
 11
177.271
 21
93.7602
 31
0.0
  0
LINE
  8
0
 62
     0
 10
177.271
 20
93.7602
 30
0.0
 11
178.07
 21
93.7602
 31
0.0
  0
LINE
  8
0
 62
     0
 10
178.07
 20
93.7602
 30
0.0
 11
178.07
 21
87.9616
 31
0.0
  0
LINE
  8
0
 62
     0
 10
178.07
 20
87.9616
 30
0.0
 11
177.271
 21
87.9616
 31
0.0
  0
LINE
  8
0
 62
     0
 10
177.271
 20
87.9616
 30
0.0
 11
177.271
 21
84.8596
 31
0.0
  0
LINE
  8
0
 62
     0
 10
177.271
 20
84.8596
 30
0.0
 11
178.07
 21
84.8596
 31
0.0
  0
LINE
  8
0
 62
     0
 10
178.07
 20
84.8596
 30
0.0
 11
178.07
 21
83.8606
 31
0.0
  0
LINE
  8
0
 62
     0
 10
178.07
 20
83.8606
 30
0.0
 11
192.071
 21
83.8606
 31
0.0
  0
LINE
  8
0
 62
     0
 10
192.071
 20
83.8606
 30
0.0
 11
192.071
 21
84.8596
 31
0.0
  0
LINE
  8
0
 62
     0
 10
192.071
 20
84.8596
 30
0.0
 11
192.87
 21
84.8596
 31
0.0
  0
LINE
  8
0
 62
     0
 10
192.87
 20
84.8596
 30
0.0
 11
192.87
 21
87.9616
 31
0.0
  0
LINE
  8
0
 62
     0
 10
192.87
 20
87.9616
 30
0.0
 11
192.071
 21
87.9616
 31
0.0
  0
LINE
  8
0
 62
     0
 10
192.071
 20
87.9616
 30
0.0
 11
192.071
 21
93.7602
 31
0.0
  0
LINE
  8
0
 62
     0
 10
192.071
 20
93.7602
 30
0.0
 11
192.87
 21
93.7602
 31
0.0
  0
LINE
  8
0
 62
     0
 10
192.87
 20
93.7602
 30
0.0
 11
192.87
 21
96.8608
 31
0.0
  0
LINE
  8
0
 62
     0
 10
192.87
 20
96.8608
 30
0.0
 11
192.071
 21
96.8608
 31
0.0
  0
LINE
  8
0
 62
     0
 10
192.071
 20
96.8608
 30
0.0
 11
192.071
 21
97.8613
 31
0.0
  0
LINE
  8
0
 62
     0
 10
192.071
 20
97.8613
 30
0.0
 11
178.07
 21
97.8613
 31
0.0
  0
LINE
  8
0
 62
     0
 10
197.12
 20
97.8613
 30
0.0
 11
197.12
 21
96.8608
 31
0.0
  0
LINE
  8
0
 62
     0
 10
197.12
 20
96.8608
 30
0.0
 11
196.321
 21
96.8608
 31
0.0
  0
LINE
  8
0
 62
     0
 10
196.321
 20
96.8608
 30
0.0
 11
196.321
 21
93.7602
 31
0.0
  0
LINE
  8
0
 62
     0
 10
196.321
 20
93.7602
 30
0.0
 11
197.12
 21
93.7602
 31
0.0
  0
LINE
  8
0
 62
     0
 10
197.12
 20
93.7602
 30
0.0
 11
197.12
 21
87.9616
 31
0.0
  0
LINE
  8
0
 62
     0
 10
197.12
 20
87.9616
 30
0.0
 11
196.321
 21
87.9616
 31
0.0
  0
LINE
  8
0
 62
     0
 10
196.321
 20
87.9616
 30
0.0
 11
196.321
 21
84.8596
 31
0.0
  0
LINE
  8
0
 62
     0
 10
196.321
 20
84.8596
 30
0.0
 11
197.12
 21
84.8596
 31
0.0
  0
LINE
  8
0
 62
     0
 10
197.12
 20
84.8596
 30
0.0
 11
197.12
 21
83.8606
 31
0.0
  0
LINE
  8
0
 62
     0
 10
197.12
 20
83.8606
 30
0.0
 11
211.121
 21
83.8606
 31
0.0
  0
LINE
  8
0
 62
     0
 10
211.121
 20
83.8606
 30
0.0
 11
211.121
 21
84.8596
 31
0.0
  0
LINE
  8
0
 62
     0
 10
211.121
 20
84.8596
 30
0.0
 11
211.92
 21
84.8596
 31
0.0
  0
LINE
  8
0
 62
     0
 10
211.92
 20
84.8596
 30
0.0
 11
211.92
 21
87.9616
 31
0.0
  0
LINE
  8
0
 62
     0
 10
211.92
 20
87.9616
 30
0.0
 11
211.121
 21
87.9616
 31
0.0
  0
LINE
  8
0
 62
     0
 10
211.121
 20
87.9616
 30
0.0
 11
211.121
 21
93.7602
 31
0.0
  0
LINE
  8
0
 62
     0
 10
211.121
 20
93.7602
 30
0.0
 11
211.92
 21
93.7602
 31
0.0
  0
LINE
  8
0
 62
     0
 10
211.92
 20
93.7602
 30
0.0
 11
211.92
 21
96.8608
 31
0.0
  0
LINE
  8
0
 62
     0
 10
211.92
 20
96.8608
 30
0.0
 11
211.121
 21
96.8608
 31
0.0
  0
LINE
  8
0
 62
     0
 10
211.121
 20
96.8608
 30
0.0
 11
211.121
 21
97.8613
 31
0.0
  0
LINE
  8
0
 62
     0
 10
211.121
 20
97.8613
 30
0.0
 11
197.12
 21
97.8613
 31
0.0
  0
LINE
  8
0
 62
     0
 10
2.28617
 20
103.837
 30
0.0
 11
2.0078
 21
103.695
 31
0.0
  0
LINE
  8
0
 62
     0
 10
2.0078
 20
103.695
 30
0.0
 11
1.78594
 21
103.473
 31
0.0
  0
LINE
  8
0
 62
     0
 10
1.78594
 20
103.473
 30
0.0
 11
1.644
 21
103.195
 31
0.0
  0
LINE
  8
0
 62
     0
 10
1.644
 20
103.195
 30
0.0
 11
1.59439
 21
102.886
 31
0.0
  0
LINE
  8
0
 62
     0
 10
1.59439
 20
102.886
 30
0.0
 11
1.644
 21
102.576
 31
0.0
  0
LINE
  8
0
 62
     0
 10
1.644
 20
102.576
 30
0.0
 11
1.78594
 21
102.299
 31
0.0
  0
LINE
  8
0
 62
     0
 10
1.78594
 20
102.299
 30
0.0
 11
2.0078
 21
102.076
 31
0.0
  0
LINE
  8
0
 62
     0
 10
2.0078
 20
102.076
 30
0.0
 11
2.28617
 21
101.933
 31
0.0
  0
LINE
  8
0
 62
     0
 10
2.28617
 20
101.933
 30
0.0
 11
2.59485
 21
101.885
 31
0.0
  0
LINE
  8
0
 62
     0
 10
2.59485
 20
101.885
 30
0.0
 11
2.90491
 21
101.933
 31
0.0
  0
LINE
  8
0
 62
     0
 10
2.90491
 20
101.933
 30
0.0
 11
3.18189
 21
102.076
 31
0.0
  0
LINE
  8
0
 62
     0
 10
3.18189
 20
102.076
 30
0.0
 11
3.40513
 21
102.299
 31
0.0
  0
LINE
  8
0
 62
     0
 10
3.40513
 20
102.299
 30
0.0
 11
3.54707
 21
102.576
 31
0.0
  0
LINE
  8
0
 62
     0
 10
3.54707
 20
102.576
 30
0.0
 11
3.5953
 21
102.886
 31
0.0
  0
LINE
  8
0
 62
     0
 10
3.5953
 20
102.886
 30
0.0
 11
3.54707
 21
103.195
 31
0.0
  0
LINE
  8
0
 62
     0
 10
3.54707
 20
103.195
 30
0.0
 11
3.40513
 21
103.473
 31
0.0
  0
LINE
  8
0
 62
     0
 10
3.40513
 20
103.473
 30
0.0
 11
3.18189
 21
103.695
 31
0.0
  0
LINE
  8
0
 62
     0
 10
3.18189
 20
103.695
 30
0.0
 11
2.90491
 21
103.837
 31
0.0
  0
LINE
  8
0
 62
     0
 10
2.90491
 20
103.837
 30
0.0
 11
2.59485
 21
103.885
 31
0.0
  0
LINE
  8
0
 62
     0
 10
2.59485
 20
103.885
 30
0.0
 11
2.28617
 21
103.837
 31
0.0
  0
LINE
  8
0
 62
     0
 10
73.1365
 20
103.837
 30
0.0
 11
72.8567
 21
103.695
 31
0.0
  0
LINE
  8
0
 62
     0
 10
72.8567
 20
103.695
 30
0.0
 11
72.6362
 21
103.473
 31
0.0
  0
LINE
  8
0
 62
     0
 10
72.6362
 20
103.473
 30
0.0
 11
72.4944
 21
103.195
 31
0.0
  0
LINE
  8
0
 62
     0
 10
72.4944
 20
103.195
 30
0.0
 11
72.4447
 21
102.886
 31
0.0
  0
LINE
  8
0
 62
     0
 10
72.4447
 20
102.886
 30
0.0
 11
72.4944
 21
102.576
 31
0.0
  0
LINE
  8
0
 62
     0
 10
72.4944
 20
102.576
 30
0.0
 11
72.6362
 21
102.299
 31
0.0
  0
LINE
  8
0
 62
     0
 10
72.6362
 20
102.299
 30
0.0
 11
72.8567
 21
102.076
 31
0.0
  0
LINE
  8
0
 62
     0
 10
72.8567
 20
102.076
 30
0.0
 11
73.1365
 21
101.933
 31
0.0
  0
LINE
  8
0
 62
     0
 10
73.1365
 20
101.933
 30
0.0
 11
73.4452
 21
101.885
 31
0.0
  0
LINE
  8
0
 62
     0
 10
73.4452
 20
101.885
 30
0.0
 11
73.7538
 21
101.933
 31
0.0
  0
LINE
  8
0
 62
     0
 10
73.7538
 20
101.933
 30
0.0
 11
74.0336
 21
102.076
 31
0.0
  0
LINE
  8
0
 62
     0
 10
74.0336
 20
102.076
 30
0.0
 11
74.2541
 21
102.299
 31
0.0
  0
LINE
  8
0
 62
     0
 10
74.2541
 20
102.299
 30
0.0
 11
74.3962
 21
102.576
 31
0.0
  0
LINE
  8
0
 62
     0
 10
74.3962
 20
102.576
 30
0.0
 11
74.4456
 21
102.886
 31
0.0
  0
LINE
  8
0
 62
     0
 10
74.4456
 20
102.886
 30
0.0
 11
74.3962
 21
103.195
 31
0.0
  0
LINE
  8
0
 62
     0
 10
74.3962
 20
103.195
 30
0.0
 11
74.2541
 21
103.473
 31
0.0
  0
LINE
  8
0
 62
     0
 10
74.2541
 20
103.473
 30
0.0
 11
74.0336
 21
103.695
 31
0.0
  0
LINE
  8
0
 62
     0
 10
74.0336
 20
103.695
 30
0.0
 11
73.7538
 21
103.837
 31
0.0
  0
LINE
  8
0
 62
     0
 10
73.7538
 20
103.837
 30
0.0
 11
73.4452
 21
103.885
 31
0.0
  0
LINE
  8
0
 62
     0
 10
73.4452
 20
103.885
 30
0.0
 11
73.1365
 21
103.837
 31
0.0
  0
LINE
  8
0
 62
     0
 10
143.987
 20
103.837
 30
0.0
 11
143.707
 21
103.695
 31
0.0
  0
LINE
  8
0
 62
     0
 10
143.707
 20
103.695
 30
0.0
 11
143.487
 21
103.473
 31
0.0
  0
LINE
  8
0
 62
     0
 10
143.487
 20
103.473
 30
0.0
 11
143.345
 21
103.195
 31
0.0
  0
LINE
  8
0
 62
     0
 10
143.345
 20
103.195
 30
0.0
 11
143.295
 21
102.886
 31
0.0
  0
LINE
  8
0
 62
     0
 10
143.295
 20
102.886
 30
0.0
 11
143.345
 21
102.576
 31
0.0
  0
LINE
  8
0
 62
     0
 10
143.345
 20
102.576
 30
0.0
 11
143.487
 21
102.299
 31
0.0
  0
LINE
  8
0
 62
     0
 10
143.487
 20
102.299
 30
0.0
 11
143.707
 21
102.076
 31
0.0
  0
LINE
  8
0
 62
     0
 10
143.707
 20
102.076
 30
0.0
 11
143.987
 21
101.933
 31
0.0
  0
LINE
  8
0
 62
     0
 10
143.987
 20
101.933
 30
0.0
 11
144.296
 21
101.885
 31
0.0
  0
LINE
  8
0
 62
     0
 10
144.296
 20
101.885
 30
0.0
 11
144.604
 21
101.933
 31
0.0
  0
LINE
  8
0
 62
     0
 10
144.604
 20
101.933
 30
0.0
 11
144.883
 21
102.076
 31
0.0
  0
LINE
  8
0
 62
     0
 10
144.883
 20
102.076
 30
0.0
 11
145.105
 21
102.299
 31
0.0
  0
LINE
  8
0
 62
     0
 10
145.105
 20
102.299
 30
0.0
 11
145.247
 21
102.576
 31
0.0
  0
LINE
  8
0
 62
     0
 10
145.247
 20
102.576
 30
0.0
 11
145.295
 21
102.886
 31
0.0
  0
LINE
  8
0
 62
     0
 10
145.295
 20
102.886
 30
0.0
 11
145.247
 21
103.195
 31
0.0
  0
LINE
  8
0
 62
     0
 10
145.247
 20
103.195
 30
0.0
 11
145.105
 21
103.473
 31
0.0
  0
LINE
  8
0
 62
     0
 10
145.105
 20
103.473
 30
0.0
 11
144.883
 21
103.695
 31
0.0
  0
LINE
  8
0
 62
     0
 10
144.883
 20
103.695
 30
0.0
 11
144.604
 21
103.837
 31
0.0
  0
LINE
  8
0
 62
     0
 10
144.604
 20
103.837
 30
0.0
 11
144.296
 21
103.885
 31
0.0
  0
LINE
  8
0
 62
     0
 10
144.296
 20
103.885
 30
0.0
 11
143.987
 21
103.837
 31
0.0
  0
LINE
  8
0
 62
     0
 10
214.836
 20
103.837
 30
0.0
 11
214.559
 21
103.695
 31
0.0
  0
LINE
  8
0
 62
     0
 10
214.559
 20
103.695
 30
0.0
 11
214.336
 21
103.473
 31
0.0
  0
LINE
  8
0
 62
     0
 10
214.336
 20
103.473
 30
0.0
 11
214.194
 21
103.195
 31
0.0
  0
LINE
  8
0
 62
     0
 10
214.194
 20
103.195
 30
0.0
 11
214.147
 21
102.886
 31
0.0
  0
LINE
  8
0
 62
     0
 10
214.147
 20
102.886
 30
0.0
 11
214.194
 21
102.576
 31
0.0
  0
LINE
  8
0
 62
     0
 10
214.194
 20
102.576
 30
0.0
 11
214.336
 21
102.299
 31
0.0
  0
LINE
  8
0
 62
     0
 10
214.336
 20
102.299
 30
0.0
 11
214.559
 21
102.076
 31
0.0
  0
LINE
  8
0
 62
     0
 10
214.559
 20
102.076
 30
0.0
 11
214.836
 21
101.933
 31
0.0
  0
LINE
  8
0
 62
     0
 10
214.836
 20
101.933
 30
0.0
 11
215.146
 21
101.885
 31
0.0
  0
LINE
  8
0
 62
     0
 10
215.146
 20
101.885
 30
0.0
 11
215.455
 21
101.933
 31
0.0
  0
LINE
  8
0
 62
     0
 10
215.455
 20
101.933
 30
0.0
 11
215.733
 21
102.076
 31
0.0
  0
LINE
  8
0
 62
     0
 10
215.733
 20
102.076
 30
0.0
 11
215.955
 21
102.299
 31
0.0
  0
LINE
  8
0
 62
     0
 10
215.955
 20
102.299
 30
0.0
 11
216.097
 21
102.576
 31
0.0
  0
LINE
  8
0
 62
     0
 10
216.097
 20
102.576
 30
0.0
 11
216.147
 21
102.886
 31
0.0
  0
LINE
  8
0
 62
     0
 10
216.147
 20
102.886
 30
0.0
 11
216.097
 21
103.195
 31
0.0
  0
LINE
  8
0
 62
     0
 10
216.097
 20
103.195
 30
0.0
 11
215.955
 21
103.473
 31
0.0
  0
LINE
  8
0
 62
     0
 10
215.955
 20
103.473
 30
0.0
 11
215.733
 21
103.695
 31
0.0
  0
LINE
  8
0
 62
     0
 10
215.733
 20
103.695
 30
0.0
 11
215.455
 21
103.837
 31
0.0
  0
LINE
  8
0
 62
     0
 10
215.455
 20
103.837
 30
0.0
 11
215.146
 21
103.885
 31
0.0
  0
LINE
  8
0
 62
     0
 10
215.146
 20
103.885
 30
0.0
 11
214.836
 21
103.837
 31
0.0
  0
ENDSEC
  0
EOF
